<svg width="630" height="666" viewBox="0 0 630 666" fill="none" xmlns="http://www.w3.org/2000/svg">
<path d="M270.217 128.781H267.239V47.2107C267.239 34.6897 262.265 22.6814 253.412 13.8277C244.558 4.97398 232.55 7.95662e-06 220.029 1.28153e-10H47.2108C41.011 -1.44453e-05 34.8719 1.22111 29.144 3.59366C23.4162 5.96621 18.2117 9.44372 13.8278 13.8276C9.44383 18.2115 5.96631 23.416 3.59373 29.1439C1.22116 34.8717 1.05058e-05 41.0108 0 47.2106V494.712C-1.06086e-05 507.233 4.97395 519.241 13.8277 528.095C22.6814 536.949 34.6896 541.923 47.2106 541.923H220.028C232.55 541.923 244.558 536.949 253.412 528.095C262.265 519.242 267.239 507.233 267.239 494.712V186.844H270.217V128.781Z" fill="#3F3D56"/>
<path d="M221.933 12.2825H199.375C200.412 14.8259 200.808 17.5854 200.528 20.3178C200.248 23.0503 199.3 25.6719 197.768 27.9517C196.236 30.2315 194.166 32.0996 191.742 33.3913C189.318 34.6829 186.613 35.3586 183.867 35.3589H84.8614C82.1146 35.3587 79.41 34.6829 76.9859 33.3913C74.5617 32.0996 72.4924 30.2315 70.9603 27.9517C69.4281 25.6719 68.4802 23.0503 68.1999 20.3178C67.9196 17.5853 68.3156 14.8259 69.353 12.2825H48.2833C43.6534 12.2825 39.0688 13.1944 34.7913 14.9662C30.5138 16.738 26.6271 19.3349 23.3533 22.6088C20.0794 25.8827 17.4824 29.7693 15.7106 34.0468C13.9388 38.3243 13.0269 42.9089 13.0269 47.5388V494.384C13.0269 499.014 13.9388 503.598 15.7106 507.876C17.4824 512.153 20.0793 516.04 23.3532 519.314C26.6271 522.588 30.5137 525.185 34.7912 526.956C39.0687 528.728 43.6533 529.64 48.2832 529.64H221.933C231.284 529.64 240.252 525.926 246.864 519.314C253.475 512.702 257.19 503.734 257.19 494.384V47.5389C257.19 42.909 256.278 38.3244 254.506 34.0469C252.734 29.7694 250.137 25.8827 246.864 22.6089C243.59 19.335 239.703 16.738 235.426 14.9662C231.148 13.1944 226.563 12.2825 221.933 12.2825Z" fill="white"/>
<path d="M135.108 345.68C181.747 345.68 219.555 307.872 219.555 261.234C219.555 214.595 181.747 176.787 135.108 176.787C88.4701 176.787 50.6622 214.595 50.6622 261.234C50.6622 307.872 88.4701 345.68 135.108 345.68Z" fill="#1D5C96"/>
<path d="M160.132 267.004L139.132 288.634C138.675 289.095 138.129 289.457 137.527 289.7C136.925 289.942 136.28 290.059 135.632 290.044H135.562C134.912 290.058 134.266 289.941 133.663 289.698C133.059 289.456 132.511 289.094 132.052 288.634L111.062 267.004C110.992 266.924 110.912 266.854 110.842 266.784C110.004 265.885 109.557 264.691 109.598 263.464C109.639 262.236 110.166 261.074 111.062 260.234C112.021 259.333 113.287 258.832 114.602 258.832C115.918 258.832 117.184 259.333 118.142 260.234L130.582 273.234V239.714C130.64 238.423 131.194 237.204 132.128 236.311C133.062 235.418 134.305 234.919 135.597 234.919C136.889 234.919 138.132 235.418 139.066 236.311C140 237.204 140.554 238.423 140.612 239.714V273.234L153.042 260.234C154.002 259.333 155.27 258.832 156.587 258.832C157.904 258.832 159.171 259.333 160.132 260.234C160.202 260.304 160.272 260.374 160.352 260.454C161.188 261.354 161.633 262.547 161.592 263.775C161.551 265.002 161.026 266.163 160.132 267.004Z" fill="white"/>
<path d="M590.258 653.281L577.998 653.28L572.166 605.992L590.26 605.993L590.258 653.281Z" fill="#9F616A"/>
<path d="M593.385 665.165L553.854 665.164V664.664C553.854 660.583 555.475 656.67 558.361 653.784C561.246 650.899 565.16 649.278 569.24 649.277L593.385 649.278L593.385 665.165Z" fill="#2F2E41"/>
<path d="M497.121 652.877L485.277 649.71L491.857 602.52L509.337 607.194L497.121 652.877Z" fill="#9F616A"/>
<path d="M497.072 665.165L458.883 654.953L459.012 654.47C460.066 650.528 462.643 647.166 466.176 645.124C469.709 643.082 473.908 642.526 477.851 643.58L501.176 649.818L497.072 665.165Z" fill="#2F2E41"/>
<path d="M597.311 388.269L607.58 400.199L594.299 642.642H565.931L551.628 456.091L507.282 647.645L477.79 640.412L504.606 397.113L597.311 388.269Z" fill="#2F2E41"/>
<path d="M511.462 231.744L539.708 217.577L583.145 218.34L620.524 237.468L599.257 343.681L608.444 399.061C572.936 408.116 535.761 408.422 500.109 399.952L499.824 399.885C499.824 399.885 520.938 324.968 511.95 302.106L511.462 231.744Z" fill="#CBCBCB"/>
<path d="M593.177 175.136C593.146 166.659 589.752 158.54 583.741 152.563C577.73 146.585 569.593 143.236 561.116 143.252C552.639 143.268 544.514 146.646 538.525 152.646C532.536 158.646 529.173 166.777 529.173 175.254C529.173 183.732 532.536 191.863 538.525 197.862C544.514 203.862 552.639 207.241 561.116 207.257C569.593 207.272 577.73 203.924 583.741 197.946C589.752 191.968 593.146 183.85 593.177 175.373C593.178 175.294 593.178 175.215 593.177 175.136Z" fill="#9F616A"/>
<path d="M546.845 156.85C548.502 155.29 550.685 154.409 552.962 154.382C556.381 154.271 561.504 155.485 563.684 158.265C565.436 160.499 565.52 163.572 565.527 166.411L565.545 174.247C565.551 176.565 565.579 178.983 566.632 181.048C567.685 183.113 570.103 184.682 572.312 183.978C574.932 183.142 576.084 179.66 578.762 179.034C580.773 178.564 582.838 180.033 583.717 181.902C584.46 183.839 584.706 185.931 584.433 187.988C584.18 192.091 578.295 193.719 577.462 197.744C576.98 200.072 575.293 204.717 577.462 203.744C587.462 202.744 591.851 196.903 596.428 191.405L606.751 179.004C607.93 177.773 608.835 176.307 609.409 174.701C609.665 173.577 609.757 172.421 609.682 171.271C609.626 168.188 609.542 165.107 609.431 162.026C609.334 159.335 608.657 155.939 606.021 155.386C604.65 155.098 602.835 155.6 602.111 154.401C601.839 153.8 601.795 153.121 601.986 152.49C602.568 149.413 603.55 146.196 602.538 143.233C601.011 138.765 595.753 136.932 591.107 136.089C586.461 135.246 581.245 134.52 578.329 130.807C577.549 129.574 576.702 128.384 575.793 127.242C574.455 126.026 572.812 125.196 571.038 124.844C565.271 123.384 559.179 123.925 553.758 126.377C551.511 127.403 549.253 128.784 546.788 128.628C544.227 128.465 542.04 126.663 539.511 126.225C535.428 125.516 531.524 128.576 529.511 132.199C527.018 136.689 526.789 142.837 530.312 146.574C532.069 148.438 534.691 149.719 535.421 152.175C535.718 153.175 535.649 154.251 535.912 155.261C536.218 156.265 536.802 157.163 537.596 157.85C538.39 158.537 539.362 158.986 540.4 159.144C542.897 159.551 545.01 158.407 546.845 156.85Z" fill="#2F2E41"/>
<path d="M507.564 309.185C508.171 310.746 509.114 312.155 510.326 313.313C511.537 314.471 512.988 315.349 514.575 315.885C516.163 316.422 517.848 316.604 519.514 316.418C521.179 316.233 522.783 315.684 524.214 314.812L581.567 345.13L583.424 331.158L527.695 298.296C526.07 295.99 523.655 294.36 520.908 293.715C518.162 293.071 515.274 293.456 512.793 294.798C510.311 296.141 508.408 298.346 507.444 300.998C506.481 303.649 506.523 306.562 507.564 309.185Z" fill="#9F616A"/>
<path d="M583.992 311.6C583.058 312.991 581.829 314.16 580.394 315.024C578.958 315.889 577.351 316.428 575.685 316.605C574.018 316.781 572.333 316.589 570.749 316.044C569.165 315.499 567.719 314.612 566.514 313.448L503.917 330.483L504.462 312.744L566.731 296.571C568.822 294.676 571.535 293.614 574.356 293.586C577.177 293.558 579.91 294.566 582.038 296.419C584.165 298.271 585.539 300.84 585.9 303.638C586.26 306.436 585.581 309.269 583.992 311.6Z" fill="#9F616A"/>
<path d="M608.319 238.232L620.524 237.468C620.524 237.468 634.814 256.323 626.888 276.783C626.888 276.783 628.261 350.282 596.612 347.263C564.962 344.244 554.962 344.244 554.962 344.244L564.462 317.744L585.715 311.182C585.715 311.182 579.165 282.288 591.563 270.266L608.319 238.232Z" fill="#CBCBCB"/>
<path d="M520.187 237.586L518.462 228.744C518.462 228.744 493.022 228.146 487.992 266.695C487.992 266.695 465.115 324.387 487.539 331.816C509.962 339.244 534.627 331.816 534.627 331.816L532.769 306.374L508.097 301.339C508.097 301.339 520.842 284.849 513.902 270.547L520.187 237.586Z" fill="#CBCBCB"/>
</svg>
