<svg width="668" height="590" viewBox="0 0 668 590" fill="none" xmlns="http://www.w3.org/2000/svg">
<path d="M32.5614 201.258L0.0233438 182.931C-0.415559 163.324 3.93853 143.905 12.7075 126.362C20.2093 160.411 59.6887 176.61 77.904 206.339C83.5142 215.655 86.9561 226.114 87.9747 236.94C88.9933 247.767 87.5625 258.684 83.7883 268.883L85.9283 295.282C69.1115 290.245 53.5866 281.622 40.4232 270.008C27.2598 258.393 16.7708 244.063 9.67892 228.004C5.78967 218.956 3.05535 209.454 1.5405 199.722C16.7112 201.337 32.5614 201.258 32.5614 201.258Z" fill="#F2F2F2"/>
<path d="M617.487 534.67L618.485 512.236C628.886 506.676 640.487 503.74 652.28 503.681C636.049 516.951 638.077 542.532 627.073 560.378C623.598 565.917 618.921 570.604 613.389 574.09C607.856 577.577 601.61 579.773 595.114 580.518L581.531 588.834C579.667 578.444 580.078 567.773 582.735 557.556C585.392 547.34 590.233 537.821 596.923 529.655C600.722 525.112 605.078 521.064 609.888 517.609C613.141 526.187 617.487 534.67 617.487 534.67Z" fill="#F2F2F2"/>
<path d="M582.489 577.289L570.189 577.288L564.338 529.848L582.491 529.849L582.489 577.289Z" fill="#FFB6B6"/>
<path d="M585.625 589.211L545.967 589.21V588.708C545.968 584.614 547.594 580.688 550.489 577.794C553.383 574.899 557.309 573.273 561.403 573.272L568.648 567.777L582.164 573.273H585.626L585.625 589.211Z" fill="#2F2E41"/>
<path d="M525.348 577.289L513.049 577.288L507.198 529.848L525.351 529.849L525.348 577.289Z" fill="#FFB6B6"/>
<path d="M528.485 589.211L488.827 589.21V588.708C488.827 584.614 490.454 580.688 493.348 577.794C496.243 574.899 500.169 573.273 504.263 573.272L511.508 567.777L525.024 573.273H528.486L528.485 589.211Z" fill="#2F2E41"/>
<path d="M520.025 317.93L600.025 319.93C615.218 328.183 615.449 346.044 610.471 367.25C610.471 367.25 612.151 379.855 608.79 383.216C605.429 386.577 603.748 386.577 605.429 392.459C607.11 398.341 598.23 407.949 599.309 409.027C600.387 410.106 602.908 415.988 602.908 415.988L594.505 463.885C594.505 463.885 588.623 547.074 586.942 548.755C585.262 550.435 583.581 548.755 585.262 552.956C586.942 557.158 588.623 555.477 586.942 557.158C585.454 558.763 584.051 560.446 582.741 562.2H562.425C562.425 562.2 560.893 553.797 560.893 552.956C560.893 552.116 559.213 547.074 559.213 546.234C559.213 545.394 560.698 543.908 560.698 543.908C561.211 542.2 561.558 540.446 561.734 538.671C561.734 536.991 566.775 472.288 566.775 472.288L556.692 388.258L532.323 470.607C532.323 470.607 532.323 542.873 530.643 544.553C528.962 546.234 528.962 545.394 529.802 548.755C530.643 552.116 534.004 551.276 531.483 553.797C528.962 556.317 528.122 552.116 528.962 556.318L529.802 560.519L504.593 560.88C504.593 560.88 501.232 553.797 502.913 551.276C504.593 548.755 504.492 549.443 502.442 545.318C500.392 541.192 499.551 540.352 500.392 539.512C501.232 538.671 501.232 534.202 501.232 534.202L505.434 453.801C505.434 453.801 506.274 368.931 506.274 366.41C506.337 365.113 506.098 363.819 505.576 362.63V359.208L508.795 347.083L520.025 317.93Z" fill="#2F2E41"/>
<path d="M568.082 151.583C581.81 151.583 592.938 140.454 592.938 126.726C592.938 112.999 581.81 101.87 568.082 101.87C554.354 101.87 543.225 112.999 543.225 126.726C543.225 140.454 554.354 151.583 568.082 151.583Z" fill="#FFB6B6"/>
<path d="M555.654 168.011C550.299 171.195 547.095 177.044 545.256 182.996C541.852 194.016 539.803 205.41 539.154 216.925L537.212 251.401L513.157 324.808C534.004 342.448 612.366 328.817 612.366 328.817C612.366 328.817 614.772 328.016 612.366 325.61C609.961 323.205 607.619 325.336 610.025 322.93C612.43 320.525 610.772 323.205 609.97 320.799C609.168 318.394 609.97 319.997 610.772 319.195C611.574 318.394 604.565 311.177 604.565 311.177L610.979 269.041L618.997 184.048C609.375 172.02 590.025 164.93 590.025 164.93L585.025 155.93L560.025 157.93L555.654 168.011Z" fill="#E6E6E6"/>
<path d="M552.244 112.139C553.206 112.146 554.163 112.272 555.094 112.513C556.93 112.954 558.794 113.267 560.674 113.448C566.428 113.99 571.835 116.444 576.031 120.418C580.227 124.393 582.97 129.659 583.821 135.376C585.266 134.117 588.552 131.8 591.246 133.953C591.287 133.987 591.311 134.005 591.406 133.96C593.195 133.111 596.371 122.665 596.467 113.467C596.518 108.585 595.749 102.352 591.801 100.377L591.593 100.273L591.538 100.047C591.275 98.9492 588.327 97.0747 583.205 95.6157C573.897 92.9643 560.021 87.7994 552.208 95.4005C551.616 97.963 549.693 103.447 547.749 104.068C545.597 104.756 543.739 105.35 543.446 107.99C543.201 111.746 543.219 115.515 543.499 119.269C544.228 116.972 545.66 114.961 547.591 113.52C548.965 112.596 550.589 112.114 552.244 112.139Z" fill="#2F2E41"/>
<path d="M505.979 249.481L546.582 223.478L526.132 196.293L505.938 221.133L443.02 224.992C441.365 223.356 439.269 222.237 436.99 221.771C434.71 221.305 432.344 221.513 430.18 222.369C428.016 223.225 426.148 224.691 424.803 226.591C423.458 228.49 422.695 230.739 422.607 233.064C422.519 235.39 423.109 237.69 424.306 239.686C425.502 241.682 427.254 243.286 429.347 244.304C431.439 245.321 433.783 245.708 436.091 245.416C438.4 245.125 440.574 244.168 442.348 242.662L505.979 249.481Z" fill="#FFB6B6"/>
<path d="M584.268 187.183C586.624 201.444 542.122 228.678 542.122 228.678C542.121 225.33 515.56 250.601 514.361 247.825C510.954 239.935 508.558 221.246 503.797 218.255C501.074 216.544 520.196 200.474 520.196 200.474C520.196 200.474 530.206 190.39 543.341 177.671C546.988 174.006 551.503 171.324 556.465 169.873C561.428 168.423 566.677 168.251 571.723 169.375C571.723 169.375 581.911 172.921 584.268 187.183Z" fill="#E6E6E6"/>
<path d="M667.957 256.307L641.1 216.264L614.354 237.285L639.616 256.948L644.806 319.771C643.206 321.46 642.131 323.579 641.714 325.868C641.297 328.157 641.554 330.518 642.456 332.664C643.357 334.809 644.863 336.646 646.79 337.95C648.718 339.254 650.983 339.969 653.309 340.008C655.636 340.047 657.924 339.408 659.894 338.17C661.863 336.931 663.43 335.146 664.403 333.032C665.376 330.918 665.713 328.567 665.373 326.265C665.033 323.963 664.03 321.81 662.487 320.068L667.957 256.307Z" fill="#FFB6B6"/>
<path d="M604.014 179.355C618.223 176.697 646.393 220.613 646.393 220.613C643.046 220.684 668.874 246.704 666.124 247.962C658.307 251.536 639.674 254.327 636.784 259.15C635.131 261.909 618.66 243.131 618.66 243.131C618.66 243.131 608.366 233.337 595.372 220.474C591.631 216.906 588.853 212.449 587.298 207.518C585.743 202.587 585.46 197.343 586.477 192.274C586.477 192.274 589.806 182.013 604.014 179.355Z" fill="#E6E6E6"/>
<path d="M415.162 228.792H74.9916C69.677 228.798 64.5818 230.912 60.8237 234.67C57.0657 238.428 54.9518 243.523 54.9458 248.838V460.626C54.9519 465.941 57.0658 471.036 60.8238 474.794C64.5818 478.552 69.677 480.666 74.9916 480.672H415.162C420.476 480.666 425.572 478.552 429.33 474.794C433.088 471.036 435.202 465.941 435.208 460.626V248.838C435.202 243.523 433.088 238.428 429.33 234.67C425.572 230.912 420.477 228.798 415.162 228.792Z" fill="#1D5C96"/>
<path d="M415.162 228.792H74.9916C69.677 228.798 64.5818 230.912 60.8237 234.67C57.0657 238.428 54.9518 243.523 54.9458 248.838V460.626C54.9519 465.941 57.0658 471.036 60.8238 474.794C64.5818 478.552 69.677 480.666 74.9916 480.672H415.162C420.476 480.666 425.572 478.552 429.33 474.794C433.088 471.036 435.202 465.941 435.208 460.626V248.838C435.202 243.523 433.088 238.428 429.33 234.67C425.572 230.912 420.477 228.798 415.162 228.792ZM421.74 380.922C421.659 402.483 413.13 423.154 397.984 438.5C382.838 453.845 362.28 462.643 340.722 463.006C306.205 463.455 359.82 463.63 318.19 463.63C222.997 463.63 123.738 462.721 86.7028 462.131C81.8301 462.031 77.1898 460.029 73.7726 456.554C70.3554 453.079 68.432 448.406 68.4132 443.532V248.854C68.4151 247.108 69.1082 245.435 70.3407 244.199C71.5733 242.964 73.245 242.267 74.9902 242.26H415.148C416.893 242.262 418.566 242.955 419.801 244.188C421.037 245.42 421.734 247.091 421.74 248.836V380.922Z" fill="#3F3D56"/>
<path d="M373.287 106.838H114.114C111.82 106.841 109.584 107.552 107.71 108.874C105.836 110.195 104.416 112.063 103.643 114.222L63.6149 226.521C63.0175 228.198 62.8312 229.993 63.0717 231.756C63.3122 233.519 63.9724 235.199 64.9969 236.654C66.0214 238.109 67.3802 239.296 68.9591 240.117C70.538 240.938 72.2908 241.368 74.0703 241.37L421.665 241.987H421.68C423.52 241.987 425.331 241.53 426.95 240.658C428.57 239.786 429.948 238.526 430.96 236.99C431.973 235.454 432.589 233.691 432.752 231.859C432.916 230.027 432.622 228.183 431.898 226.492L383.505 113.575C382.649 111.575 381.225 109.869 379.408 108.672C377.592 107.474 375.463 106.836 373.287 106.838Z" fill="#3F3D56"/>
<path d="M432.798 228.931C432.797 230.436 432.49 231.926 431.898 233.311L383.508 320.23C382.646 322.227 381.22 323.927 379.404 325.123C377.588 326.319 375.462 326.958 373.288 326.961H114.118C111.824 326.958 109.586 326.248 107.711 324.928C105.835 323.607 104.413 321.74 103.638 319.581L63.6177 233.281C63.1272 231.906 62.9124 230.448 62.9857 228.99C63.059 227.532 63.4189 226.102 64.0448 224.784C64.6708 223.465 65.5505 222.282 66.6337 221.304C67.7169 220.325 68.9823 219.57 70.3577 219.081C71.5475 218.651 72.8028 218.431 74.0677 218.431L116.528 218.351L133.858 218.321L361.898 217.921L379.238 217.891L421.668 217.811H421.678C424.627 217.811 427.455 218.983 429.54 221.068C431.625 223.153 432.797 225.981 432.798 228.931Z" fill="#3F3D56"/>
<path d="M100.494 387.658C105.633 387.658 176.208 391.971 176.208 397.11C176.208 402.25 105.633 406.269 100.494 406.269C98.0256 406.269 95.6587 405.289 93.9135 403.543C92.1684 401.798 91.188 399.431 91.188 396.963C91.188 394.495 92.1684 392.128 93.9135 390.383C95.6587 388.638 98.0256 387.658 100.494 387.658Z" fill="#3F3D56"/>
<path d="M357.148 38.5205H138.618C132.761 38.5273 127.146 40.8568 123.005 44.998C118.864 49.1392 116.534 54.754 116.528 60.6105V326.961H373.288C375.396 326.967 377.462 326.367 379.238 325.231V60.6105C379.231 54.754 376.901 49.1392 372.76 44.998C368.619 40.8568 363.004 38.5273 357.148 38.5205Z" fill="#E6E6E6"/>
<path d="M273.738 56.4305H153.978C148.645 56.4357 143.532 58.5558 139.76 62.3257C135.988 66.0957 133.866 71.2077 133.858 76.5406V326.961H361.898V144.591C361.871 121.217 352.574 98.8091 336.046 82.2818C319.519 65.7544 297.111 56.4575 273.738 56.4305Z" fill="white"/>
<path d="M323.048 304.721H172.708C171.408 304.721 170.162 305.237 169.243 306.156C168.324 307.075 167.808 308.321 167.808 309.621C167.808 310.92 168.324 312.166 169.243 313.085C170.162 314.004 171.408 314.521 172.708 314.521H323.048C324.347 314.521 325.593 314.004 326.512 313.085C327.431 312.166 327.948 310.92 327.948 309.621C327.948 308.321 327.431 307.075 326.512 306.156C325.593 305.237 324.347 304.721 323.048 304.721Z" fill="#E4E4E4"/>
<path d="M323.048 285.341H172.708C171.407 285.341 170.159 285.857 169.239 286.777C168.319 287.697 167.803 288.945 167.803 290.246C167.803 291.546 168.319 292.794 169.239 293.714C170.159 294.634 171.407 295.151 172.708 295.151H323.048C324.349 295.151 325.596 294.634 326.516 293.714C327.436 292.794 327.953 291.546 327.953 290.246C327.953 288.945 327.436 287.697 326.516 286.777C325.596 285.857 324.349 285.341 323.048 285.341Z" fill="#E4E4E4"/>
<path d="M237.878 265.971H172.708C171.408 265.971 170.162 266.487 169.243 267.406C168.324 268.325 167.808 269.571 167.808 270.871C167.808 272.17 168.324 273.416 169.243 274.335C170.162 275.254 171.408 275.771 172.708 275.771H237.878C239.177 275.771 240.424 275.254 241.342 274.335C242.261 273.416 242.778 272.17 242.778 270.871C242.778 269.571 242.261 268.325 241.342 267.406C240.424 266.487 239.177 265.971 237.878 265.971Z" fill="#E4E4E4"/>
<path d="M323.048 225.391H172.708C171.407 225.391 170.159 225.907 169.239 226.827C168.319 227.747 167.803 228.995 167.803 230.296C167.803 231.596 168.319 232.844 169.239 233.764C170.159 234.684 171.407 235.201 172.708 235.201H323.048C324.349 235.201 325.596 234.684 326.516 233.764C327.436 232.844 327.953 231.596 327.953 230.296C327.953 228.995 327.436 227.747 326.516 226.827C325.596 225.907 324.349 225.391 323.048 225.391Z" fill="#E4E4E4"/>
<path d="M323.048 206.021H172.708C171.408 206.021 170.162 206.537 169.243 207.456C168.324 208.375 167.808 209.621 167.808 210.921C167.808 212.22 168.324 213.466 169.243 214.385C170.162 215.304 171.408 215.821 172.708 215.821H323.048C324.347 215.821 325.593 215.304 326.512 214.385C327.431 213.466 327.948 212.22 327.948 210.921C327.948 209.621 327.431 208.375 326.512 207.456C325.593 206.537 324.347 206.021 323.048 206.021Z" fill="#E4E4E4"/>
<path d="M237.878 186.641H172.708C171.407 186.641 170.159 187.157 169.239 188.077C168.319 188.997 167.803 190.245 167.803 191.546C167.803 192.846 168.319 194.094 169.239 195.014C170.159 195.934 171.407 196.451 172.708 196.451H237.878C239.178 196.451 240.426 195.934 241.346 195.014C242.266 194.094 242.783 192.846 242.783 191.546C242.783 190.245 242.266 188.997 241.346 188.077C240.426 187.157 239.178 186.641 237.878 186.641Z" fill="#E4E4E4"/>
<path d="M323.048 146.061H172.708C171.407 146.061 170.159 146.577 169.239 147.497C168.319 148.417 167.803 149.665 167.803 150.966C167.803 152.266 168.319 153.514 169.239 154.434C170.159 155.354 171.407 155.871 172.708 155.871H323.048C324.349 155.871 325.596 155.354 326.516 154.434C327.436 153.514 327.953 152.266 327.953 150.966C327.953 149.665 327.436 148.417 326.516 147.497C325.596 146.577 324.349 146.061 323.048 146.061Z" fill="#1D5C96"/>
<path d="M323.048 126.691H172.708C171.407 126.691 170.159 127.207 169.239 128.127C168.319 129.047 167.803 130.295 167.803 131.596C167.803 132.896 168.319 134.144 169.239 135.064C170.159 135.984 171.407 136.501 172.708 136.501H323.048C324.349 136.501 325.596 135.984 326.516 135.064C327.436 134.144 327.953 132.896 327.953 131.596C327.953 130.295 327.436 129.047 326.516 128.127C325.596 127.207 324.349 126.691 323.048 126.691Z" fill="#1D5C96"/>
<path d="M237.878 107.311H172.708C171.407 107.311 170.159 107.827 169.239 108.747C168.319 109.667 167.803 110.915 167.803 112.216C167.803 113.516 168.319 114.764 169.239 115.684C170.159 116.604 171.407 117.121 172.708 117.121H237.878C239.178 117.121 240.426 116.604 241.346 115.684C242.266 114.764 242.783 113.516 242.783 112.216C242.783 110.915 242.266 109.667 241.346 108.747C240.426 107.827 239.178 107.311 237.878 107.311Z" fill="#1D5C96"/>
<path d="M371.045 76.3256C392.122 76.3256 409.208 59.2396 409.208 38.1628C409.208 17.0861 392.122 0 371.045 0C349.968 0 332.882 17.0861 332.882 38.1628C332.882 59.2396 349.968 76.3256 371.045 76.3256Z" fill="#1D5C96"/>
<path d="M365.839 58.0248C365.18 58.0248 364.53 57.8713 363.94 57.5765C363.351 57.2817 362.838 56.8537 362.443 56.3264L352.031 42.4443C351.695 41.9985 351.45 41.4907 351.31 40.95C351.171 40.4093 351.139 39.8463 351.217 39.2934C351.296 38.7405 351.482 38.2084 351.766 37.7277C352.051 37.247 352.427 36.8271 352.874 36.492C353.32 36.157 353.829 35.9134 354.37 35.7752C354.911 35.637 355.474 35.6069 356.027 35.6866C356.58 35.7664 357.111 35.9544 357.591 36.2399C358.071 36.5254 358.49 36.9029 358.824 37.3505L365.635 46.4319L383.13 20.1905C383.754 19.2537 384.725 18.6034 385.829 18.3826C386.933 18.1618 388.08 18.3886 389.017 19.0131C389.953 19.6377 390.604 20.6088 390.824 21.7128C391.045 22.8168 390.818 23.9633 390.194 24.9001L369.371 56.1343C368.994 56.6992 368.488 57.1656 367.894 57.4943C367.3 57.823 366.635 58.0044 365.957 58.0234C365.917 58.0241 365.878 58.0248 365.839 58.0248Z" fill="white"/>
</svg>
