<svg width="600" height="779" viewBox="0 0 600 779" fill="none" xmlns="http://www.w3.org/2000/svg">
<path d="M599.736 172.947H595.737V63.4019C595.737 55.0759 594.098 46.8313 590.911 39.1391C587.725 31.4468 583.055 24.4574 577.168 18.57C571.28 12.6826 564.291 8.01245 556.599 4.8262C548.906 1.63995 540.662 6.56627e-06 532.336 1.77456e-10H300.249C291.923 -1.96981e-05 283.678 1.6399 275.986 4.82612C268.294 8.01235 261.304 12.6825 255.417 18.5699C249.53 24.4573 244.859 31.4466 241.673 39.1389C238.487 46.8312 236.847 55.0757 236.847 63.4017V664.376C236.847 681.191 243.527 697.318 255.417 709.208C267.307 721.098 283.434 727.778 300.249 727.778H532.335C549.151 727.778 565.277 721.098 577.167 709.208C589.057 697.318 595.737 681.192 595.737 664.376V250.923H599.736V172.947Z" fill="#3F3D56"/>
<path d="M534.894 16.495H504.599C505.992 19.9106 506.524 23.6165 506.147 27.2861C505.771 30.9556 504.498 34.4764 502.44 37.538C500.383 40.5997 497.604 43.1084 494.348 44.8431C491.093 46.5778 487.46 47.4852 483.772 47.4855H350.812C347.123 47.4852 343.491 46.5778 340.236 44.8431C336.98 43.1084 334.201 40.5997 332.143 37.538C330.086 34.4764 328.813 30.9556 328.436 27.286C328.06 23.6164 328.592 19.9106 329.985 16.4949H301.689C289.132 16.4949 277.089 21.4833 268.209 30.3628C259.33 39.2422 254.342 51.2853 254.342 63.8427V663.935C254.342 676.493 259.33 688.536 268.209 697.415C277.089 706.295 289.132 711.283 301.689 711.283H534.894C541.112 711.283 547.268 710.058 553.013 707.679C558.757 705.3 563.977 701.812 568.374 697.415C572.77 693.019 576.258 687.799 578.637 682.055C581.017 676.31 582.242 670.153 582.242 663.935V63.8427C582.242 57.6249 581.017 51.468 578.637 45.7235C576.258 39.979 572.77 34.7594 568.374 30.3628C563.977 25.9661 558.757 22.4785 553.013 20.0991C547.268 17.7196 541.112 16.495 534.894 16.495Z" fill="white"/>
<path d="M430.531 668.779C409.923 668.789 389.939 661.715 373.926 648.743C357.913 635.771 346.845 617.69 342.578 597.529C338.31 577.368 341.102 556.353 350.485 538.006C359.868 519.658 375.272 505.093 394.116 496.752C412.96 488.41 434.099 486.8 453.989 492.189C473.88 497.579 491.313 509.641 503.368 526.355C515.423 543.069 521.367 563.418 520.204 583.993C519.041 604.567 510.841 624.117 496.979 639.366L515.744 660.401L506.38 664.373C491.893 670.518 477.717 664.539 469.761 659.767C457.532 665.695 444.12 668.776 430.531 668.779ZM430.531 503.831C419.071 503.835 407.763 506.458 397.472 511.501C387.181 516.543 378.179 523.872 371.153 532.926C364.128 541.98 359.266 552.521 356.938 563.742C354.609 574.963 354.877 586.568 357.72 597.669C360.564 608.771 365.907 619.076 373.343 627.797C380.778 636.517 390.109 643.422 400.622 647.985C411.135 652.547 422.551 654.646 433.999 654.121C445.447 653.596 456.624 650.461 466.675 644.955L470.684 642.752L474.411 645.404C478.67 648.502 483.507 650.715 488.635 651.912L476.827 638.676L482.003 633.811C489.522 626.808 495.51 618.324 499.591 608.894C503.671 599.464 505.757 589.291 505.715 579.016C505.693 559.083 497.764 539.972 483.669 525.877C469.574 511.782 450.464 503.854 430.531 503.831Z" fill="#E6E6E6"/>
<path d="M513.005 579.016C512.997 560.947 507.055 543.382 496.09 529.021C485.126 514.659 469.748 504.298 452.32 499.529C434.892 494.761 416.381 495.85 399.632 502.629C382.884 509.408 368.826 521.502 359.622 537.049C350.417 552.597 346.575 570.739 348.687 588.683C350.799 606.627 358.747 623.381 371.309 636.368C383.872 649.354 400.352 657.854 418.217 660.56C436.081 663.266 454.34 660.028 470.185 651.344C475.886 655.4 489.794 663.491 503.533 657.663L486.995 639.124C495.216 631.421 501.767 622.11 506.241 611.771C510.715 601.431 513.018 590.282 513.005 579.016Z" fill="white"/>
<path d="M446.986 562.153H388.054V567.625H446.986V562.153Z" fill="#1D5C96"/>
<path d="M490.768 581.085H388.054V586.557H490.768V581.085Z" fill="#E6E6E6"/>
<path d="M490.667 600.016H388.054V605.489H490.667V600.016Z" fill="#E6E6E6"/>
<path d="M430.531 269.779C409.923 269.789 389.939 262.715 373.926 249.743C357.913 236.771 346.846 218.69 342.578 198.529C338.31 178.368 341.102 157.353 350.485 139.005C359.868 120.658 375.273 106.093 394.117 97.7518C412.961 89.4105 434.099 87.7996 453.989 93.1891C473.88 98.5786 491.313 110.641 503.368 127.355C515.423 144.069 521.367 164.418 520.204 184.993C519.041 205.567 510.841 225.117 496.979 240.366L515.744 261.401L506.38 265.373C491.893 271.518 477.717 265.539 469.761 260.767C457.532 266.695 444.12 269.776 430.531 269.779ZM430.531 104.831C419.071 104.835 407.763 107.458 397.472 112.501C387.181 117.543 378.179 124.872 371.153 133.926C364.128 142.98 359.266 153.521 356.937 164.742C354.609 175.963 354.877 187.568 357.72 198.669C360.564 209.771 365.907 220.076 373.343 228.797C380.778 237.517 390.109 244.422 400.622 248.985C411.135 253.547 422.551 255.646 433.999 255.121C445.447 254.596 456.624 251.461 466.675 245.955L470.684 243.752L474.411 246.404C478.67 249.502 483.507 251.715 488.635 252.912L476.827 239.676L482.003 234.811C489.522 227.808 495.51 219.324 499.591 209.894C503.671 200.464 505.757 190.291 505.715 180.016C505.693 160.082 497.764 140.972 483.669 126.877C469.574 112.782 450.464 104.854 430.531 104.831Z" fill="#E6E6E6"/>
<path d="M513.005 180.016C512.998 161.947 507.055 144.382 496.091 130.021C485.126 115.659 469.748 105.298 452.32 100.529C434.892 95.761 416.381 96.8501 399.632 103.629C382.884 110.408 368.826 122.502 359.622 138.049C350.417 153.597 346.575 171.739 348.687 189.683C350.799 207.627 358.747 224.381 371.309 237.368C383.872 250.354 400.353 258.854 418.217 261.56C436.082 264.266 454.34 261.028 470.185 252.344C475.886 256.4 489.794 264.491 503.533 258.663L486.995 240.124C495.216 232.421 501.767 223.11 506.241 212.771C510.716 202.431 513.018 191.282 513.005 180.016Z" fill="white"/>
<path d="M446.986 163.153H388.054V168.625H446.986V163.153Z" fill="#1D5C96"/>
<path d="M490.768 182.085H388.054V187.557H490.768V182.085Z" fill="#E6E6E6"/>
<path d="M490.667 201.016H388.054V206.489H490.667V201.016Z" fill="#E6E6E6"/>
<path d="M544.768 277.446C551.947 277.446 557.768 271.626 557.768 264.446C557.768 257.267 551.947 251.446 544.768 251.446C537.588 251.446 531.768 257.267 531.768 264.446C531.768 271.626 537.588 277.446 544.768 277.446Z" fill="#E6E6E6"/>
<path d="M544.768 676.446C551.947 676.446 557.768 670.626 557.768 663.446C557.768 656.267 551.947 650.446 544.768 650.446C537.588 650.446 531.768 656.267 531.768 663.446C531.768 670.626 537.588 676.446 544.768 676.446Z" fill="#E6E6E6"/>
<path d="M257.674 476.008C248.16 481.714 231.21 488.863 213.89 481.516L202.693 476.766L225.13 451.615C207.226 431.873 197.32 406.168 197.347 379.517C197.375 352.865 207.333 327.181 225.278 307.476C243.222 287.771 267.866 275.461 294.399 272.947C320.931 270.434 347.448 277.898 368.774 293.883C390.1 309.868 404.703 333.227 409.734 359.399C414.765 385.571 409.862 412.679 395.983 435.431C382.103 458.183 360.244 474.946 334.67 482.449C309.097 489.952 281.645 487.655 257.674 476.008Z" fill="#1D5C96"/>
<path opacity="0.1" d="M394.967 378.959C394.965 354.315 385.737 330.565 369.099 312.385C352.461 294.206 329.619 282.915 305.072 280.736C307.944 280.484 310.85 280.348 313.787 280.348C339.93 280.365 364.995 290.761 383.475 309.253C401.954 327.744 412.335 352.816 412.335 378.959C412.335 405.101 401.954 430.173 383.475 448.665C364.995 467.156 339.93 477.552 313.787 477.569C310.854 477.569 307.953 477.431 305.085 477.18C329.63 474.998 352.468 463.705 369.103 445.527C385.738 427.348 394.965 403.6 394.967 378.959Z" fill="black"/>
<path d="M318.419 359.294H247.956V365.838H318.419V359.294Z" fill="white"/>
<path d="M370.767 381.93H247.956V388.474H370.767V381.93Z" fill="white"/>
<path d="M370.647 404.566H247.956V411.11H370.647V404.566Z" fill="white"/>
<path d="M48.7852 349.52L50.2912 341.99C50.2912 341.99 72.4402 334.461 74.9182 349.52H48.7852Z" fill="#E6E6E6"/>
<path d="M91.294 764.098L105.815 764.097L112.723 708.088L91.291 708.089L91.294 764.098Z" fill="#9F616A"/>
<path d="M87.5903 759.357L116.187 759.356H116.188C121.021 759.356 125.656 761.276 129.074 764.694C132.491 768.111 134.412 772.746 134.412 777.58V778.172L87.5913 778.174L87.5903 759.357Z" fill="#2F2E41"/>
<path d="M21.294 764.098L35.815 764.097L42.723 708.088L21.291 708.089L21.294 764.098Z" fill="#9F616A"/>
<path d="M17.5903 759.357L46.1873 759.356H46.1883C51.0213 759.356 55.6563 761.276 59.0743 764.694C62.4913 768.111 64.4123 772.746 64.4123 777.58V778.172L17.5913 778.174L17.5903 759.357Z" fill="#2F2E41"/>
<path d="M27.7032 381.143L11.1382 379.637L0.597168 429.331L2.10316 474.507L18.6682 534.742L41.2562 521.189L29.2092 459.448L27.7032 381.143Z" fill="#2F2E41"/>
<path d="M17.2182 529.471L20.9262 561.094L24.4092 634.882L16.4092 744.84L45.0202 743.305L59.0442 628.859L67.6082 576.153L79.6552 636.388L87.1852 749.328L116.549 746.975V635.991L117.302 555.071L106.761 523.448L17.2182 529.471Z" fill="#2F2E41"/>
<path d="M78.9023 351.026C78.9023 351.026 68.3613 335.967 48.7853 346.508L39.7503 358.555L11.1383 379.637L17.1623 450.413L9.63232 539.259L116.549 537.754L98.4793 448.907V354.037L78.9023 351.026Z" fill="#2F2E41"/>
<path opacity="0.25" d="M20.926 404.632L12.292 507.871L23.185 451.919L20.926 404.632Z" fill="black"/>
<path d="M200.652 491.192C199.115 491.714 197.481 491.893 195.867 491.716C194.253 491.539 192.698 491.01 191.31 490.166C189.923 489.323 188.737 488.186 187.837 486.834C186.937 485.483 186.343 483.951 186.099 482.346L161.461 476.257L161.509 460.381L196.183 469.469C198.907 469.238 201.621 470.013 203.811 471.649C206.001 473.285 207.515 475.668 208.066 478.345C208.617 481.023 208.166 483.81 206.8 486.177C205.433 488.545 203.246 490.329 200.652 491.192Z" fill="#9F616A"/>
<path d="M174.887 460.191L170.744 483.927L181.128 485.739L185.272 462.004L174.887 460.191Z" fill="#E6E6E6"/>
<path d="M76.6489 329.926C91.3029 321.915 96.6879 303.542 88.6779 288.888C80.6669 274.234 62.2939 268.848 47.6399 276.859C32.9859 284.87 27.5999 303.243 35.6109 317.897C43.6209 332.551 61.9949 337.937 76.6489 329.926Z" fill="#9F616A"/>
<path d="M64.4033 330.067C57.0053 331.843 49.2113 330.807 42.5343 327.158C35.8573 323.51 30.7753 317.51 28.2743 310.325C25.7733 303.139 26.0313 295.281 28.9993 288.275C31.9673 281.27 37.4333 275.617 44.3353 272.416C49.6503 270.043 55.4633 269 61.2713 269.376C70.3153 269.852 79.1053 273.194 88.1573 272.948L89.4703 275.057L94.4153 273.858L95.4743 277.784L96.7773 277.739C99.1103 282.075 95.3563 288.283 90.4323 288.23C88.4833 288.21 86.6403 287.397 84.7343 286.989C82.8283 286.58 80.5833 286.682 79.2683 288.122C77.5603 289.993 78.3043 292.913 78.6603 295.421C79.0163 297.929 78.1263 301.308 75.5943 301.39C74.3013 301.432 73.0713 300.504 71.8003 300.748C70.3193 301.032 69.5713 302.82 69.7873 304.311C70.1533 305.775 70.7513 307.171 71.5583 308.446C75.2293 315.774 72.1293 325.741 64.9513 329.695" fill="#2F2E41"/>
<path d="M91.2909 359.856L98.4789 354.037C98.4789 354.037 112.985 353.029 112.723 368.407L135.933 441.011L180.461 456.785L174.461 487.785L111.461 463.785L79.4609 410.745L91.2909 359.856Z" fill="#2F2E41"/>
</svg>
