<svg width="893" height="569" viewBox="0 0 893 569" fill="none" xmlns="http://www.w3.org/2000/svg">
<path d="M548.713 274.724L369.86 422.958C367.61 424.819 364.713 425.711 361.806 425.439C358.898 425.167 356.217 423.752 354.351 421.506L278.956 330.538C277.096 328.287 276.203 325.391 276.476 322.483C276.748 319.576 278.162 316.895 280.408 315.029L459.261 166.795C461.512 164.934 464.408 164.042 467.316 164.314C470.223 164.586 472.904 166.001 474.77 168.247L550.165 259.215C552.026 261.466 552.918 264.362 552.646 267.27C552.374 270.177 550.959 272.858 548.713 274.724Z" fill="#CCCCCC"/>
<path d="M541.546 270.26L366.804 415.087C365.645 416.045 364.153 416.505 362.655 416.365C361.157 416.225 359.776 415.496 358.815 414.339L286.828 327.482C285.869 326.323 285.409 324.831 285.55 323.333C285.69 321.835 286.418 320.454 287.576 319.493L462.317 174.666C463.477 173.708 464.969 173.248 466.467 173.388C467.964 173.528 469.345 174.257 470.306 175.414L542.294 262.271C543.252 263.43 543.712 264.922 543.572 266.42C543.432 267.918 542.703 269.299 541.546 270.26Z" fill="white"/>
<path d="M549.601 300.577L513.661 297.213L539.384 276.968L553.241 293.687C553.782 294.325 554.117 295.111 554.203 295.943C554.289 296.775 554.122 297.613 553.723 298.348C553.462 298.847 553.105 299.29 552.672 299.65C552.247 300 551.757 300.262 551.229 300.421C550.702 300.58 550.149 300.633 549.601 300.577Z" fill="#CCCCCC"/>
<path d="M477.428 236.202L389.029 309.467C388.489 309.914 387.866 310.251 387.196 310.458C386.526 310.665 385.822 310.738 385.123 310.672C384.425 310.607 383.747 310.405 383.127 310.077C382.507 309.749 381.957 309.303 381.51 308.763C381.062 308.223 380.725 307.6 380.518 306.93C380.312 306.26 380.239 305.556 380.304 304.858C380.37 304.159 380.572 303.481 380.899 302.861C381.227 302.241 381.674 301.691 382.213 301.244L470.612 227.979C471.152 227.531 471.775 227.194 472.445 226.987C473.115 226.781 473.819 226.708 474.518 226.773C475.216 226.839 475.894 227.041 476.514 227.368C477.134 227.696 477.684 228.142 478.131 228.682C478.579 229.222 478.916 229.845 479.123 230.515C479.329 231.185 479.402 231.89 479.337 232.588C479.271 233.286 479.069 233.965 478.742 234.585C478.414 235.205 477.968 235.754 477.428 236.202Z" fill="#CCCCCC"/>
<path d="M434.164 242.581L374.546 291.993C373.456 292.897 372.051 293.33 370.641 293.198C369.231 293.066 367.931 292.379 367.027 291.289C366.123 290.198 365.69 288.794 365.822 287.383C365.954 285.973 366.64 284.673 367.731 283.77L427.349 234.358C428.439 233.454 429.844 233.021 431.254 233.153C432.664 233.285 433.964 233.972 434.868 235.062C435.772 236.153 436.205 237.557 436.073 238.967C435.941 240.378 435.254 241.678 434.164 242.581Z" fill="#CCCCCC"/>
<path d="M341.787 343.635C351.003 343.635 358.475 336.163 358.475 326.947C358.475 317.73 351.003 310.259 341.787 310.259C332.57 310.259 325.099 317.73 325.099 326.947C325.099 336.163 332.57 343.635 341.787 343.635Z" fill="#1D5C96"/>
<path d="M474.533 293.496C477.482 293.496 479.873 291.105 479.873 288.156C479.873 285.206 477.482 282.816 474.533 282.816C471.583 282.816 469.192 285.206 469.192 288.156C469.192 291.105 471.583 293.496 474.533 293.496Z" fill="#E6E6E6"/>
<path d="M488.923 281.569C491.872 281.569 494.263 279.178 494.263 276.229C494.263 273.28 491.872 270.889 488.923 270.889C485.974 270.889 483.583 273.28 483.583 276.229C483.583 279.178 485.974 281.569 488.923 281.569Z" fill="#E6E6E6"/>
<path d="M503.313 269.642C506.263 269.642 508.654 267.251 508.654 264.302C508.654 261.353 506.263 258.962 503.313 258.962C500.364 258.962 497.973 261.353 497.973 264.302C497.973 267.251 500.364 269.642 503.313 269.642Z" fill="#E6E6E6"/>
<path d="M418.198 556.214L430.458 556.213L436.29 508.925L418.196 508.926L418.198 556.214Z" fill="#FFB8B8"/>
<path d="M415.071 552.211L439.215 552.21H439.216C441.236 552.21 443.237 552.608 445.104 553.382C446.971 554.155 448.667 555.288 450.096 556.717C451.525 558.146 452.658 559.842 453.431 561.708C454.204 563.575 454.602 565.576 454.602 567.597V568.097L415.072 568.098L415.071 552.211Z" fill="#2F2E41"/>
<path d="M374.198 556.214L386.458 556.213L392.29 508.925L374.196 508.926L374.198 556.214Z" fill="#FFB8B8"/>
<path d="M371.071 552.211L395.215 552.21H395.216C397.236 552.21 399.237 552.608 401.104 553.382C402.971 554.155 404.667 555.288 406.096 556.717C407.525 558.146 408.658 559.842 409.431 561.708C410.204 563.575 410.602 565.576 410.602 567.597V568.097L371.072 568.098L371.071 552.211Z" fill="#2F2E41"/>
<path d="M386.501 541.745H386.499L376.073 541.742C374.907 541.746 373.785 541.295 372.945 540.485C372.106 539.675 371.616 538.57 371.578 537.404L371.25 528.283C368.614 455.343 365.889 379.919 382.767 346.019L382.9 345.752L438.78 343.729L449.998 446.641C450.477 451.03 450.302 455.467 449.478 459.805L434.648 537.953C434.447 539.013 433.873 539.965 433.029 540.636C432.185 541.308 431.128 541.654 430.051 541.611L418.34 541.231C417.727 541.207 417.125 541.058 416.572 540.792C416.019 540.527 415.525 540.151 415.122 539.688C414.719 539.225 414.415 538.685 414.229 538.1C414.043 537.515 413.978 536.899 414.039 536.288L423.238 464.009C423.551 460.889 423.268 457.738 422.403 454.725L410.962 414.73C410.868 414.4 410.662 414.112 410.381 413.914C410.099 413.717 409.758 413.622 409.415 413.647C409.072 413.671 408.747 413.812 408.496 414.047C408.245 414.282 408.082 414.596 408.034 414.937L390.957 537.864C390.804 538.938 390.27 539.922 389.452 540.634C388.633 541.347 387.586 541.741 386.501 541.745Z" fill="#2F2E41"/>
<path d="M393.183 240.842C406.748 240.842 417.745 229.845 417.745 216.281C417.745 202.716 406.748 191.72 393.183 191.72C379.619 191.72 368.622 202.716 368.622 216.281C368.622 229.845 379.619 240.842 393.183 240.842Z" fill="#FFB8B8"/>
<path d="M436.16 351.326H385.337C384.692 351.326 384.053 351.187 383.466 350.918C382.878 350.65 382.356 350.258 381.933 349.769C381.511 349.281 381.198 348.707 381.017 348.087C380.836 347.467 380.791 346.815 380.884 346.176L383.395 328.98L368.651 288.426C367.129 284.239 366.564 279.765 366.996 275.331C367.428 270.898 368.848 266.617 371.15 262.804C373.453 258.99 376.579 255.74 380.302 253.293C384.024 250.845 388.246 249.262 392.66 248.659C398.949 247.782 405.353 248.941 410.935 251.967C416.517 254.993 420.983 259.727 423.681 265.475L426.919 272.365L440.585 346.006C440.706 346.655 440.682 347.323 440.515 347.962C440.348 348.601 440.043 349.196 439.62 349.704C439.198 350.211 438.669 350.62 438.071 350.901C437.473 351.181 436.821 351.326 436.16 351.326Z" fill="#1D5C96"/>
<path d="M328.874 394.462C330.404 394.107 331.837 393.421 333.073 392.451C334.309 391.482 335.317 390.254 336.027 388.853C336.736 387.452 337.13 385.912 337.181 384.343C337.231 382.773 336.937 381.211 336.318 379.768L375.921 290.296L353.266 284.59L321.462 374.332C319.106 375.532 317.271 377.554 316.306 380.016C315.341 382.478 315.313 385.208 316.227 387.689C317.14 390.171 318.932 392.231 321.263 393.479C323.594 394.727 326.302 395.077 328.874 394.462Z" fill="#FFB8B8"/>
<path d="M370.56 306.297L348.526 295.984C347.899 295.69 347.343 295.265 346.895 294.737C346.448 294.209 346.119 293.591 345.931 292.925C345.744 292.259 345.703 291.56 345.81 290.876C345.917 290.192 346.17 289.539 346.552 288.962L359.942 268.739C361.463 265.542 364.189 263.079 367.523 261.888C370.857 260.697 374.527 260.877 377.729 262.387C380.931 263.897 383.404 266.615 384.606 269.945C385.807 273.275 385.64 276.946 384.14 280.153L377.216 303.316C377.018 303.979 376.679 304.591 376.222 305.112C375.766 305.632 375.202 306.048 374.571 306.331C373.939 306.614 373.254 306.757 372.562 306.751C371.869 306.746 371.187 306.591 370.56 306.297Z" fill="#1D5C96"/>
<path d="M494.075 164.224C494.553 165.72 494.698 167.302 494.498 168.86C494.299 170.418 493.76 171.913 492.92 173.24C492.08 174.567 490.96 175.694 489.637 176.541C488.315 177.388 486.823 177.935 485.266 178.143L428.697 257.978L412.195 241.441L472.989 168.166C472.813 165.528 473.611 162.917 475.231 160.827C476.851 158.738 479.182 157.315 481.781 156.829C484.38 156.343 487.067 156.828 489.333 158.191C491.599 159.553 493.286 161.7 494.075 164.224Z" fill="#FFB8B8"/>
<path d="M441.779 248.607C441.86 249.294 441.791 249.991 441.578 250.65C441.365 251.308 441.012 251.913 440.544 252.423L424.195 270.232C422.209 273.165 419.142 275.191 415.665 275.865C412.188 276.539 408.586 275.808 405.648 273.83C402.71 271.852 400.676 268.791 399.992 265.316C399.308 261.841 400.03 258.236 401.999 255.293L412.512 233.435C412.812 232.812 413.243 232.26 413.775 231.818C414.308 231.375 414.929 231.053 415.598 230.873C416.266 230.693 416.965 230.658 417.648 230.773C418.331 230.887 418.981 231.147 419.554 231.535L439.696 245.179C440.269 245.567 440.752 246.074 441.112 246.665C441.471 247.257 441.699 247.919 441.779 248.607Z" fill="#1D5C96"/>
<path d="M425.455 206C425.439 203.777 425.131 201.566 424.536 199.424C420.579 184.802 405.971 176.025 391.311 178.228C388.46 177.41 385.509 176.997 382.543 177C374.998 177 367.701 179.698 361.971 184.607C356.241 189.515 352.455 196.311 351.297 203.767L339.455 280H403.455L413.789 213.475C414.172 211.002 414.263 208.493 414.058 206H425.455Z" fill="#2F2E41"/>
<path d="M717.57 77.6676C719.034 77.5268 720.51 77.7085 721.896 78.2001C723.281 78.6916 724.542 79.4809 725.589 80.5124C726.637 81.5439 727.445 82.7925 727.958 84.1703C728.471 85.5481 728.675 87.0216 728.557 88.4869L761.264 102.882L745.662 112.953L716.995 97.739C714.546 97.377 712.316 96.1294 710.726 94.2326C709.136 92.3359 708.296 89.9218 708.367 87.4477C708.438 84.9736 709.414 82.6115 711.111 80.809C712.807 79.0065 715.105 77.8887 717.57 77.6676Z" fill="#A0616A"/>
<path d="M849.502 59.7107C863.067 59.7107 874.063 48.7143 874.063 35.1497C874.063 21.585 863.067 10.5886 849.502 10.5886C835.937 10.5886 824.941 21.585 824.941 35.1497C824.941 48.7143 835.937 59.7107 849.502 59.7107Z" fill="#A0616A"/>
<path d="M805.05 385.364L792.79 385.363L786.958 338.075L805.052 338.076L805.05 385.364Z" fill="#A0616A"/>
<path d="M808.177 397.248L768.646 397.246V396.746C768.646 394.726 769.044 392.725 769.817 390.858C770.59 388.991 771.724 387.295 773.153 385.866C774.581 384.438 776.278 383.304 778.144 382.531C780.011 381.758 782.012 381.36 784.032 381.36L808.177 381.361V397.248Z" fill="#2F2E41"/>
<path d="M856.05 385.364L843.79 385.363L837.958 338.075L856.052 338.076L856.05 385.364Z" fill="#A0616A"/>
<path d="M859.176 397.248L819.646 397.246V396.746C819.646 394.726 820.044 392.725 820.817 390.858C821.59 388.991 822.724 387.295 824.153 385.866C825.581 384.438 827.278 383.304 829.144 382.531C831.011 381.758 833.012 381.36 835.032 381.36L859.177 381.361L859.176 397.248Z" fill="#2F2E41"/>
<path d="M855.469 375.292C855.285 375.292 855.102 375.28 854.92 375.258L836.974 373.049C835.923 372.921 834.951 372.426 834.229 371.651C833.508 370.876 833.083 369.871 833.03 368.813L827.8 251.05C827.783 250.716 827.654 250.397 827.434 250.145C827.214 249.892 826.916 249.721 826.588 249.657C826.259 249.593 825.919 249.641 825.621 249.793C825.323 249.945 825.084 250.193 824.943 250.496L811.509 295.28L808.742 367.217C808.718 367.837 808.567 368.446 808.296 369.005C808.026 369.563 807.642 370.06 807.171 370.463C806.699 370.867 806.149 371.168 805.555 371.349C804.961 371.529 804.336 371.585 803.719 371.512L788.179 369.683C787.068 369.555 786.044 369.017 785.309 368.174C784.574 367.331 784.181 366.244 784.206 365.126L785.525 297.412L796.054 191.12L796.524 191.138L860.546 193.605L859.97 370.807C859.965 371.998 859.489 373.138 858.646 373.979C857.802 374.82 856.66 375.292 855.469 375.292Z" fill="#2F2E41"/>
<path d="M858.12 203.318C858.081 203.318 858.042 203.318 858.003 203.317L793.524 201.628C792.892 201.611 792.27 201.462 791.7 201.189C791.13 200.916 790.623 200.526 790.214 200.045C789.804 199.563 789.501 199.001 789.323 198.394C789.145 197.787 789.097 197.15 789.183 196.523L801.573 105.332C802.346 99.1747 804.41 93.2497 807.629 87.9439C810.848 82.6381 815.149 78.0708 820.253 74.5401C824.742 71.4497 829.841 69.3557 835.207 68.399C840.572 67.4423 846.08 67.6449 851.361 68.9933C873.867 74.6964 887.369 98.8634 881.458 122.865L862.49 199.895C862.245 200.869 861.683 201.735 860.892 202.355C860.1 202.975 859.125 203.314 858.12 203.318Z" fill="#3F3D56"/>
<path d="M773.53 130.904C769.281 130.909 765.123 129.674 761.566 127.35L723.963 102.68C723.413 102.319 722.948 101.841 722.603 101.281C722.257 100.721 722.038 100.092 721.962 99.4381C721.886 98.7843 721.954 98.1217 722.162 97.4971C722.37 96.8725 722.712 96.3011 723.165 95.8232L728.829 89.8428C729.447 89.1872 730.248 88.7329 731.127 88.539C732.007 88.3451 732.925 88.4207 733.761 88.7558L775.762 105.481L814.671 77.6953C816.49 76.3961 818.56 75.4887 820.748 75.0305C822.936 74.5724 825.196 74.5733 827.383 75.0334C829.571 75.4935 831.64 76.4026 833.458 77.7034C835.276 79.0041 836.805 80.668 837.947 82.59C839.089 84.5119 839.819 86.6499 840.092 88.8688C840.366 91.0877 840.175 93.3391 839.533 95.4806C838.891 97.6221 837.812 99.607 836.363 101.31C834.915 103.013 833.128 104.396 831.117 105.373L783.029 128.73C780.068 130.165 776.82 130.908 773.53 130.904Z" fill="#3F3D56"/>
<path d="M858.012 58.6377C862.203 59.6271 867.258 60.3863 870.252 57.2929C870.783 56.7089 871.257 56.0761 871.668 55.4028L875.583 49.4254C878.583 44.8465 881.634 40.1481 882.904 34.8236C883.633 31.764 883.747 28.5901 883.24 25.486C882.732 22.382 881.613 19.4097 879.947 16.7419C878.281 14.0741 876.101 11.764 873.535 9.94574C870.968 8.12743 868.066 6.83719 864.997 6.14999C859.151 4.84117 853.431 2.58922 847.455 3C841.478 3.41078 834.47 3.27592 829.455 0C829.768 1.46046 831.457 7.91341 831.457 7.91341C831.457 7.91341 823.916 14.832 822.403 16.5572C824.383 15.6795 826.538 15.2674 828.702 15.3526C830.866 15.4378 832.981 16.0179 834.886 17.0484C836.791 18.079 838.434 19.5325 839.689 21.2972C840.944 23.062 841.778 25.091 842.126 27.2284C842.554 29.8543 842.303 32.7664 843.863 34.9216C845.347 36.9714 848.008 37.6896 850.245 38.8731C853.469 40.71 855.931 43.6386 857.186 47.1306C858.442 50.6227 858.408 54.4484 857.092 57.9179L858.012 58.6377Z" fill="#2F2E41"/>
<path d="M828.523 212.115H624.934C622.374 212.112 619.921 211.094 618.111 209.284C616.302 207.475 615.284 205.021 615.281 202.462V98.9122C615.284 96.3529 616.302 93.8993 618.111 92.0897C619.921 90.28 622.374 89.262 624.934 89.2592H828.523C831.082 89.2621 833.536 90.28 835.346 92.0897C837.155 93.8993 838.173 96.3529 838.176 98.9122V202.462C838.173 205.021 837.155 207.475 835.346 209.284C833.536 211.094 831.082 212.112 828.523 212.115Z" fill="#CCCCCC"/>
<path d="M826.183 205.094H627.274C625.955 205.093 624.691 204.569 623.759 203.636C622.827 202.704 622.302 201.44 622.301 200.122V101.252C622.302 99.9338 622.827 98.6698 623.759 97.7375C624.691 96.8053 625.955 96.2809 627.274 96.2794H826.183C827.501 96.2809 828.765 96.8053 829.698 97.7375C830.63 98.6698 831.154 99.9338 831.156 101.252V200.122C831.154 201.44 830.63 202.704 829.698 203.636C828.765 204.569 827.501 205.093 826.183 205.094Z" fill="white"/>
<path d="M814.664 230.057L792.293 207.687L820.973 208.412V227.443C820.981 228.176 820.767 228.894 820.36 229.503C819.953 230.113 819.371 230.585 818.692 230.858C818.236 231.049 817.747 231.148 817.254 231.149C816.771 231.147 816.294 231.05 815.849 230.862C815.405 230.675 815.002 230.401 814.664 230.057Z" fill="#CCCCCC"/>
<path d="M801.965 146.253H701.34C700.099 146.253 698.908 145.76 698.03 144.882C697.153 144.005 696.66 142.814 696.66 141.573C696.66 140.332 697.153 139.141 698.03 138.264C698.908 137.386 700.099 136.893 701.34 136.893H801.965C803.206 136.893 804.396 137.386 805.274 138.264C806.152 139.141 806.645 140.332 806.645 141.573C806.645 142.814 806.152 144.005 805.274 144.882C804.396 145.76 803.206 146.253 801.965 146.253Z" fill="#CCCCCC"/>
<path d="M769.203 126.362H701.34C700.725 126.363 700.115 126.243 699.547 126.008C698.978 125.773 698.461 125.429 698.026 124.994C697.591 124.559 697.245 124.043 697.01 123.475C696.774 122.906 696.653 122.297 696.653 121.682C696.653 121.067 696.774 120.458 697.01 119.89C697.245 119.321 697.591 118.805 698.026 118.37C698.461 117.936 698.978 117.591 699.547 117.356C700.115 117.121 700.725 117.001 701.34 117.002H769.203C770.444 117.002 771.635 117.495 772.512 118.373C773.39 119.25 773.883 120.441 773.883 121.682C773.883 122.923 773.39 124.114 772.512 124.992C771.635 125.869 770.444 126.362 769.203 126.362Z" fill="#CCCCCC"/>
<path d="M659.686 146.253C667.763 146.253 674.311 139.705 674.311 131.628C674.311 123.55 667.763 117.002 659.686 117.002C651.608 117.002 645.06 123.55 645.06 131.628C645.06 139.705 651.608 146.253 659.686 146.253Z" fill="#1D5C96"/>
<path d="M770.955 184.372C773.54 184.372 775.635 182.277 775.635 179.692C775.635 177.107 773.54 175.012 770.955 175.012C768.37 175.012 766.275 177.107 766.275 179.692C766.275 182.277 768.37 184.372 770.955 184.372Z" fill="#E6E6E6"/>
<path d="M787.336 184.372C789.921 184.372 792.016 182.277 792.016 179.692C792.016 177.107 789.921 175.012 787.336 175.012C784.751 175.012 782.656 177.107 782.656 179.692C782.656 182.277 784.751 184.372 787.336 184.372Z" fill="#E6E6E6"/>
<path d="M803.716 184.372C806.301 184.372 808.397 182.277 808.397 179.692C808.397 177.107 806.301 175.012 803.716 175.012C801.132 175.012 799.036 177.107 799.036 179.692C799.036 182.277 801.132 184.372 803.716 184.372Z" fill="#E6E6E6"/>
<path d="M825.371 199.8C825.532 198.339 826.012 196.931 826.777 195.676C827.541 194.42 828.572 193.347 829.796 192.533C831.02 191.719 832.408 191.183 833.861 190.963C835.315 190.743 836.799 190.845 838.209 191.261L858.992 162.191L865.658 179.524L844.899 204.471C844.044 206.794 842.366 208.722 840.184 209.89C838.002 211.058 835.468 211.386 833.06 210.81C830.653 210.234 828.541 208.795 827.123 206.766C825.706 204.737 825.083 202.259 825.371 199.8Z" fill="#A0616A"/>
<path d="M849.178 198.232C848.851 198.259 848.522 198.251 848.197 198.207C847.544 198.12 846.919 197.89 846.365 197.534C845.811 197.178 845.342 196.705 844.992 196.147L840.6 189.179C840.117 188.418 839.874 187.529 839.904 186.629C839.934 185.728 840.235 184.858 840.768 184.131L867.37 147.577L850.079 103.001C848.535 99.0793 848.593 94.7074 850.242 90.8279C851.89 86.9485 854.997 83.8721 858.893 82.2619C861.094 81.3387 863.472 80.9148 865.857 81.0206C868.241 81.1265 870.573 81.7594 872.683 82.874C874.794 83.9885 876.632 85.5569 878.064 87.4665C879.496 89.376 880.487 91.5792 880.966 93.9176L891.694 146.291C892.44 149.984 892.22 153.808 891.055 157.392C889.89 160.975 887.819 164.197 885.043 166.745L851.833 197.071C851.101 197.741 850.167 198.149 849.178 198.232Z" fill="#3F3D56"/>
<path d="M213.618 150.776H10.028C7.4688 150.773 5.0152 149.755 3.2055 147.946C1.3958 146.136 0.3779 143.682 0.375 141.123V37.5735C0.3779 35.0142 1.3958 32.5606 3.2055 30.7509C5.0152 28.9413 7.4688 27.9233 10.028 27.9205H213.618C216.177 27.9234 218.63 28.9413 220.44 30.751C222.25 32.5606 223.268 35.0142 223.271 37.5735V141.123C223.268 143.683 222.25 146.136 220.44 147.946C218.63 149.755 216.177 150.773 213.618 150.776Z" fill="#CCCCCC"/>
<path d="M211.277 143.756H12.3682C11.0498 143.754 9.78591 143.23 8.85361 142.298C7.92141 141.366 7.39701 140.102 7.39551 138.783V39.9136C7.39701 38.5952 7.92141 37.3312 8.85361 36.399C9.78591 35.4667 11.0498 34.9423 12.3682 34.9409H211.277C212.596 34.9423 213.86 35.4667 214.792 36.399C215.724 37.3312 216.249 38.5952 216.25 39.9136V138.783C216.249 140.102 215.724 141.366 214.792 142.298C213.86 143.23 212.596 143.754 211.277 143.756Z" fill="white"/>
<path d="M199.758 168.718L177.388 146.348L206.068 147.073V166.105C206.075 166.837 205.862 167.555 205.455 168.165C205.048 168.774 204.466 169.246 203.786 169.519C203.331 169.71 202.842 169.809 202.348 169.81C201.866 169.809 201.388 169.711 200.944 169.524C200.499 169.336 200.096 169.063 199.758 168.718Z" fill="#CCCCCC"/>
<path d="M187.059 84.9146H86.4339C85.1929 84.9146 84.0029 84.4216 83.1249 83.5438C82.2469 82.6661 81.7539 81.4757 81.7539 80.2344C81.7539 78.9931 82.2469 77.8027 83.1249 76.925C84.0029 76.0473 85.1929 75.5542 86.4339 75.5542H187.059C188.3 75.5542 189.491 76.0473 190.368 76.925C191.246 77.8027 191.739 78.9931 191.739 80.2344C191.739 81.4757 191.246 82.6661 190.368 83.5438C189.491 84.4216 188.3 84.9146 187.059 84.9146Z" fill="#CCCCCC"/>
<path d="M154.298 65.0237H86.4339C85.1929 65.0237 84.0029 64.5306 83.1249 63.6529C82.2469 62.7752 81.7539 61.5848 81.7539 60.3435C81.7539 59.1022 82.2469 57.9118 83.1249 57.0341C84.0029 56.1564 85.1929 55.6633 86.4339 55.6633H154.298C155.539 55.6633 156.729 56.1564 157.607 57.0341C158.485 57.9118 158.978 59.1022 158.978 60.3435C158.978 61.5848 158.485 62.7752 157.607 63.6529C156.729 64.5306 155.539 65.0237 154.298 65.0237Z" fill="#CCCCCC"/>
<path d="M44.78 84.9147C52.8575 84.9147 59.4059 78.3665 59.4059 70.289C59.4059 62.2114 52.8575 55.6633 44.78 55.6633C36.7025 55.6633 30.1543 62.2114 30.1543 70.289C30.1543 78.3665 36.7025 84.9147 44.78 84.9147Z" fill="#1D5C96"/>
<path d="M156.049 123.033C158.634 123.033 160.73 120.938 160.73 118.353C160.73 115.768 158.634 113.673 156.049 113.673C153.465 113.673 151.369 115.768 151.369 118.353C151.369 120.938 153.465 123.033 156.049 123.033Z" fill="#E6E6E6"/>
<path d="M172.43 123.033C175.015 123.033 177.11 120.938 177.11 118.353C177.11 115.768 175.015 113.673 172.43 113.673C169.845 113.673 167.75 115.768 167.75 118.353C167.75 120.938 169.845 123.033 172.43 123.033Z" fill="#E6E6E6"/>
<path d="M188.811 123.033C191.396 123.033 193.491 120.938 193.491 118.353C193.491 115.768 191.396 113.673 188.811 113.673C186.226 113.673 184.131 115.768 184.131 118.353C184.131 120.938 186.226 123.033 188.811 123.033Z" fill="#E6E6E6"/>
<path d="M205.174 17.9714C203.791 18.4693 202.534 19.2645 201.491 20.3009C200.449 21.3373 199.646 22.5896 199.14 23.9698C198.634 25.35 198.436 26.8244 198.561 28.2891C198.686 29.7539 199.131 31.1734 199.864 32.4476L176.444 59.4377L194.853 61.8765L214.271 35.8723C216.33 34.4988 217.814 32.4177 218.441 30.0234C219.068 27.6292 218.795 25.088 217.674 22.8815C216.552 20.675 214.661 18.9564 212.357 18.0515C210.053 17.1465 207.498 17.118 205.174 17.9714Z" fill="#FFB8B8"/>
<path d="M48.798 28.7771C49.2975 30.1597 49.4878 31.635 49.3555 33.0991C49.2232 34.5632 48.7715 35.9805 48.0322 37.2512C47.2929 38.5219 46.2839 39.615 45.0765 40.4535C43.869 41.2921 42.4924 41.8557 41.0435 42.1046L35.2154 77.361L21.5879 64.7465L29.2116 33.2004C28.9547 30.7387 29.6097 28.2683 31.0525 26.2572C32.4954 24.2462 34.6258 22.8343 37.0401 22.2891C39.4543 21.7438 41.9847 22.1031 44.1518 23.2989C46.3188 24.4947 47.972 26.4439 48.798 28.7771Z" fill="#FFB8B8"/>
<path d="M85.399 385.364L97.659 385.363L103.491 338.075L85.397 338.076L85.399 385.364Z" fill="#FFB8B8"/>
<path d="M82.272 381.361L106.415 381.36H106.416C108.437 381.36 110.438 381.758 112.305 382.531C114.171 383.304 115.868 384.438 117.296 385.866C118.725 387.295 119.858 388.991 120.632 390.858C121.405 392.725 121.803 394.726 121.803 396.746V397.246L82.272 397.248V381.361Z" fill="#2F2E41"/>
<path d="M22.399 385.364L34.659 385.363L40.491 338.075L22.397 338.076L22.399 385.364Z" fill="#FFB8B8"/>
<path d="M19.2715 381.361L43.4153 381.36C45.4359 381.36 47.4377 381.758 49.3045 382.531C51.1712 383.304 52.8675 384.438 54.2962 385.866C55.725 387.295 56.8584 388.991 57.6319 390.858C58.4049 392.725 58.8029 394.726 58.8029 396.746V397.246L19.2723 397.248L19.2715 381.361Z" fill="#2F2E41"/>
<path d="M82.8398 62.5081C96.4038 62.5081 107.401 51.5118 107.401 37.9471C107.401 24.3824 96.4038 13.386 82.8398 13.386C69.2748 13.386 58.2788 24.3824 58.2788 37.9471C58.2788 51.5118 69.2748 62.5081 82.8398 62.5081Z" fill="#FFB8B8"/>
<path d="M79.8961 369.655L77.8651 240.248C77.8601 239.882 77.7211 239.531 77.4751 239.26C77.2291 238.99 76.8921 238.818 76.5281 238.779C76.1651 238.739 75.7991 238.833 75.5001 239.044C75.2011 239.255 74.9901 239.568 74.9061 239.924L41.6147 366.5C41.3642 367.513 40.7736 368.409 39.9415 369.039C39.1095 369.669 38.0866 369.993 37.0437 369.959L18.7537 369.177C18.1319 369.15 17.5224 368.995 16.9638 368.721C16.4051 368.446 15.9094 368.059 15.5079 367.584C15.1064 367.108 14.808 366.554 14.6313 365.958C14.4547 365.361 14.4038 364.734 14.4817 364.116L42.7305 201.458L42.7884 200.999L121.47 204.722L121.984 204.745L105.111 369.925C105.023 371.056 104.512 372.112 103.681 372.884C102.849 373.656 101.758 374.087 100.624 374.091H84.3951C83.2141 374.086 82.0821 373.619 81.2411 372.79C80.4001 371.961 79.9171 370.835 79.8961 369.655Z" fill="#2F2E41"/>
<path d="M142.04 215.684L27.8628 206.314C27.1736 206.257 26.5067 206.043 25.9139 205.687C25.3211 205.331 24.8184 204.843 24.4446 204.261C24.0709 203.679 23.8364 203.019 23.7591 202.332C23.6819 201.645 23.764 200.949 23.9992 200.299L41.9799 150.587L43.0146 91.5842C43.0521 89.4424 43.5146 87.3293 44.3751 85.3675C45.2357 83.4058 46.4772 81.6344 48.0276 80.1562C49.578 78.678 51.4066 77.5223 53.4071 76.7562C55.4077 75.9902 57.5401 75.629 59.6821 75.6936L67.2751 68.8108H95.0941L97.5161 71.9866L116.874 74.9612C120.322 75.5054 123.503 77.144 125.948 79.6348C128.394 82.1257 129.973 85.3369 130.454 88.7942L146.868 210.599C146.954 211.234 146.902 211.881 146.718 212.495C146.533 213.109 146.219 213.676 145.798 214.159C145.376 214.642 144.856 215.029 144.272 215.295C143.689 215.561 143.055 215.699 142.414 215.699C142.29 215.699 142.165 215.695 142.04 215.684Z" fill="#2F2E41"/>
<path d="M119.794 80.681L168.478 66.4173L190.51 37.4095C191.117 36.6105 191.973 36.0372 192.943 35.7806C193.913 35.5241 194.94 35.599 195.863 35.9935L209.619 41.8734C210.206 42.124 210.732 42.4965 211.164 42.9661C211.595 43.4357 211.922 43.9917 212.123 44.5972C212.323 45.2027 212.392 45.8439 212.326 46.4783C212.26 47.1126 212.059 47.7257 211.738 48.2767L195.273 76.5326C192.592 81.1546 188.51 84.8047 183.619 86.9554L126.358 112.268L119.794 80.681Z" fill="#2F2E41"/>
<path d="M26.3929 102.018C23.4836 99.9219 21.1635 97.1115 19.6564 93.8579C18.1494 90.6043 17.5063 87.0172 17.7892 83.4426L19.9256 55.135C20.0137 54.0044 20.5244 52.9484 21.356 52.1773C22.1876 51.4062 23.2791 50.9765 24.4132 50.9739H24.453L40.5848 51.1174C41.2457 51.1235 41.8971 51.275 42.4928 51.5612C43.0885 51.8474 43.6139 52.2612 44.0316 52.7734C44.4493 53.2855 44.7491 53.8834 44.9097 54.5244C45.0703 55.1655 45.0878 55.8341 44.9608 56.4827L41.9677 71.7542L63.328 80.7795L45.3407 115.773L26.3929 102.018Z" fill="#2F2E41"/>
<path d="M97.1281 8.4961C97.1281 8.4961 71.4431 -5.33411 57.4431 10.9885C43.4429 27.3111 62.7771 52.8361 62.7771 52.8361L90.3251 56.3105C90.3251 56.3105 91.3251 37.584 97.8841 37.9475C104.443 38.3111 124.813 14.6811 97.1281 8.4961Z" fill="#2F2E41"/>
</svg>
