<svg width="815" height="561" viewBox="0 0 815 561" fill="none" xmlns="http://www.w3.org/2000/svg">
<path d="M696.062 440.12C695.86 439.864 695.66 439.608 695.461 439.351C695.263 439.095 695.065 438.837 694.868 438.579C694.672 438.321 694.476 438.063 694.281 437.803C694.086 437.544 693.892 437.283 693.698 437.02C693.375 429.499 693.37 422.044 693.685 414.655C693.992 407.319 694.613 400.071 695.547 392.911C696.47 385.805 697.693 378.809 699.216 371.922C700.727 365.088 702.528 358.383 704.618 351.807C704.857 351.049 705.099 350.294 705.346 349.541C705.593 348.789 705.844 348.042 706.1 347.3C706.355 346.554 706.615 345.811 706.878 345.072C707.142 344.333 707.409 343.596 707.681 342.863C709.694 337.371 711.911 332.015 714.33 326.793C716.732 321.607 719.326 316.564 722.113 311.665C724.879 306.801 727.827 302.086 730.958 297.521C734.067 292.99 737.349 288.618 740.804 284.404L741.349 283.742L741.895 283.085L742.443 282.431L742.993 281.781L743.389 281.314L743.789 280.849C743.923 280.694 744.058 280.54 744.193 280.387C744.328 280.234 744.465 280.082 744.605 279.932L744.933 279.753L745.259 279.575L745.584 279.397L745.907 279.22L745.927 279.213L745.948 279.204L745.968 279.194L745.989 279.186L746.12 279.115L746.248 279.043L746.375 278.971L746.498 278.898L747.062 278.596L747.625 278.298L748.187 278L748.744 277.7L748.319 277.487L747.25 276.955L747.257 276.951C747.349 276.99 747.44 277.032 747.531 277.075C747.621 277.119 747.711 277.161 747.803 277.201C747.895 277.244 747.985 277.287 748.074 277.329C748.164 277.372 748.254 277.415 748.345 277.46L748.448 277.504L748.553 277.549L748.658 277.594C748.694 277.608 748.728 277.625 748.761 277.644C748.79 277.66 748.821 277.673 748.853 277.684L748.945 277.723L749.037 277.762L749.129 277.802C753.023 279.586 756.927 281.398 760.78 283.298C764.634 285.198 768.428 287.178 772.12 289.308C775.801 291.423 779.369 293.73 782.808 296.219C786.238 298.695 789.484 301.417 792.522 304.362C795.726 307.494 798.593 310.953 801.074 314.685C803.527 318.35 805.545 322.29 807.086 326.423C808.568 330.358 809.451 334.492 809.706 338.689C809.952 342.726 809.384 346.771 808.036 350.584C807.854 351.081 807.658 351.571 807.447 352.054C807.236 352.538 807.011 353.014 806.773 353.482C806.534 353.951 806.281 354.411 806.014 354.863C805.747 355.315 805.467 355.759 805.173 356.195C805.051 356.377 804.926 356.557 804.798 356.735C804.67 356.913 804.541 357.09 804.411 357.265C804.279 357.44 804.146 357.615 804.012 357.789C803.877 357.963 803.741 358.135 803.604 358.306C801.054 361.512 797.813 364.1 794.123 365.879C790.413 367.652 786.38 368.652 782.272 368.818C777.954 368.998 773.641 368.372 769.552 366.972C765.167 365.475 761.092 363.189 757.529 360.227C756.298 359.209 755.13 358.116 754.034 356.954C752.948 355.802 751.935 354.584 751 353.306C750.073 352.04 749.227 350.716 748.467 349.343C747.712 347.98 747.047 346.57 746.476 345.121C746.207 349.622 746.905 354.128 748.524 358.336C750.232 362.76 752.554 366.921 755.421 370.698C758.45 374.72 761.81 378.48 765.467 381.94C769.148 385.471 773.06 388.78 776.922 391.827C780.784 394.875 784.783 397.992 788.655 401.243C792.523 404.438 796.205 407.853 799.683 411.469C803.056 414.962 806.04 418.812 808.582 422.95C811.079 427.035 812.884 431.504 813.924 436.177C815.038 441.267 814.981 446.544 813.759 451.609C813.165 454.074 812.319 456.47 811.234 458.761C810.14 461.071 808.83 463.272 807.32 465.334L807.178 465.522L807.037 465.71L806.893 465.897L806.746 466.084C803.062 470.899 798.437 474.915 793.152 477.887C790.492 479.382 787.688 480.606 784.783 481.541C781.809 482.499 778.748 483.157 775.643 483.508C769.737 484.053 763.783 483.712 757.978 482.497C752 481.245 746.189 479.301 740.662 476.703C734.947 474.028 729.484 470.845 724.339 467.192C719.149 463.519 714.235 459.47 709.637 455.078C708.416 453.914 707.216 452.728 706.038 451.521C704.861 450.314 703.706 449.087 702.573 447.84C701.439 446.592 700.33 445.325 699.246 444.039C698.162 442.753 697.101 441.446 696.062 440.12Z" fill="#F2F2F2"/>
<path d="M791.013 352.974C787.363 351.08 783.853 348.926 780.511 346.53C773.835 341.744 767.871 336.037 762.797 329.578C760.281 326.373 758.002 322.989 755.978 319.453C754.29 316.465 752.791 313.374 751.491 310.198C750.221 307.1 749.154 303.922 748.295 300.685C747.457 297.524 746.832 294.31 746.425 291.065C746.026 287.886 745.851 284.683 745.901 281.48C745.905 281.299 745.91 281.12 745.913 280.942C745.917 280.763 745.921 280.584 745.926 280.403C745.931 280.223 745.937 280.044 745.947 279.868L745.973 279.336C745.82 279.457 745.667 279.579 745.514 279.702L745.058 280.074L744.603 280.448L744.15 280.823L743.859 281.064L743.567 281.307L743.277 281.552L742.989 281.797L743.385 281.331L743.792 280.85C743.926 280.695 744.061 280.541 744.196 280.388C744.331 280.235 744.468 280.083 744.607 279.934L744.935 279.754L745.262 279.576L745.58 279.399L745.903 279.221L745.924 279.215L745.944 279.205L745.965 279.195L745.985 279.188L746.116 279.116L746.245 279.045L746.372 278.973L746.495 278.9L747.06 278.598L747.622 278.3L748.184 278.002L748.746 277.704L748.307 277.486L747.238 276.953L747.245 276.949C747.337 276.988 747.428 277.03 747.518 277.073C747.608 277.117 747.699 277.159 747.791 277.199C747.883 277.242 747.973 277.285 748.062 277.327C748.151 277.37 748.242 277.413 748.333 277.458L748.436 277.502L748.54 277.547L748.646 277.592C748.681 277.606 748.715 277.623 748.748 277.642L748.738 277.812L748.726 277.971L748.717 278.129L748.708 278.29C748.314 283.685 748.595 289.109 749.545 294.435C750.522 299.917 752.125 305.269 754.324 310.385C756.596 315.681 759.435 320.715 762.794 325.398C766.263 330.242 770.239 334.703 774.653 338.705C779.095 342.678 783.942 346.176 789.112 349.14C791.666 350.603 794.296 351.93 796.99 353.115C799.662 354.288 802.395 355.315 805.178 356.192C805.055 356.373 804.93 356.553 804.803 356.732C804.675 356.91 804.546 357.087 804.415 357.262C804.284 357.437 804.151 357.612 804.016 357.785C803.882 357.959 803.746 358.132 803.608 358.303C802.535 357.947 801.467 357.569 800.405 357.168C799.344 356.767 798.287 356.344 797.236 355.9C796.185 355.455 795.141 354.988 794.104 354.499C793.067 354.011 792.037 353.502 791.013 352.974Z" fill="white"/>
<path d="M718.763 393.299C717.568 391.515 716.44 389.697 715.379 387.847C714.318 385.997 713.326 384.12 712.404 382.218C711.482 380.315 710.631 378.389 709.85 376.438C709.069 374.488 708.361 372.52 707.727 370.536C707.404 369.483 707.105 368.427 706.831 367.367C706.558 366.307 706.31 365.245 706.088 364.181C705.866 363.118 705.669 362.052 705.497 360.984C705.325 359.916 705.179 358.848 705.061 357.782C705.001 357.285 704.947 356.787 704.899 356.288C704.851 355.789 704.808 355.291 704.771 354.793C704.734 354.294 704.703 353.796 704.677 353.299C704.651 352.801 704.63 352.304 704.614 351.808C704.853 351.05 705.095 350.295 705.342 349.543C705.589 348.791 705.839 348.042 706.094 347.296C706.349 346.55 706.608 345.807 706.872 345.068C707.136 344.329 707.404 343.593 707.677 342.859C707.617 343.473 707.566 344.09 707.524 344.707C707.482 345.325 707.449 345.945 707.424 346.566C707.399 347.188 707.383 347.811 707.375 348.436C707.368 349.061 707.369 349.686 707.379 350.313C707.378 350.655 707.381 350.997 707.388 351.338C707.395 351.68 707.404 352.022 707.415 352.363C707.427 352.705 707.442 353.047 707.46 353.389C707.478 353.73 707.498 354.072 707.521 354.414C707.784 358.248 708.385 362.052 709.319 365.78C710.264 369.554 711.497 373.249 713.007 376.835C714.546 380.489 716.32 384.039 718.319 387.463C720.352 390.947 722.575 394.316 724.978 397.556C727.565 401.053 730.298 404.459 733.18 407.772C736.061 411.085 739.052 414.308 742.152 417.44C745.255 420.568 748.448 423.6 751.733 426.536C755.018 429.471 758.358 432.305 761.753 435.037C765.229 437.843 768.775 440.542 772.392 443.134C776.009 445.726 779.685 448.205 783.419 450.57C787.153 452.934 790.942 455.183 794.788 457.317C798.633 459.451 802.522 461.463 806.454 463.353C806.635 463.441 806.798 463.561 806.935 463.708C807.07 463.852 807.179 464.017 807.257 464.198C807.335 464.376 807.381 464.566 807.393 464.76C807.405 464.956 807.379 465.152 807.317 465.337C807.297 465.417 807.269 465.495 807.233 465.57C807.198 465.642 807.156 465.711 807.107 465.775C807.059 465.838 807.004 465.896 806.944 465.949C806.883 466 806.817 466.045 806.747 466.082C806.674 466.116 806.596 466.14 806.517 466.154C806.437 466.168 806.355 466.173 806.274 466.167C806.191 466.162 806.11 466.146 806.03 466.122C805.948 466.097 805.869 466.063 805.795 466.021C805.309 465.788 804.823 465.554 804.338 465.319C803.852 465.084 803.368 464.848 802.884 464.61C802.4 464.372 801.917 464.132 801.435 463.889C800.953 463.647 800.471 463.401 799.989 463.152C795.981 461.093 792.027 458.911 788.125 456.605C784.224 454.3 780.382 451.874 776.598 449.327C772.815 446.782 769.101 444.122 765.455 441.348C761.809 438.573 758.24 435.689 754.748 432.694C751.375 429.81 748.045 426.829 744.795 423.747C741.544 420.665 738.375 417.484 735.325 414.202C732.274 410.919 729.345 407.537 726.57 404.052C723.795 400.568 721.182 396.985 718.763 393.299Z" fill="white"/>
<path d="M794.269 106.884L791.398 107.257L810.648 35.008C812.066 30.1836 812.297 25.0878 811.321 20.155C810.474 16.1244 808.379 12.4629 805.334 9.68996C802.144 6.91744 798.235 5.10334 794.059 4.45697C788.972 3.6692 783.779 3.9017 778.783 5.14096L647.955 34.935C643.388 36.0428 639.018 37.8409 634.994 40.267C630.617 42.8694 626.547 45.9555 622.86 49.467C619.066 53.0477 615.661 57.0187 612.701 61.314C609.809 65.4714 607.452 69.9761 605.685 74.722L468.8 451.221C466.524 457.412 465.046 463.867 464.4 470.431C463.801 476.258 464.084 482.143 465.239 487.886C466.203 492.876 468.217 497.604 471.147 501.757C473.834 505.533 477.62 508.389 481.989 509.935L620.217 557.521C626.357 559.612 632.949 560.004 639.294 558.657C646.077 557.179 652.456 554.242 657.989 550.048C664.201 545.38 669.543 539.655 673.771 533.135C678.453 525.971 681.951 518.101 684.132 509.825L776.804 162.017L779.712 161.784L794.269 106.884Z" fill="#2F2E41"/>
<path d="M784.269 102.884L781.398 103.257L800.648 31.008C802.066 26.1836 802.297 21.0878 801.321 16.155C800.474 12.1244 798.379 8.46286 795.334 5.68996C792.144 2.91744 788.235 1.10334 784.059 0.456969C778.972 -0.330803 773.779 -0.098296 768.783 1.14096L637.955 30.935C633.388 32.0428 629.018 33.8409 624.994 36.267C620.617 38.8694 616.547 41.9555 612.86 45.467C609.066 49.0477 605.661 53.0187 602.701 57.314C599.809 61.4714 597.452 65.9761 595.685 70.722L458.8 447.221C456.524 453.412 455.046 459.867 454.4 466.431C453.801 472.258 454.084 478.143 455.239 483.886C456.203 488.876 458.217 493.604 461.147 497.757C463.834 501.533 467.62 504.389 471.989 505.935L610.217 553.521C616.357 555.612 622.949 556.004 629.294 554.657C636.077 553.179 642.456 550.242 647.989 546.048C654.201 541.38 659.543 535.655 663.771 529.135C668.453 521.971 671.951 514.101 674.132 505.825L766.804 158.017L769.712 157.784L784.269 102.884Z" fill="#3F3D56"/>
<path d="M767.626 10.568L748.395 14.781C748.605 16.4448 748.439 18.1346 747.91 19.726C747.311 21.5873 746.442 23.3507 745.331 24.96C742.83 28.6132 739.493 31.6162 735.597 33.719C735.13 33.967 734.665 34.196 734.202 34.406C733.739 34.616 733.275 34.8066 732.812 34.978C732.351 35.1493 731.892 35.3006 731.437 35.432C730.982 35.5633 730.531 35.674 730.087 35.764L654.897 50.989C653.502 51.3131 652.049 51.2966 650.662 50.941C649.545 50.6412 648.559 49.9775 647.862 49.055C647.159 48.0644 646.762 46.8891 646.72 45.675C646.662 44.1262 646.907 42.581 647.441 41.126C647.574 40.7333 647.726 40.338 647.897 39.94C648.068 39.542 648.254 39.144 648.455 38.746C648.655 38.346 648.873 37.948 649.11 37.552C649.346 37.156 649.596 36.7603 649.859 36.365L635.622 39.484C632.193 40.2881 628.909 41.6171 625.886 43.424C622.582 45.3699 619.511 47.6847 616.73 50.324C613.863 53.0204 611.292 56.0146 609.06 59.256C606.883 62.3881 605.114 65.7844 603.795 69.363L467.167 449.134C465.468 453.801 464.377 458.667 463.921 463.612C463.499 467.977 463.748 472.382 464.658 476.672C465.415 480.38 466.963 483.881 469.195 486.938C471.241 489.711 474.093 491.783 477.362 492.873L616.607 538.111C621.201 539.584 626.105 539.804 630.813 538.748C635.826 537.6 640.535 535.391 644.623 532.269C649.195 528.807 653.13 524.578 656.255 519.769C659.712 514.487 662.307 508.689 663.942 502.591L791.168 33.109C792.235 29.5252 792.433 25.7385 791.745 22.063C791.147 19.0509 789.624 16.3006 787.388 14.196C785.044 12.0917 782.151 10.6972 779.045 10.175C775.251 9.53783 771.367 9.6715 767.626 10.568Z" fill="white"/>
<path d="M692.951 190.432H415.955V96.5665H692.951V190.432Z" fill="white"/>
<path d="M611.969 223.561H340.495V355.157H611.969V223.561Z" fill="white"/>
<path d="M384.597 286.754C395.442 286.754 404.234 277.962 404.234 267.117C404.234 256.272 395.442 247.48 384.597 247.48C373.752 247.48 364.96 256.272 364.96 267.117C364.96 277.962 373.752 286.754 384.597 286.754Z" fill="#1D5C96"/>
<path d="M429.949 254.026C429.081 254.026 428.248 254.371 427.635 254.984C427.021 255.598 426.676 256.43 426.676 257.298C426.676 258.166 427.021 258.999 427.635 259.613C428.248 260.226 429.081 260.571 429.949 260.571H584.238C585.104 260.569 585.935 260.223 586.547 259.61C587.159 258.996 587.502 258.165 587.502 257.298C587.502 256.432 587.159 255.601 586.547 254.987C585.935 254.374 585.104 254.028 584.238 254.026H429.949Z" fill="#E6E6E6"/>
<path d="M429.949 273.662C429.519 273.661 429.092 273.744 428.694 273.908C428.296 274.071 427.935 274.311 427.63 274.615C427.325 274.918 427.083 275.278 426.917 275.675C426.751 276.072 426.666 276.498 426.665 276.928C426.664 277.358 426.748 277.785 426.912 278.182C427.076 278.58 427.316 278.941 427.62 279.246C427.924 279.551 428.284 279.792 428.682 279.957C429.079 280.123 429.505 280.208 429.935 280.208H496.34C496.769 280.208 497.195 280.123 497.592 279.959C497.989 279.794 498.35 279.553 498.654 279.249C498.958 278.946 499.199 278.585 499.363 278.188C499.528 277.791 499.612 277.365 499.612 276.935C499.612 276.505 499.528 276.08 499.363 275.683C499.199 275.286 498.958 274.925 498.654 274.621C498.35 274.317 497.989 274.076 497.592 273.912C497.195 273.747 496.769 273.662 496.34 273.662H429.949Z" fill="#E6E6E6"/>
<path d="M369.535 305.056C367.046 305.056 365.02 306.524 365.02 308.329C365.02 310.133 367.046 311.602 369.535 311.602H582.406C584.896 311.602 586.922 310.133 586.922 308.329C586.922 306.524 584.896 305.056 582.406 305.056H369.535Z" fill="#E6E6E6"/>
<path d="M369.535 324.693C367.046 324.693 365.02 326.161 365.02 327.965C365.02 329.77 367.046 331.238 369.535 331.238H533.406C535.896 331.238 537.922 329.77 537.922 327.965C537.922 326.161 535.896 324.693 533.406 324.693H369.535Z" fill="#E6E6E6"/>
<path d="M614.73 357.918H337.734V220.8H614.73V357.918ZM343.256 352.396H609.208V226.322H343.256V352.396Z" fill="#E6E6E6"/>
<path d="M462.819 162.52C473.664 162.52 482.455 153.728 482.455 142.883C482.455 132.038 473.664 123.246 462.819 123.246C451.974 123.246 443.182 132.038 443.182 142.883C443.182 153.728 451.974 162.52 462.819 162.52Z" fill="#1D5C96"/>
<path d="M508.17 129.792C507.302 129.792 506.47 130.137 505.856 130.75C505.242 131.364 504.897 132.197 504.897 133.065C504.897 133.933 505.242 134.765 505.856 135.379C506.47 135.993 507.302 136.337 508.17 136.337H662.459C663.326 136.335 664.156 135.989 664.768 135.376C665.38 134.762 665.724 133.931 665.724 133.065C665.724 132.198 665.38 131.367 664.768 130.753C664.156 130.14 663.326 129.794 662.459 129.792H508.17Z" fill="#E6E6E6"/>
<path d="M508.17 149.428C507.74 149.427 507.314 149.51 506.916 149.674C506.518 149.837 506.156 150.077 505.851 150.381C505.546 150.684 505.304 151.044 505.138 151.441C504.973 151.838 504.887 152.264 504.886 152.694C504.885 153.124 504.969 153.551 505.133 153.948C505.297 154.346 505.538 154.707 505.841 155.012C506.145 155.317 506.506 155.558 506.903 155.723C507.3 155.889 507.726 155.974 508.156 155.974H629.561C630.429 155.974 631.262 155.629 631.875 155.015C632.489 154.402 632.834 153.569 632.834 152.701C632.834 151.833 632.489 151.001 631.875 150.387C631.262 149.773 630.429 149.428 629.561 149.428H508.17Z" fill="#E6E6E6"/>
<path d="M692.951 190.432H415.955V96.5665H692.951V190.432ZM421.477 184.911H687.43V102.088H421.477V184.911Z" fill="#E6E6E6"/>
<path d="M148.685 547.988H162.648L169.291 494.129L148.682 494.13L148.685 547.988Z" fill="#FFB6B6"/>
<path d="M189.578 560.952L145.693 560.954V543.999L174.69 543.998C178.638 543.997 182.425 545.566 185.217 548.357C188.009 551.149 189.577 554.936 189.578 558.884V560.952Z" fill="#2F2E41"/>
<path d="M9.06006 529.892L21.2961 536.619L53.0661 492.624L35.0071 482.696L9.06006 529.892Z" fill="#FFB6B6"/>
<path d="M38.6469 560.954L0.191406 539.812L8.35991 524.954L33.7709 538.924C37.2299 540.826 39.7929 544.025 40.8939 547.817C41.9959 551.608 41.5459 555.682 39.6439 559.142L38.6469 560.954Z" fill="#2F2E41"/>
<path d="M148.033 518.094C146.788 518.093 145.587 517.639 144.653 516.818C143.718 515.996 143.115 514.862 142.955 513.628L125.492 379.064C125.415 378.468 125.152 377.913 124.74 377.476C124.328 377.04 123.789 376.744 123.199 376.632C122.61 376.521 122 376.598 121.457 376.853C120.913 377.109 120.465 377.529 120.175 378.055L47.3977 510.094C46.7967 511.172 45.8297 511.999 44.6717 512.424C43.5127 512.849 42.2397 512.844 41.0847 512.411L25.2217 506.367C24.5837 506.123 24.0007 505.755 23.5067 505.284C23.0127 504.812 22.6187 504.247 22.3457 503.621C22.0737 502.995 21.9297 502.32 21.9217 501.638C21.9137 500.955 22.0417 500.278 22.2987 499.645L72.7137 375.799C72.8417 375.485 72.9277 375.155 72.9707 374.818C79.7997 321.967 97.1727 295.091 102.335 288.112C102.712 287.6 102.961 287.004 103.059 286.375C103.157 285.746 103.103 285.102 102.9 284.499L102.191 282.37C101.907 281.525 101.849 280.621 102.022 279.746C102.195 278.872 102.593 278.058 103.177 277.385C121.777 256.199 154.197 267.759 154.523 267.878L154.685 267.938L154.787 268.077C191.139 317.932 177.698 479.858 174.635 511.812C174.521 513.013 173.985 514.135 173.124 514.979C172.262 515.823 171.129 516.335 169.926 516.425L148.431 518.08C148.297 518.09 148.164 518.094 148.033 518.094Z" fill="#2F2E41"/>
<path d="M138.176 144.188C155.339 144.188 169.251 130.275 169.251 113.113C169.251 95.9509 155.339 82.0381 138.176 82.0381C121.014 82.0381 107.102 95.9509 107.102 113.113C107.102 130.275 121.014 144.188 138.176 144.188Z" fill="#FFB8B8"/>
<path d="M90.1338 310.849L181.574 319.172C173.602 291.451 166.298 263.828 172.251 236.305C179.811 211.734 180.514 198.122 160.57 186.549L147.105 156.51L122.734 155.624L110.851 152.367C101.25 167.803 97.3228 186.101 99.7428 204.117C104.909 243.295 103.514 279.651 90.1338 310.849Z" fill="#1D5C96"/>
<path d="M104.014 172.181L94.8158 129.967C92.8968 119.974 93.3778 109.668 96.2208 99.8976C96.5298 98.8964 96.9038 97.9158 97.3378 96.962C99.8838 91.4134 103.887 86.6592 108.921 83.2053C113.954 79.7513 119.83 77.727 125.923 77.3478C146.826 75.904 149.895 78.1076 150.651 79.1945C162.463 78.7175 171.622 83.2809 175.801 91.7258C176.21 92.564 176.431 93.4817 176.447 94.4144C176.463 95.3471 176.275 96.2719 175.895 97.1239C175.515 97.9759 174.953 98.7342 174.248 99.3454C173.544 99.9567 172.714 100.406 171.816 100.662C165.979 102.345 157.774 104.215 151.62 103.665C139.285 118.46 144.328 145.567 156.842 161.717L157.334 162.352L144.935 164.893L130.527 144.828C130.242 144.431 129.829 144.144 129.357 144.015C128.886 143.886 128.385 143.922 127.937 144.118C127.489 144.315 127.122 144.658 126.898 145.093C126.673 145.527 126.604 146.025 126.703 146.504L131.077 167.755L104.014 172.181Z" fill="#2F2E41"/>
<path d="M281.632 285.853L55.4709 445.784L1.2749 369.145L227.436 209.214L281.632 285.853Z" fill="white"/>
<path d="M77.6178 395.937C86.4718 389.675 88.5748 377.421 82.3128 368.566C76.0508 359.711 63.7968 357.609 54.9418 363.871C46.0868 370.133 43.9847 382.387 50.2467 391.242C56.5087 400.096 68.7628 402.199 77.6178 395.937Z" fill="#1D5C96"/>
<path d="M95.75 343.03C95.041 343.531 94.56 344.294 94.414 345.149C94.267 346.005 94.466 346.883 94.967 347.592C95.468 348.301 96.231 348.781 97.086 348.928C97.942 349.075 98.82 348.876 99.529 348.375L225.502 259.292C226.209 258.789 226.687 258.028 226.832 257.173C226.978 256.319 226.778 255.442 226.278 254.735C225.778 254.027 225.017 253.547 224.163 253.399C223.309 253.252 222.432 253.449 221.723 253.947L95.75 343.03Z" fill="#E6E6E6"/>
<path d="M107.088 359.063C106.379 359.563 105.898 360.324 105.75 361.179C105.602 362.034 105.799 362.912 106.298 363.621C106.798 364.331 107.558 364.813 108.413 364.962C109.267 365.11 110.146 364.914 110.856 364.416L110.867 364.408L209.98 294.319C210.688 293.818 211.169 293.056 211.316 292.2C211.462 291.345 211.263 290.466 210.762 289.757C210.514 289.406 210.199 289.108 209.836 288.879C209.472 288.649 209.067 288.494 208.643 288.421C207.788 288.274 206.909 288.474 206.2 288.975L107.088 359.063Z" fill="#E6E6E6"/>
<path d="M281.632 285.853L55.4709 445.784L1.2749 369.145L227.436 209.214L281.632 285.853ZM56.7909 438.088L273.935 284.533L226.115 216.91L8.9711 370.466L56.7909 438.088Z" fill="#E6E6E6"/>
<path d="M798.046 257.458C798.848 257.427 799.648 257.564 800.394 257.858C801.103 258.142 801.746 258.57 802.281 259.113C802.819 259.661 803.239 260.312 803.515 261.028C803.807 261.787 803.939 262.598 803.905 263.41C803.873 264.244 803.679 265.063 803.334 265.822C802.998 266.567 802.529 267.245 801.95 267.822C801.376 268.397 800.702 268.862 799.96 269.194C799.208 269.532 798.396 269.718 797.571 269.74C796.769 269.765 795.97 269.621 795.225 269.319C794.52 269.031 793.882 268.601 793.35 268.054C792.817 267.506 792.402 266.854 792.13 266.138C791.844 265.382 791.715 264.575 791.75 263.767C791.784 262.938 791.977 262.123 792.319 261.367C792.654 260.63 793.119 259.958 793.691 259.385C794.262 258.812 794.931 258.347 795.667 258.012C796.416 257.673 797.225 257.485 798.046 257.458Z" fill="#F2F2F2"/>
<path d="M162.206 335.42L147.499 255.022L148.535 205.302L115.388 204.266L121.603 260.201L143.035 337.764C141.256 339.927 140.166 342.572 139.906 345.36C139.645 348.148 140.226 350.95 141.573 353.404C142.921 355.858 144.973 357.853 147.465 359.13C149.956 360.406 152.774 360.907 155.553 360.567C158.332 360.227 160.946 359.062 163.056 357.223C165.167 355.383 166.678 352.953 167.394 350.246C168.11 347.539 167.998 344.68 167.074 342.037C166.149 339.394 164.453 337.089 162.206 335.42Z" fill="#FFB8B8"/>
<path d="M113.317 209.445C125.326 204.871 138.597 204.871 150.606 209.445L148.535 168.012C148.535 165.836 148.106 163.68 147.273 161.67C146.44 159.659 145.22 157.832 143.681 156.293C142.142 154.754 140.315 153.533 138.304 152.7C136.293 151.867 134.138 151.439 131.961 151.439C129.785 151.439 127.63 151.867 125.619 152.7C123.608 153.533 121.781 154.754 120.242 156.293C118.703 157.832 117.483 159.659 116.65 161.67C115.817 163.68 115.388 165.836 115.388 168.012L113.317 209.445Z" fill="#1D5C96"/>
</svg>
