<svg width="486" height="511" viewBox="0 0 486 511" fill="none" xmlns="http://www.w3.org/2000/svg">
<path d="M390.427 511.006H230.114C206.07 511.006 186.508 491.444 186.508 467.399V43.6069C186.508 19.5621 206.07 0 230.114 0H390.427C414.471 0 434.033 19.5621 434.033 43.6069C437.017 213.789 442.106 404.365 434.033 467.399C434.033 491.444 414.471 511.006 390.427 511.006Z" fill="#3F3D56"/>
<path d="M436.269 155.885C435.251 155.885 434.424 156.712 434.424 157.729V216.762C434.424 217.78 435.251 218.607 436.269 218.607C437.286 218.607 438.114 217.78 438.114 216.762V157.729C438.114 156.712 437.286 155.885 436.269 155.885Z" fill="#3F3D56"/>
<path d="M429.883 43.6072V467.391C429.883 488.32 413.593 505.44 392.996 506.768H392.987C392.683 506.787 392.378 506.805 392.065 506.814C391.52 506.842 390.976 506.851 390.423 506.851C390.423 506.851 388.394 506.704 384.686 506.427C380.941 506.15 375.489 505.735 368.691 505.191C366.653 505.034 364.504 504.859 362.234 504.674C357.715 504.306 352.752 503.9 347.43 503.438C345.309 503.263 343.113 503.07 340.872 502.876C329.416 501.889 316.585 500.736 303.054 499.426C300.766 499.214 298.46 498.993 296.136 498.762C295.527 498.697 190.659 472.335 190.659 467.391V43.6072C190.659 21.8111 208.323 4.14734 230.119 4.14734H253.677C257.44 4.14734 260.465 7.08054 260.788 10.8347C260.816 11.0837 260.844 11.3327 260.89 11.5818C261.572 15.3544 265.031 17.9832 268.868 17.9832H351.673C355.51 17.9832 358.969 15.3544 359.652 11.5818C359.698 11.3327 359.726 11.0837 359.753 10.8347C360.076 7.08055 363.102 4.14734 366.865 4.14734H390.423C412.219 4.14734 429.883 21.8111 429.883 43.6072Z" fill="white"/>
<path d="M185.585 111.61C184.568 111.61 183.74 112.437 183.74 113.454V128.213C183.74 129.23 184.568 130.058 185.585 130.058C186.603 130.058 187.43 129.23 187.43 128.213V113.454C187.43 112.437 186.603 111.61 185.585 111.61Z" fill="#3F3D56"/>
<path d="M185.585 155.885C184.568 155.885 183.74 156.712 183.74 157.729V186.323C183.74 187.341 184.568 188.168 185.585 188.168C186.603 188.168 187.43 187.341 187.43 186.323V157.729C187.43 156.712 186.603 155.885 185.585 155.885Z" fill="#3F3D56"/>
<path d="M185.585 196.47C184.568 196.47 183.74 197.297 183.74 198.315V226.909C183.74 227.926 184.568 228.754 185.585 228.754C186.603 228.754 187.43 227.926 187.43 226.909V198.315C187.43 197.297 186.603 196.47 185.585 196.47Z" fill="#3F3D56"/>
<path d="M253.071 10.6077H217.718C217.547 10.6077 217.408 10.7466 217.408 10.9179V14.9094C217.408 15.0807 217.547 15.2196 217.718 15.2196H253.071C253.242 15.2196 253.381 15.0807 253.381 14.9094V10.9179C253.381 10.7466 253.242 10.6077 253.071 10.6077Z" fill="#E6E6E6"/>
<path d="M372.694 15.2196C374.732 15.2196 376.384 13.5677 376.384 11.5301C376.384 9.49233 374.732 7.84045 372.694 7.84045C370.657 7.84045 369.005 9.49233 369.005 11.5301C369.005 13.5677 370.657 15.2196 372.694 15.2196Z" fill="#E6E6E6"/>
<path d="M382.84 15.2196C384.878 15.2196 386.53 13.5677 386.53 11.5301C386.53 9.49233 384.878 7.84045 382.84 7.84045C380.803 7.84045 379.151 9.49233 379.151 11.5301C379.151 13.5677 380.803 15.2196 382.84 15.2196Z" fill="#E6E6E6"/>
<path d="M392.987 15.2196C395.025 15.2196 396.676 13.5677 396.676 11.5301C396.676 9.49233 395.025 7.84045 392.987 7.84045C390.949 7.84045 389.297 9.49233 389.297 11.5301C389.297 13.5677 390.949 15.2196 392.987 15.2196Z" fill="#E6E6E6"/>
<path d="M189.133 503.29L177.89 503.289L172.541 459.92L189.136 459.921L189.133 503.29Z" fill="#FFB6B6"/>
<path d="M150.611 503.035C150.261 503.625 150.076 505.528 150.076 506.214C150.076 508.321 151.785 510.03 153.892 510.03H188.713C190.151 510.03 191.316 508.864 191.316 507.426V505.977C191.316 505.977 193.039 501.62 189.492 496.249C189.492 496.249 185.085 500.454 178.498 493.868L176.556 490.35L162.497 500.632L154.704 501.591C153 501.801 151.488 501.558 150.611 503.035Z" fill="#2F2E41"/>
<path d="M126.954 443.052L115.71 443.015L110.499 399.629L127.094 399.683L126.954 443.052Z" fill="#FFB6B6"/>
<path d="M88.4321 442.675C88.0802 443.263 87.8894 445.166 87.8872 445.851C87.8805 447.959 89.5836 449.673 91.6913 449.68L126.512 449.79C127.95 449.795 129.119 448.633 129.123 447.195L129.128 445.745C129.128 445.745 130.864 441.394 127.335 436.012C127.335 436.012 122.914 440.203 116.349 433.596L114.418 430.072L100.326 440.309L92.5302 441.243C90.8247 441.448 89.3138 441.201 88.4321 442.675Z" fill="#2F2E41"/>
<path d="M172.734 240L158.734 241C158.734 241 111.339 267.947 107.339 273.947C103.339 279.947 97.8389 288.447 102.839 297.447C107.839 306.447 104.033 415.42 104.033 415.42L127.926 410.015L143.234 296L175.234 291.5C175.234 291.5 186.234 315.232 182.234 334.866C178.234 354.5 176.234 366.5 176.234 366.5L171.234 482.5L190.734 482L208.234 374.5L238.234 289.5L199.234 243.5L172.734 240Z" fill="#2F2E41"/>
<path d="M241.734 117L212.734 120L209.734 130L181.734 145L190.734 208L183.734 219L186.734 230C186.734 230 178.734 231 179.734 237L161.734 240C161.734 240 185.609 244.874 190.671 268.937C195.734 293 237.734 296 237.734 296L270.734 193L273.734 132L250.734 126L241.734 117Z" fill="#E6E6E6"/>
<path d="M226.451 113.205C238.902 113.205 248.995 103.112 248.995 90.6614C248.995 78.2107 238.902 68.1174 226.451 68.1174C214 68.1174 203.907 78.2107 203.907 90.6614C203.907 103.112 214 113.205 226.451 113.205Z" fill="#FFB6B6"/>
<path d="M214.734 111C214.734 111 194.734 110 196.734 94C191.784 76.9617 196.166 65.899 211.734 62C211.734 62 215.734 61 216.734 61C229.887 61 236.734 65 236.734 65C236.734 65 235.734 61.0394 236.734 62.0197C237.734 63 238.734 65 238.734 65C238.734 65 248.734 70 248.734 80C248.734 90 248.734 86 248.734 86C248.734 86 246.734 86 244.734 80C242.734 74 229.786 78 229.786 78L230.734 80L227.734 79L224.734 82L222.734 81C222.734 81 214.734 81 215.734 81C216.734 81 216.038 87.7959 216.038 87.7959L208.734 96L216.734 111H214.734Z" fill="#2F2E41"/>
<path d="M108.18 230.354C102.487 233.461 99.4742 238.917 101.452 242.54C103.429 246.163 109.647 246.581 115.341 243.474C117.833 242.114 119.811 240.304 121.082 238.394L145.042 224.925L138.482 213.816L115.559 228.273C113.265 228.309 110.672 228.994 108.18 230.354Z" fill="#FFB6B6"/>
<path d="M188.978 145.467C188.978 145.467 179.586 141.891 176.35 146.195C173.114 150.5 151.737 202.73 151.737 202.73L120.373 219.11L129.193 234.469L169.581 221.023L196.227 172.289L188.978 145.467Z" fill="#E6E6E6"/>
<path d="M485.149 316.998V422.998C485.149 432.372 477.523 439.998 468.149 439.998H206.149C196.775 439.998 189.149 432.372 189.149 422.998V316.998C189.149 307.624 196.775 299.998 206.149 299.998H468.149C477.523 299.998 485.149 307.624 485.149 316.998Z" fill="white"/>
<path d="M485.149 316.998V422.998C485.149 432.372 477.523 439.998 468.149 439.998H206.149C196.775 439.998 189.149 432.372 189.149 422.998V316.998C189.149 307.624 196.775 299.998 206.149 299.998H468.149C477.523 299.998 485.149 307.624 485.149 316.998ZM468.149 437.998C476.434 437.998 483.149 431.282 483.149 422.998V369.557C483.149 332.245 452.902 301.998 415.59 301.998H206.149C197.865 301.998 191.149 308.714 191.149 316.998V422.998C191.149 431.282 197.865 437.998 206.149 437.998H468.149Z" fill="#3F3D56"/>
<path d="M306.76 364.039H272.539C271.676 364.039 270.974 364.741 270.974 365.604C270.974 366.466 271.676 367.169 272.539 367.169H306.76C307.622 367.169 308.324 366.466 308.324 365.604C308.324 364.741 307.622 364.039 306.76 364.039Z" fill="#1D5C96"/>
<path d="M358.76 364.039H324.539C323.676 364.039 322.974 364.741 322.974 365.604C322.974 366.466 323.676 367.169 324.539 367.169H358.76C359.622 367.169 360.324 366.466 360.324 365.604C360.324 364.741 359.622 364.039 358.76 364.039Z" fill="#1D5C96"/>
<path d="M306.76 381.145H272.539C271.676 381.145 270.974 381.847 270.974 382.71C270.974 383.573 271.676 384.275 272.539 384.275H306.76C307.622 384.275 308.324 383.573 308.324 382.71C308.324 381.847 307.622 381.145 306.76 381.145Z" fill="#1D5C96"/>
<path d="M358.76 381.145H324.539C323.676 381.145 322.974 381.847 322.974 382.71C322.974 383.573 323.676 384.275 324.539 384.275H358.76C359.622 384.275 360.324 383.573 360.324 382.71C360.324 381.847 359.622 381.145 358.76 381.145Z" fill="#1D5C96"/>
<path d="M412.324 382.71C412.324 381.847 411.622 381.146 410.76 381.146H376.539C375.676 381.146 374.974 381.847 374.974 382.71C374.974 383.573 375.676 384.275 376.539 384.275H410.76C411.622 384.275 412.324 383.573 412.324 382.71Z" fill="#1D5C96"/>
<path d="M286.76 350.381C287.622 350.381 288.324 349.679 288.324 348.816C288.324 347.953 287.622 347.252 286.76 347.252H252.539C251.676 347.252 250.974 347.953 250.974 348.816C250.974 349.679 251.676 350.381 252.539 350.381H286.76Z" fill="#1D5C96"/>
<path d="M387.539 349.744H421.76C422.622 349.744 423.324 349.042 423.324 348.18C423.324 347.317 422.622 346.615 421.76 346.615H387.539C386.676 346.615 385.974 347.317 385.974 348.18C385.974 349.042 386.676 349.744 387.539 349.744Z" fill="#1D5C96"/>
<path d="M301.176 350.073H372.123C372.986 350.073 373.687 349.371 373.687 348.509C373.687 347.646 372.986 346.944 372.123 346.944H301.176C300.313 346.944 299.611 347.646 299.611 348.509C299.611 349.371 300.313 350.073 301.176 350.073Z" fill="#1D5C96"/>
<path d="M329.09 396.687H294.87C294.007 396.687 293.305 397.389 293.305 398.251C293.305 399.114 294.007 399.816 294.87 399.816H329.09C329.953 399.816 330.655 399.114 330.655 398.251C330.655 397.389 329.953 396.687 329.09 396.687Z" fill="#1D5C96"/>
<path d="M439.611 316.199V422.199C439.611 431.573 431.985 439.199 422.611 439.199H316.611C307.237 439.199 299.611 431.573 299.611 422.199V316.199C299.611 306.825 307.237 299.199 316.611 299.199H422.611C431.985 299.199 439.611 306.825 439.611 316.199Z" fill="white"/>
<path d="M439.611 316.199V422.199C439.611 431.573 431.985 439.199 422.611 439.199H316.611C307.237 439.199 299.611 431.573 299.611 422.199V316.199C299.611 306.825 307.237 299.199 316.611 299.199H422.611C431.985 299.199 439.611 306.825 439.611 316.199ZM416.035 437.199C427.951 437.199 437.611 427.539 437.611 415.623V368.758C437.611 331.446 407.364 301.199 370.052 301.199H316.611C308.327 301.199 301.611 307.914 301.611 316.199V407.409C301.611 423.862 314.949 437.199 331.401 437.199H416.035Z" fill="#3F3D56"/>
<path d="M383.722 342.491H349.501C348.638 342.491 347.937 341.789 347.937 340.926C347.937 340.063 348.639 339.362 349.501 339.362H383.722C384.585 339.362 385.286 340.063 385.286 340.926C385.286 341.789 384.585 342.491 383.722 342.491Z" fill="#1D5C96"/>
<path d="M383.722 375.855H349.501C348.638 375.855 347.937 375.153 347.937 374.29C347.937 373.427 348.639 372.725 349.501 372.725H383.722C384.585 372.725 385.286 373.427 385.286 374.29C385.286 375.153 384.585 375.855 383.722 375.855Z" fill="#1D5C96"/>
<path d="M366.722 421.855H332.501C331.638 421.855 330.937 421.153 330.937 420.29C330.937 419.427 331.639 418.725 332.501 418.725H366.722C367.585 418.725 368.286 419.427 368.286 420.29C368.286 421.153 367.585 421.855 366.722 421.855Z" fill="#1D5C96"/>
<path d="M402.085 359.184H331.138C330.275 359.184 329.573 358.482 329.573 357.619C329.573 356.756 330.275 356.055 331.138 356.055H402.085C402.948 356.055 403.649 356.756 403.649 357.619C403.649 358.482 402.948 359.184 402.085 359.184Z" fill="#1D5C96"/>
<path d="M419.667 257.462C419.667 224.394 391.718 206.204 359.793 197.588C318.862 186.542 288.885 208.894 299.92 257.462C302.421 268.469 308.402 281.325 315.806 292.322H374.56C394.186 279.545 419.667 283.128 419.667 257.462Z" fill="#1D5C96"/>
<path d="M358.914 319.972C362.256 313.6 366.494 309.004 371.163 305.505H316.132C330.296 325.736 349.079 338.721 358.914 319.972Z" fill="#1D5C96"/>
<path d="M352.564 222.062C356.097 222.062 358.961 224.926 358.961 228.459V241.253H346.167V228.459C346.167 224.926 349.031 222.062 352.564 222.062ZM362.159 241.253V228.459C362.159 223.16 357.864 218.864 352.564 218.864C347.265 218.864 342.969 223.16 342.969 228.459V241.253C339.436 241.253 336.572 244.116 336.572 247.649V263.641C336.572 267.174 339.436 270.038 342.969 270.038H362.159C365.692 270.038 368.556 267.174 368.556 263.641V247.649C368.556 244.116 365.692 241.253 362.159 241.253ZM342.969 244.451H362.159C363.926 244.451 365.358 245.883 365.358 247.649V263.641C365.358 265.408 363.926 266.84 362.159 266.84H342.969C341.203 266.84 339.771 265.408 339.771 263.641V247.649C339.771 245.883 341.203 244.451 342.969 244.451Z" fill="white"/>
<path d="M261.15 296.543C260.379 302.983 263.076 308.602 267.174 309.093C271.273 309.584 275.22 304.761 275.991 298.321C276.329 295.502 276.002 292.84 275.184 290.697L278.11 263.368L265.255 262.268L263.735 289.326C262.434 291.215 261.488 293.724 261.15 296.543Z" fill="#FFB6B6"/>
<path d="M264.234 133.5C264.234 133.5 278.234 129.5 281.234 135.5C284.234 141.5 291.234 220.5 291.234 220.5L277.734 283.559L262.234 279.5L270.234 215.5L259.234 167.5L264.234 133.5Z" fill="#E6E6E6"/>
<path d="M58.5 325.34C90.8086 325.34 117 299.148 117 266.84C117 234.531 90.8086 208.34 58.5 208.34C26.1913 208.34 0 234.531 0 266.84C0 299.148 26.1913 325.34 58.5 325.34Z" fill="#1D5C96"/>
<path d="M58.4999 240.651C62.6324 240.651 65.9824 244.001 65.9824 248.133V263.098H51.0173V248.133C51.0173 244.001 54.3674 240.651 58.4999 240.651ZM69.7237 263.098V248.133C69.7237 241.934 64.6986 236.909 58.4999 236.909C52.3011 236.909 47.276 241.934 47.276 248.133V263.098C43.1435 263.098 39.7935 266.448 39.7935 270.581V289.287C39.7935 293.42 43.1435 296.77 47.276 296.77H69.7237C73.8562 296.77 77.2063 293.42 77.2063 289.287V270.581C77.2063 266.448 73.8562 263.098 69.7237 263.098ZM47.2761 266.84H69.7237C71.79 266.84 73.465 268.515 73.465 270.581V289.287C73.465 291.354 71.79 293.029 69.7237 293.029H47.2761C45.2098 293.029 43.5348 291.354 43.5348 289.287V270.581C43.5348 268.515 45.2098 266.84 47.2761 266.84Z" fill="white"/>
</svg>
