<svg width="802" height="648" viewBox="0 0 802 648" fill="none" xmlns="http://www.w3.org/2000/svg">
<path d="M769.821 0.00102288H529.206C517.595 0.000454221 506.329 3.95048 497.26 11.2018C488.191 18.4531 481.86 28.5741 479.306 39.901L357.73 579.169C356.404 585.051 356.38 591.152 357.662 597.044C358.943 602.936 361.497 608.476 365.146 613.277C368.794 618.077 373.449 622.021 378.783 624.833C384.117 627.644 390.002 629.254 396.024 629.551L643.379 641.738C656.624 642.39 669.654 638.202 680.038 629.953C690.421 621.704 697.449 609.959 699.809 596.91L768.779 215.643L773.91 217.109L787.11 144.844L781.829 143.524L801.08 37.098C801.905 32.5394 801.714 27.855 800.521 23.3787C799.328 18.9023 797.162 14.7444 794.177 11.2012C791.193 7.65801 787.463 4.8169 783.255 2.8804C779.046 0.943909 774.462 -0.0402727 769.83 -0.00197547L769.821 0.00102288Z" fill="#3F3D56"/>
<path d="M560.879 11.626H532.795C524.729 11.6261 516.906 14.3846 510.624 19.4438C504.342 24.503 499.979 31.5584 498.259 39.439L381.559 574.307C380.887 577.387 380.887 580.575 381.56 583.654C382.233 586.734 383.563 589.631 385.459 592.15C387.355 594.668 389.772 596.747 392.545 598.245C395.319 599.744 398.383 600.626 401.528 600.831L648.079 616.991C655.035 617.447 661.915 615.326 667.406 611.032C672.898 606.739 676.616 600.574 677.852 593.714L777.432 40.876C778.076 37.2978 777.928 33.6218 776.996 30.1074C776.065 26.593 774.374 23.3258 772.042 20.5364C769.71 17.7469 766.794 15.5033 763.501 13.9637C760.207 12.4241 756.616 11.6261 752.98 11.626H726.337C723.758 11.6259 721.251 12.476 719.204 14.0446C717.157 15.6132 715.685 17.8128 715.014 20.303C714.422 22.5021 713.121 24.4446 711.313 25.8296C709.506 27.2146 707.291 27.9648 705.014 27.964H578.526C574.068 27.9638 569.773 26.2811 566.502 23.2522C563.23 20.2233 561.222 16.0712 560.879 11.626Z" fill="white"/>
<path d="M697.173 385.544C697.652 385.561 698.122 385.404 698.495 385.103C698.869 384.803 699.122 384.378 699.209 383.906L753.732 82.989C753.784 82.703 753.774 82.4091 753.702 82.1275C753.63 81.8458 753.498 81.583 753.315 81.357C753.134 81.1328 752.906 80.9512 752.646 80.8252C752.387 80.6992 752.103 80.6319 751.815 80.628L503.756 77.698H503.733C503.283 77.7018 502.847 77.8584 502.497 78.1422C502.147 78.426 501.904 78.8201 501.808 79.26L437.532 370.41C437.469 370.694 437.468 370.988 437.53 371.273C437.591 371.557 437.713 371.825 437.888 372.058C438.061 372.289 438.282 372.479 438.537 372.615C438.792 372.75 439.073 372.828 439.361 372.843L697.173 385.544Z" fill="#E6E6E6"/>
<path d="M481.908 405C481.683 405 481.464 405.077 481.287 405.217C481.11 405.357 480.986 405.553 480.935 405.773L478.612 415.729C478.579 415.87 478.577 416.016 478.606 416.157C478.635 416.299 478.695 416.432 478.78 416.549C478.866 416.665 478.975 416.762 479.102 416.832C479.228 416.902 479.368 416.943 479.512 416.954L610.742 426.281C610.986 426.296 611.226 426.223 611.42 426.075C611.614 425.927 611.747 425.713 611.795 425.474L614.029 413.955C614.056 413.815 614.053 413.671 614.02 413.533C613.987 413.394 613.925 413.265 613.837 413.152C613.75 413.04 613.64 412.947 613.514 412.881C613.388 412.814 613.249 412.776 613.107 412.767L481.969 405.002L481.908 405Z" fill="#E6E6E6"/>
<path d="M641.345 463.262C641.582 463.281 641.817 463.215 642.01 463.076C642.202 462.937 642.339 462.735 642.396 462.504L645.24 450.961C645.275 450.82 645.278 450.672 645.25 450.529C645.222 450.386 645.164 450.251 645.078 450.133C644.992 450.015 644.882 449.918 644.754 449.847C644.627 449.776 644.485 449.734 644.34 449.724L476.751 438.003C476.524 437.985 476.297 438.046 476.109 438.176C475.922 438.306 475.785 438.497 475.722 438.716L472.767 448.691C472.725 448.834 472.715 448.984 472.738 449.131C472.762 449.277 472.817 449.417 472.901 449.54C472.986 449.663 473.096 449.765 473.225 449.839C473.353 449.914 473.497 449.959 473.645 449.971L641.345 463.262Z" fill="#E6E6E6"/>
<path d="M632.345 500.262C632.582 500.281 632.817 500.215 633.01 500.076C633.202 499.937 633.339 499.735 633.396 499.504L636.24 487.961C636.275 487.82 636.278 487.672 636.25 487.529C636.222 487.386 636.164 487.251 636.078 487.133C635.992 487.015 635.882 486.918 635.754 486.847C635.627 486.776 635.485 486.734 635.34 486.724L467.751 475.003C467.524 474.985 467.297 475.046 467.109 475.176C466.922 475.306 466.785 475.497 466.722 475.716L463.767 485.691C463.725 485.834 463.715 485.984 463.738 486.131C463.762 486.277 463.817 486.417 463.901 486.54C463.986 486.663 464.096 486.765 464.225 486.839C464.353 486.914 464.497 486.959 464.645 486.971L632.345 500.262Z" fill="#E6E6E6"/>
<path d="M341.778 630.52C341.778 638.889 265.173 639.78 170.889 645.673C76.689 651.56 0 638.889 0 630.52C0 622.151 77.047 605.313 170.889 615.367C265.173 625.469 341.778 622.151 341.778 630.52Z" fill="#E6E6E6"/>
<path d="M555.16 563.514C555.399 563.539 555.638 563.476 555.834 563.337C556.03 563.198 556.168 562.993 556.224 562.76L562.237 538.709C562.272 538.568 562.277 538.422 562.25 538.279C562.223 538.137 562.165 538.002 562.081 537.884C561.997 537.766 561.888 537.668 561.762 537.596C561.636 537.525 561.496 537.481 561.351 537.469L458.435 528.813C458.195 528.796 457.956 528.866 457.762 529.008C457.568 529.151 457.431 529.358 457.375 529.592L452.246 552.675C452.215 552.813 452.214 552.957 452.243 553.096C452.272 553.235 452.33 553.366 452.414 553.481C452.497 553.596 452.604 553.691 452.728 553.761C452.851 553.832 452.988 553.875 453.129 553.888L555.16 563.514Z" fill="#1D5C96"/>
<path d="M139.609 465.507C140.905 464.619 141.991 463.458 142.789 462.105C143.587 460.752 144.079 459.24 144.23 457.676C144.381 456.113 144.187 454.535 143.662 453.054C143.137 451.574 142.293 450.226 141.191 449.107L145.358 356.089L124.143 358.47L125.376 449.455C123.617 451.43 122.643 453.982 122.641 456.627C122.638 459.272 123.606 461.826 125.361 463.805C127.116 465.784 129.536 467.05 132.163 467.363C134.789 467.676 137.439 467.014 139.61 465.503L139.609 465.507Z" fill="#A0616A"/>
<path d="M178.312 622.966L190.387 625.089L202.321 579.525L186.5 576.392L178.312 622.966Z" fill="#A0616A"/>
<path d="M211.706 640.394L173.757 633.722L176.335 619.061L199.622 623.155C203.51 623.839 206.968 626.039 209.234 629.272C211.501 632.505 212.39 636.506 211.706 640.395L211.706 640.394Z" fill="#2F2E41"/>
<path d="M145.17 629.01H157.43L163.262 581.722H145.168L145.17 629.01Z" fill="#A0616A"/>
<path d="M181.07 640.396L142.539 640.398L142.538 625.511L166.182 625.509C170.13 625.509 173.917 627.077 176.709 629.869C179.501 632.661 181.07 636.447 181.07 640.396Z" fill="#2F2E41"/>
<path d="M196.319 612.06C196.128 612.06 195.937 612.049 195.747 612.026L181.317 610.839C180.66 610.762 180.026 610.552 179.452 610.222C178.879 609.892 178.379 609.449 177.982 608.919C177.585 608.39 177.3 607.786 177.144 607.143C176.988 606.5 176.964 605.832 177.074 605.18L191.399 534.499L182.399 487.025C182.326 486.639 182.115 486.293 181.807 486.05C181.498 485.807 181.112 485.684 180.72 485.704C180.328 485.723 179.956 485.884 179.673 486.156C179.39 486.429 179.215 486.794 179.18 487.185L165.919 607.812C165.795 609.083 165.183 610.256 164.211 611.083C163.239 611.911 161.983 612.329 160.709 612.249L147.114 611.743C145.923 611.659 144.804 611.141 143.968 610.288C143.132 609.434 142.638 608.305 142.578 607.112L143.664 461.344L214.145 452.534L219.069 528.575L219.049 528.656L201.058 608.331C200.799 609.393 200.192 610.338 199.333 611.014C198.473 611.69 197.412 612.058 196.319 612.06Z" fill="#2F2E41"/>
<path d="M166.907 295.816C180.472 295.816 191.468 284.82 191.468 271.255C191.468 257.69 180.472 246.694 166.907 246.694C153.343 246.694 142.346 257.69 142.346 271.255C142.346 284.82 153.343 295.816 166.907 295.816Z" fill="#A0616A"/>
<path d="M190.049 472.437C186.208 472.46 182.44 471.382 179.192 469.331C167.292 461.895 153.781 464.85 146.785 467.274C146.091 467.517 145.35 467.6 144.619 467.517C143.888 467.434 143.186 467.186 142.564 466.793C141.949 466.407 141.43 465.887 141.045 465.272C140.66 464.657 140.419 463.963 140.34 463.241L127.619 349.616C125.487 330.578 136.955 312.679 154.887 307.056C155.561 306.845 156.246 306.645 156.942 306.456C162.522 304.943 168.366 304.672 174.063 305.66C179.759 306.649 185.17 308.874 189.914 312.179C194.746 315.52 198.788 319.88 201.754 324.951C204.72 330.022 206.538 335.682 207.081 341.532L217.792 455.919C217.865 456.66 217.765 457.407 217.5 458.102C217.235 458.798 216.812 459.422 216.265 459.926C212.509 463.398 201.611 472.436 190.049 472.437Z" fill="#1D5C96"/>
<path d="M151.308 373.982L122.608 370.826C121.791 370.736 121.003 370.471 120.298 370.05C119.593 369.628 118.987 369.059 118.522 368.382C118.056 367.705 117.742 366.936 117.601 366.126C117.46 365.317 117.494 364.487 117.703 363.692L125.009 335.846C125.224 333.759 125.851 331.735 126.853 329.892C127.855 328.048 129.212 326.422 130.847 325.106C132.481 323.79 134.36 322.811 136.375 322.226C138.39 321.641 140.501 321.461 142.586 321.696C144.671 321.932 146.688 322.578 148.522 323.598C150.356 324.617 151.969 325.99 153.269 327.638C154.569 329.285 155.529 331.173 156.095 333.193C156.661 335.214 156.82 337.326 156.565 339.409L157.65 368.084C157.681 368.905 157.535 369.723 157.221 370.483C156.907 371.243 156.433 371.925 155.832 372.485C155.231 373.045 154.515 373.469 153.735 373.728C152.955 373.986 152.129 374.074 151.312 373.984L151.308 373.982Z" fill="#1D5C96"/>
<path d="M217.675 461.524C218.854 460.486 219.791 459.203 220.42 457.764C221.049 456.325 221.356 454.765 221.317 453.195C221.278 451.625 220.896 450.083 220.196 448.676C219.497 447.27 218.498 446.034 217.269 445.056L210.196 352.214L189.407 356.894L201.607 447.308C200.099 449.481 199.44 452.131 199.756 454.758C200.072 457.384 201.34 459.803 203.321 461.556C205.302 463.309 207.857 464.274 210.502 464.268C213.147 464.262 215.698 463.286 217.671 461.524H217.675Z" fill="#A0616A"/>
<path d="M181.438 368.146C180.836 367.587 180.362 366.904 180.049 366.144C179.735 365.385 179.589 364.567 179.62 363.746L180.705 335.071C180.471 332.999 180.647 330.901 181.224 328.897C181.801 326.894 182.767 325.023 184.066 323.392C185.366 321.762 186.974 320.403 188.799 319.394C190.624 318.385 192.629 317.745 194.701 317.512C196.773 317.278 198.871 317.454 200.875 318.031C202.879 318.608 204.749 319.573 206.38 320.873C208.01 322.173 209.369 323.781 210.378 325.606C211.387 327.43 212.027 329.436 212.261 331.508L219.567 359.354C219.775 360.149 219.81 360.979 219.669 361.788C219.528 362.598 219.214 363.367 218.748 364.044C218.283 364.721 217.677 365.29 216.971 365.712C216.266 366.133 215.479 366.398 214.662 366.488L185.962 369.644C185.145 369.734 184.318 369.647 183.538 369.388C182.758 369.129 182.043 368.705 181.442 368.144L181.438 368.146Z" fill="#1D5C96"/>
<path d="M165.446 296.741C165.008 296.741 164.572 296.69 164.146 296.59L164.021 296.56C142.427 293.26 137.654 280.748 136.607 275.525C135.523 270.117 136.757 264.897 139.547 262.869C138.026 258.069 138.27 253.808 140.274 250.207C143.774 243.927 151.355 241.807 152.374 241.543C158.432 237.074 165.68 240.057 166.999 240.662C178.718 236.327 183.199 239.935 184.007 240.741C189.245 241.682 192.438 243.705 193.498 246.757C195.489 252.488 189.193 259.617 188.924 259.918L188.784 260.074L179.404 260.521C178.514 260.564 177.643 260.793 176.847 261.193C176.051 261.594 175.348 262.158 174.784 262.848C174.22 263.538 173.808 264.339 173.573 265.198C173.339 266.058 173.287 266.957 173.423 267.838C173.677 268.974 173.997 270.095 174.383 271.193C175.983 276.199 177.183 280.476 175.637 282.102C175.286 282.417 174.854 282.626 174.39 282.707C173.925 282.787 173.448 282.735 173.012 282.557C171.545 282.165 170.55 282.247 170.054 282.802C169.284 283.661 169.519 285.837 170.716 288.927C171.091 289.904 171.193 290.966 171.008 291.996C170.824 293.027 170.361 293.988 169.67 294.774C169.149 295.388 168.502 295.881 167.773 296.221C167.043 296.561 166.249 296.738 165.444 296.741H165.446Z" fill="#2F2E41"/>
</svg>
