<svg width="556" height="711" viewBox="0 0 556 711" fill="none" xmlns="http://www.w3.org/2000/svg">
<path d="M555.815 168.892H551.915V61.915C551.915 45.4941 545.392 29.7458 533.781 18.1345C522.169 6.52317 506.421 8.07648e-09 490 8.07648e-09H263.35C255.219 -0.000131315 247.168 1.60122 239.656 4.71262C232.144 7.82401 225.319 12.3845 219.569 18.1338C213.82 23.883 209.259 30.7084 206.147 38.2202C203.036 45.7321 201.434 53.7832 201.434 61.914V648.798C201.434 665.219 207.957 680.967 219.569 692.579C231.18 704.19 246.928 710.713 263.349 710.713H489.997C506.418 710.713 522.166 704.19 533.778 692.579C545.389 680.967 551.912 665.219 551.912 648.798V245.04H555.812L555.815 168.892Z" fill="#3F3D56"/>
<path d="M539.215 57.768V652.943C539.213 665.393 534.267 677.333 525.465 686.138C516.662 694.942 504.723 699.891 492.273 699.895H260.973C248.518 699.897 236.572 694.951 227.763 686.146C218.955 677.341 214.004 665.398 214 652.943V57.768C214.004 45.3135 218.954 33.3705 227.763 24.5657C236.571 15.7609 248.516 10.8154 260.971 10.817H289.029C287.651 14.205 287.127 17.8795 287.502 21.5177C287.877 25.1558 289.14 28.6461 291.18 31.6818C293.22 34.7175 295.974 37.2056 299.201 38.9275C302.427 40.6494 306.028 41.5524 309.685 41.557H441.553C445.21 41.5524 448.811 40.6494 452.037 38.9275C455.264 37.2056 458.018 34.7175 460.058 31.6818C462.098 28.6461 463.361 25.1558 463.736 21.5177C464.111 17.8795 463.587 14.205 462.209 10.817H492.264C504.714 10.8191 516.654 15.7652 525.458 24.5678C534.262 33.3704 539.21 45.309 539.215 57.759V57.768Z" fill="white"/>
<path d="M376.565 296.694C429.896 296.694 473.13 253.46 473.13 200.129C473.13 146.798 429.896 103.564 376.565 103.564C323.234 103.564 280 146.798 280 200.129C280 253.46 323.234 296.694 376.565 296.694Z" fill="#1D5C96"/>
<path d="M481.881 400.596H276.344C275.335 400.595 274.368 400.194 273.654 399.48C272.94 398.767 272.539 397.799 272.538 396.79V345.806C272.539 344.797 272.941 343.83 273.654 343.116C274.368 342.403 275.335 342.001 276.344 342H481.881C482.89 342.001 483.857 342.403 484.571 343.116C485.284 343.83 485.686 344.797 485.687 345.806V396.791C485.686 397.8 485.284 398.767 484.571 399.481C483.857 400.194 482.89 400.596 481.881 400.597V400.596ZM276.344 343.522C275.738 343.523 275.158 343.763 274.73 344.192C274.301 344.62 274.061 345.2 274.06 345.806V396.791C274.061 397.397 274.301 397.977 274.73 398.405C275.158 398.834 275.738 399.074 276.344 399.075H481.881C482.487 399.074 483.067 398.834 483.496 398.405C483.924 397.977 484.165 397.397 484.165 396.791V345.806C484.165 345.2 483.924 344.62 483.496 344.192C483.067 343.763 482.487 343.523 481.881 343.522H276.344Z" fill="#E6E6E6"/>
<path d="M339.908 360.361C339.201 360.361 338.524 360.642 338.024 361.141C337.524 361.641 337.244 362.319 337.244 363.025C337.244 363.732 337.524 364.41 338.024 364.91C338.524 365.409 339.201 365.69 339.908 365.69H465.513C466.219 365.717 466.908 365.462 467.426 364.982C467.945 364.502 468.251 363.835 468.278 363.129C468.305 362.423 468.051 361.735 467.57 361.216C467.09 360.697 466.424 360.391 465.717 360.364C465.678 360.362 465.639 360.362 465.6 360.362L339.908 360.361Z" fill="#E6E6E6"/>
<path d="M339.908 376.345C339.201 376.345 338.524 376.626 338.024 377.125C337.524 377.625 337.244 378.303 337.244 379.009C337.244 379.716 337.524 380.394 338.024 380.894C338.524 381.393 339.201 381.674 339.908 381.674H465.513C466.219 381.701 466.908 381.446 467.426 380.966C467.945 380.486 468.251 379.819 468.278 379.113C468.305 378.407 468.051 377.719 467.57 377.2C467.09 376.681 466.424 376.375 465.717 376.348C465.678 376.346 465.639 376.346 465.6 376.346L339.908 376.345Z" fill="#E6E6E6"/>
<path d="M481.881 485.576H276.344C275.335 485.575 274.368 485.174 273.654 484.46C272.94 483.746 272.539 482.779 272.538 481.77V430.786C272.539 429.777 272.941 428.81 273.654 428.096C274.368 427.383 275.335 426.981 276.344 426.98H481.881C482.89 426.981 483.857 427.383 484.571 428.096C485.284 428.81 485.686 429.777 485.687 430.786V481.771C485.685 482.78 485.284 483.747 484.57 484.46C483.857 485.173 482.89 485.575 481.881 485.576ZM276.344 428.502C275.738 428.502 275.158 428.743 274.73 429.172C274.301 429.6 274.061 430.18 274.06 430.786V481.771C274.061 482.377 274.301 482.957 274.73 483.385C275.158 483.814 275.738 484.054 276.344 484.055H481.881C482.487 484.054 483.067 483.814 483.496 483.385C483.924 482.957 484.165 482.377 484.165 481.771V430.786C484.165 430.18 483.924 429.6 483.496 429.172C483.067 428.743 482.487 428.502 481.881 428.502H276.344Z" fill="#E6E6E6"/>
<path d="M339.908 445.617C339.201 445.617 338.524 445.898 338.024 446.397C337.524 446.897 337.244 447.575 337.244 448.281C337.244 448.988 337.524 449.666 338.024 450.166C338.524 450.665 339.201 450.946 339.908 450.946H465.513C466.21 450.942 466.877 450.665 467.372 450.175C467.868 449.686 468.151 449.021 468.163 448.325C468.174 447.628 467.912 446.955 467.433 446.449C466.954 445.943 466.296 445.645 465.6 445.618H339.908V445.617Z" fill="#E6E6E6"/>
<path d="M339.908 461.605C339.201 461.605 338.524 461.886 338.024 462.385C337.524 462.885 337.244 463.563 337.244 464.269C337.244 464.976 337.524 465.654 338.024 466.154C338.524 466.653 339.201 466.934 339.908 466.934H465.513C466.21 466.93 466.877 466.653 467.372 466.164C467.868 465.674 468.151 465.009 468.163 464.313C468.174 463.616 467.912 462.943 467.433 462.437C466.954 461.931 466.296 461.633 465.6 461.606H339.908V461.605Z" fill="#E6E6E6"/>
<path d="M481.881 570.834H276.344C275.335 570.833 274.368 570.432 273.654 569.718C272.94 569.005 272.539 568.037 272.538 567.028V516.044C272.539 515.035 272.941 514.068 273.654 513.354C274.368 512.641 275.335 512.239 276.344 512.238H481.881C482.89 512.239 483.857 512.641 484.571 513.354C485.284 514.068 485.686 515.035 485.687 516.044V567.029C485.686 568.038 485.284 569.005 484.571 569.719C483.857 570.432 482.89 570.834 481.881 570.835V570.834ZM276.344 513.76C275.738 513.761 275.158 514.001 274.73 514.43C274.301 514.858 274.061 515.438 274.06 516.044V567.029C274.061 567.635 274.301 568.215 274.73 568.643C275.158 569.072 275.738 569.313 276.344 569.313H481.881C482.487 569.313 483.067 569.072 483.496 568.643C483.924 568.215 484.165 567.635 484.165 567.029V516.044C484.165 515.438 483.924 514.858 483.496 514.43C483.067 514.001 482.487 513.761 481.881 513.76H276.344Z" fill="#E6E6E6"/>
<path d="M339.908 530.878C339.201 530.878 338.524 531.159 338.024 531.658C337.524 532.158 337.244 532.836 337.244 533.542C337.244 534.249 337.524 534.927 338.024 535.427C338.524 535.926 339.201 536.207 339.908 536.207H465.513C465.863 536.22 466.212 536.165 466.54 536.043C466.868 535.922 467.169 535.737 467.426 535.499C467.683 535.261 467.89 534.975 468.036 534.657C468.183 534.339 468.265 533.996 468.278 533.646C468.292 533.296 468.236 532.947 468.115 532.619C467.993 532.291 467.808 531.99 467.57 531.733C467.333 531.476 467.047 531.269 466.729 531.123C466.411 530.976 466.067 530.894 465.717 530.881C465.678 530.879 465.639 530.879 465.6 530.879L339.908 530.878Z" fill="#E6E6E6"/>
<path d="M339.908 546.865C339.201 546.865 338.524 547.146 338.024 547.645C337.524 548.145 337.244 548.823 337.244 549.53C337.244 550.236 337.524 550.914 338.024 551.414C338.524 551.913 339.201 552.194 339.908 552.194H465.513C465.863 552.207 466.212 552.152 466.54 552.03C466.868 551.909 467.169 551.724 467.426 551.486C467.683 551.248 467.89 550.962 468.036 550.644C468.183 550.326 468.265 549.983 468.278 549.633C468.292 549.283 468.236 548.934 468.115 548.606C467.993 548.278 467.808 547.977 467.57 547.72C467.333 547.463 467.047 547.256 466.729 547.11C466.411 546.963 466.067 546.881 465.717 546.868C465.678 546.866 465.639 546.866 465.6 546.866H339.908L339.908 546.865Z" fill="#E6E6E6"/>
<path d="M301.986 386.971C310.815 386.971 317.972 379.814 317.972 370.985C317.972 362.156 310.815 354.999 301.986 354.999C293.157 354.999 286 362.156 286 370.985C286 379.814 293.157 386.971 301.986 386.971Z" fill="#1D5C96"/>
<path d="M294.333 367.999C294.149 367.999 294 369.192 294 370.663C294 372.134 294.149 373.328 294.333 373.328H310.052C310.236 373.352 310.388 372.179 310.391 370.708C310.493 369.792 310.381 368.865 310.063 368H294.333V367.999Z" fill="#E6E6E6"/>
<path d="M301.986 472.264C310.815 472.264 317.972 465.107 317.972 456.278C317.972 447.449 310.815 440.292 301.986 440.292C293.157 440.292 286 447.449 286 456.278C286 465.107 293.157 472.264 301.986 472.264Z" fill="#1D5C96"/>
<path d="M294.333 453.292C294.149 453.292 294 454.485 294 455.956C294 457.427 294.149 458.621 294.333 458.621H310.052C310.236 458.645 310.388 457.472 310.391 456.001C310.493 455.085 310.381 454.158 310.063 453.293L294.333 453.292Z" fill="#E6E6E6"/>
<path d="M301.986 557.522C310.815 557.522 317.972 550.365 317.972 541.536C317.972 532.707 310.815 525.55 301.986 525.55C293.157 525.55 286 532.707 286 541.536C286 550.365 293.157 557.522 301.986 557.522Z" fill="#1D5C96"/>
<path d="M294.333 538.55C294.149 538.55 294 539.743 294 541.214C294 542.685 294.149 543.879 294.333 543.879H310.052C310.236 543.903 310.388 542.73 310.391 541.259C310.493 540.343 310.381 539.416 310.063 538.551L294.333 538.55Z" fill="#E6E6E6"/>
<path d="M355.705 173.613L350.048 179.269L397.424 226.646L403.081 220.989L355.705 173.613Z" fill="white"/>
<path d="M403.082 179.269L397.425 173.613L350.049 220.989L355.706 226.646L403.082 179.269Z" fill="white"/>
<path d="M21.2591 456.135C22.645 455.644 23.9064 454.856 24.9546 453.825C26.0028 452.795 26.8122 451.546 27.3259 450.169C27.8396 448.792 28.045 447.318 27.9277 445.853C27.8104 444.388 27.3731 442.966 26.6469 441.688L50.2121 414.824L31.8166 412.286L12.2589 438.185C10.1926 439.548 8.69776 441.621 8.05774 444.012C7.41772 446.403 7.67699 448.945 8.78638 451.158C9.89577 453.37 11.7782 455.099 14.077 456.016C16.3758 456.934 18.9313 456.976 21.2591 456.135Z" fill="#9F616A"/>
<path d="M49.6788 694.215L33.2438 694.214L25.4248 630.82L49.6818 630.821L49.6788 694.215Z" fill="#9F616A"/>
<path d="M53.8707 710.147L0.875977 710.145V709.474C0.876358 704.004 3.04967 698.758 6.91791 694.889C10.7861 691.021 16.0325 688.848 21.503 688.848H21.5043L53.8717 688.849L53.8707 710.147Z" fill="#2F2E41"/>
<path d="M135.713 680.461L120.017 685.334L93.751 627.11L116.917 619.918L135.713 680.461Z" fill="#9F616A"/>
<path d="M144.44 694.433L93.8289 710.147L93.6301 709.506C92.0082 704.282 92.528 698.627 95.0752 693.786C97.6224 688.945 101.988 685.313 107.213 683.691L107.214 683.69L138.126 674.093L144.44 694.433Z" fill="#2F2E41"/>
<path d="M37.0931 401.943L12.752 429.82L31.8081 431.535L37.0931 401.943Z" fill="#E6E6E6"/>
<path d="M27.582 437.876C27.582 437.876 19.127 442.103 18.07 461.127C17.013 480.151 21.241 529.827 21.241 529.827C21.241 529.827 17.014 552.021 21.241 572.101C25.468 592.181 17.014 665.101 22.298 665.101C27.582 665.101 55.06 668.272 56.117 665.101C57.174 661.93 58.231 614.372 58.231 614.372C58.231 614.372 66.686 590.064 58.231 575.272C58.231 575.272 87.7519 626.82 106.846 666.161C111.025 674.771 142.779 665.104 137.495 655.592C132.211 646.08 119.529 602.749 119.529 602.749C119.529 602.749 110.017 571.043 93.108 557.304L101.563 489.665C101.563 489.665 119.53 444.22 108.963 437.879C98.396 431.538 27.582 437.876 27.582 437.876Z" fill="#2F2E41"/>
<path d="M59.2871 265.607C74.4628 265.607 86.7651 253.305 86.7651 238.129C86.7651 222.953 74.4628 210.651 59.2871 210.651C44.1114 210.651 31.8091 222.953 31.8091 238.129C31.8091 253.305 44.1114 265.607 59.2871 265.607Z" fill="#A0616A"/>
<path d="M89.936 267.721L55.776 287.801C55.776 287.801 42.696 295.167 37.81 307.881C32.602 321.431 35.629 340.509 37.81 344.871C42.037 353.326 36.037 374.463 36.037 374.463L30.753 423.078C30.753 423.078 11.73 441.044 26.526 443.158C41.322 445.272 67.743 442.101 83.596 443.158C99.449 444.215 117.415 446.329 112.131 435.758C106.847 425.187 100.506 417.791 106.847 396.658C111.809 380.118 111.594 318.275 111.266 292.158C111.221 288.571 110.259 285.056 108.472 281.946C106.684 278.836 104.131 276.235 101.055 274.391L89.936 267.721Z" fill="#E5E5E5"/>
<path opacity="0.1" d="M74.6161 301.013L77.7861 365.481L47.0601 427.704L41.8491 425.721L73.5551 367.594L74.6161 301.013Z" fill="black"/>
<path opacity="0.1" d="M109.488 379.219V371.819L73.5591 431.005L109.488 379.219Z" fill="black"/>
<path d="M39.785 212.674L35.246 210.858C35.246 210.858 44.746 200.401 57.959 201.31L54.242 197.218C54.242 197.218 63.327 193.581 71.587 203.128C75.929 208.147 80.952 214.047 84.087 220.692H88.952L86.922 225.163L94.028 229.634L86.734 228.834C87.4249 232.694 87.1884 236.663 86.044 240.413L86.244 243.947C86.244 243.947 77.785 230.858 77.785 229.042V233.589C77.785 233.589 73.242 229.497 73.242 226.769L70.764 229.952L69.525 224.952L54.245 229.952L56.721 225.858L47.221 227.222L50.938 222.222C50.938 222.222 40.201 228.132 39.788 233.134C39.375 238.136 34.007 244.5 34.007 244.5L31.529 239.953C31.529 239.953 27.813 219.494 39.785 212.674Z" fill="#2F2E41"/>
<path d="M57.5627 459.125C58.8395 458.397 59.941 457.397 60.7896 456.196C61.6382 454.996 62.2132 453.624 62.4742 452.177C62.7353 450.731 62.6759 449.244 62.3003 447.823C61.9248 446.402 61.2421 445.08 60.3005 443.951L78.7232 413.331L60.1693 414.099L45.5194 443.058C43.7277 444.766 42.6246 447.071 42.4192 449.538C42.2137 452.004 42.9202 454.461 44.4047 456.441C45.8892 458.422 48.0486 459.789 50.4737 460.283C52.8988 460.778 55.4211 460.366 57.5627 459.125Z" fill="#9F616A"/>
<path d="M99.449 281.462L107.375 279.877C107.375 279.877 131.154 297.315 123.756 332.191C116.358 367.067 83.596 419.91 83.596 419.91C83.596 419.91 76.196 429.422 74.084 431.535C71.972 433.648 67.743 431.535 69.857 434.706C71.971 437.877 66.686 439.99 66.686 439.99C66.686 439.99 43.435 439.99 45.549 431.535C47.663 423.08 83.596 362.835 83.596 362.835L78.312 306.822C78.312 306.822 74.083 279.348 99.449 281.462Z" fill="#E5E5E5"/>
</svg>
