<svg width="324" height="248" viewBox="0 0 324 248" fill="none" xmlns="http://www.w3.org/2000/svg">
<g clip-path="url(#clip0_726_169)">
<path d="M296.935 177.69L307.063 176.544C309.257 171.67 310.227 166.336 309.887 161.003C304.382 168.751 292.736 168.627 284.997 174.154C282.597 175.896 280.62 178.155 279.213 180.764C277.806 183.372 277.005 186.263 276.87 189.223L273.526 195.62C278.289 196.14 283.108 195.624 287.651 194.106C292.195 192.588 296.355 190.106 299.844 186.829C301.784 184.971 303.481 182.877 304.896 180.596C300.911 179.391 296.935 177.69 296.935 177.69Z" fill="#FBFBFB"/>
<path d="M289.225 163.132L297.777 157.598C297.564 152.259 296.048 147.053 293.362 142.431C291.896 151.816 281.417 156.89 276.96 165.282C275.59 167.91 274.83 170.812 274.736 173.773C274.642 176.734 275.217 179.678 276.418 182.387L276.283 189.601C280.779 187.947 284.861 185.339 288.25 181.958C291.638 178.577 294.252 174.503 295.912 170.017C296.817 167.49 297.401 164.861 297.649 162.189C293.544 162.885 289.225 163.132 289.225 163.132Z" fill="#FBFBFB"/>
<path d="M252.098 230.861C269.047 230.861 282.786 217.146 282.786 200.228C282.786 183.309 269.047 169.594 252.098 169.594C235.149 169.594 221.409 183.309 221.409 200.228C221.409 217.146 235.149 230.861 252.098 230.861Z" fill="white"/>
<path d="M252.098 231.235C245.954 231.235 239.948 229.417 234.84 226.01C229.731 222.603 225.75 217.76 223.399 212.094C221.048 206.428 220.433 200.194 221.631 194.179C222.83 188.164 225.788 182.639 230.133 178.303C234.477 173.966 240.012 171.013 246.037 169.817C252.063 168.62 258.309 169.234 263.985 171.581C269.661 173.928 274.513 177.902 277.926 183.001C281.339 188.1 283.161 194.095 283.161 200.228C283.152 208.449 279.876 216.33 274.052 222.143C268.229 227.956 260.333 231.226 252.098 231.235ZM252.098 169.969C246.102 169.969 240.241 171.743 235.256 175.068C230.271 178.393 226.386 183.119 224.091 188.648C221.797 194.177 221.196 200.262 222.366 206.131C223.536 212.001 226.423 217.393 230.662 221.625C234.902 225.856 240.303 228.738 246.184 229.906C252.064 231.073 258.159 230.474 263.698 228.184C269.238 225.894 273.972 222.015 277.303 217.039C280.634 212.063 282.412 206.213 282.412 200.228C282.403 192.205 279.206 184.514 273.523 178.841C267.84 173.169 260.135 169.978 252.098 169.969Z" fill="#7DB0DE"/>
<path d="M249.8 212.471C249.735 212.471 249.669 212.468 249.604 212.465C249.026 212.437 248.461 212.285 247.947 212.019C247.434 211.752 246.984 211.378 246.629 210.922L241.5 204.341C241.176 203.925 240.938 203.45 240.798 202.943C240.658 202.435 240.619 201.905 240.685 201.383C240.75 200.86 240.918 200.356 241.179 199.898C241.439 199.441 241.788 199.039 242.204 198.716L242.388 198.573C242.805 198.249 243.281 198.011 243.789 197.871C244.298 197.731 244.829 197.693 245.352 197.758C245.876 197.823 246.381 197.991 246.84 198.251C247.298 198.512 247.701 198.86 248.024 199.276C248.284 199.608 248.611 199.88 248.986 200.074C249.36 200.268 249.771 200.379 250.192 200.399C250.614 200.419 251.034 200.349 251.425 200.192C251.817 200.036 252.169 199.796 252.46 199.491L262.873 188.518C263.606 187.747 264.615 187.298 265.679 187.269C266.743 187.24 267.776 187.634 268.55 188.364L268.72 188.526C269.103 188.888 269.411 189.322 269.626 189.802C269.841 190.283 269.959 190.801 269.973 191.327C269.987 191.854 269.897 192.378 269.709 192.869C269.52 193.361 269.236 193.81 268.874 194.192L252.714 211.219C252.339 211.614 251.887 211.929 251.386 212.144C250.885 212.36 250.345 212.471 249.8 212.471Z" fill="#7DB0DE"/>
<path d="M236.044 239.375L231.787 239.848L227.755 223.366L234.036 222.667L236.044 239.375Z" fill="#FFB8B8"/>
<path d="M264.084 165.273C263.952 165.141 263.808 165.014 263.666 164.892C262.567 163.983 261.42 163.134 260.228 162.351C258.879 161.454 257.362 160.539 255.646 159.593C254.815 159.135 253.937 158.668 253.012 158.191C252.548 157.952 252.072 157.711 251.581 157.468C251.561 157.456 251.539 157.445 251.517 157.435L251.375 157.363L241.046 165.874L240.313 166.449L242.215 168.791C242.215 168.791 242.05 170.653 242.054 170.654L240.165 175.359L240.144 175.368L233.415 178.434L226.48 181.594L222.756 183.292C221.892 183.685 221.116 184.245 220.471 184.941C219.826 185.636 219.327 186.452 219.001 187.342C218.659 188.266 218.504 189.249 218.546 190.234C218.588 191.218 218.826 192.185 219.246 193.076C219.33 193.258 219.423 193.44 219.522 193.615L221.07 203.329C221.994 209.139 223.792 214.776 226.402 220.05L228.766 229.142L229.125 228.963L234.471 226.29L235.883 225.585L236.15 219.476C236.18 218.779 236.185 218.079 236.16 217.38C236.123 216.237 236.014 215.097 235.832 213.967L232.767 194.915C233.311 194.694 233.847 194.472 234.376 194.248C236.83 193.224 239.152 192.188 241.344 191.141C248.472 187.74 254.28 184.21 259.025 180.386C260.358 179.313 261.608 178.215 262.776 177.092C263.206 176.681 263.624 176.267 264.03 175.849C264.127 175.752 264.221 175.656 264.314 175.559C265.149 174.683 265.752 173.613 266.066 172.445C266.38 171.278 266.395 170.05 266.111 168.875C265.793 167.506 265.09 166.256 264.084 165.273Z" fill="#12395D"/>
<path d="M235.697 236.49L231.09 236.998L230.367 237.077L230.837 239.808L225.483 245.029C225.218 245.287 225.043 245.623 224.983 245.987C224.923 246.352 224.981 246.726 225.149 247.055C225.317 247.384 225.586 247.651 225.916 247.816C226.247 247.982 226.622 248.038 226.987 247.975L234.591 246.675L235.437 243.75L236.412 246.364L239.276 245.874L236.817 236.367L235.697 236.49Z" fill="#12395D"/>
<path d="M240.082 141.92L244.027 137.744L238.462 125.59L237.634 121.321C237.527 120.766 237.275 120.25 236.905 119.822C236.535 119.395 236.058 119.072 235.524 118.887C234.99 118.701 234.416 118.658 233.86 118.763C233.303 118.867 232.785 119.116 232.355 119.484C231.718 120.028 231.318 120.799 231.24 121.632C231.161 122.466 231.41 123.297 231.934 123.951L235.007 127.785L240.082 141.92Z" fill="#FFB8B8"/>
<path d="M244.027 135.874L239.531 140.362L240.391 146.923C240.665 147.78 241.156 148.551 241.816 149.163C242.477 149.774 243.284 150.205 244.16 150.413C245.241 150.67 246.375 150.577 247.399 150.147C248.423 149.717 249.283 148.972 249.854 148.022L259.967 130.719C260.684 129.527 260.905 128.102 260.583 126.749C260.262 125.396 259.423 124.222 258.246 123.478C257.613 123.078 256.903 122.816 256.162 122.708C255.421 122.6 254.665 122.649 253.944 122.852C253.223 123.054 252.552 123.407 251.977 123.885C251.401 124.364 250.933 124.958 250.602 125.629L244.43 138.758L244.027 135.874Z" fill="#E6E6E6"/>
<path d="M239.498 202.099C239.265 202.335 239.032 202.569 238.797 202.803C238.328 203.27 237.852 203.733 237.375 204.19C237.136 204.419 236.893 204.649 236.653 204.875L236.654 204.884L236.639 204.89L236.634 204.894L236.234 205.101L235.238 203.637L234.779 202.963L234.131 202.009L232.942 200.262L226.684 191.067L232.296 188.175L232.738 189.034L232.741 189.033L232.96 189.459L237.064 197.397L237.902 199.02L237.928 199.069L238.432 200.038L238.867 200.878L239.351 201.817L239.498 202.099Z" fill="#FFB8B8"/>
<path d="M238.338 199.119L234.431 201.609L233.818 201.999L235.449 204.241L232.961 211.287C232.837 211.635 232.829 212.014 232.936 212.367C233.044 212.721 233.262 213.031 233.558 213.252C233.855 213.473 234.214 213.593 234.584 213.596C234.954 213.598 235.315 213.483 235.615 213.266L241.858 208.743L241.321 205.746L243.354 207.659L245.706 205.956L239.288 198.515L238.338 199.119Z" fill="#12395D"/>
<path d="M102.686 61.2357L105.677 51.5101C102.078 47.5556 97.5657 44.538 92.5326 42.7192C97.4499 50.8511 92.685 61.4592 94.6706 70.7485C95.3121 73.641 96.5975 76.3523 98.4315 78.6816C100.266 81.0108 102.601 82.8982 105.265 84.2039L109.805 89.8189C112.185 85.6682 113.635 81.0518 114.056 76.2878C114.477 71.5238 113.857 66.7254 112.241 62.2232C111.31 59.7064 110.064 57.3168 108.534 55.1107C105.836 58.2766 102.686 61.2357 102.686 61.2357Z" fill="#FBFBFB"/>
<path d="M86.2358 62.4786L84.5682 52.442C79.5796 50.505 74.1928 49.8128 68.8754 50.4256C76.9098 55.5148 77.3846 67.1307 83.3121 74.5611C85.1787 76.8645 87.5405 78.719 90.2227 79.9873C92.9049 81.2556 95.8386 81.9052 98.8065 81.8879L105.379 84.8924C105.654 80.1179 104.89 75.3404 103.138 70.8892C101.386 66.438 98.6876 62.4188 95.2296 59.1086C93.2712 57.2708 91.0888 55.6864 88.7338 54.393C87.7336 58.4276 86.2358 62.4786 86.2358 62.4786Z" fill="#FBFBFB"/>
<path d="M143.494 33.0024L146.566 29.1685C147.09 28.5148 147.339 27.6835 147.261 26.8501C147.182 26.0166 146.782 25.2462 146.146 24.7014C145.716 24.3337 145.197 24.0851 144.641 23.9803C144.085 23.8755 143.511 23.9183 142.976 24.1043C142.442 24.2903 141.966 24.613 141.596 25.0402C141.225 25.4674 140.974 25.9841 140.866 26.5388L140.039 30.8078L136.898 39.2728L140.667 41.1539L143.494 33.0024Z" fill="#FFB8B8"/>
<path d="M134.071 43.9753L127.898 30.8465C127.568 30.1754 127.1 29.5813 126.524 29.1028C125.948 28.6243 125.278 28.2722 124.557 28.0693C123.836 27.8665 123.08 27.8175 122.339 27.9255C121.597 28.0335 120.887 28.2961 120.254 28.6962C119.077 29.4402 118.239 30.6139 117.917 31.9668C117.596 33.3197 117.817 34.7445 118.534 35.9367L128.647 53.2394C129.218 54.1901 130.078 54.9344 131.102 55.3644C132.125 55.7944 133.26 55.8878 134.34 55.631C135.216 55.4227 136.024 54.992 136.684 54.3806C137.345 53.7691 137.836 52.9978 138.109 52.1412L141.923 40.2131L136.898 37.7049L134.071 43.9753Z" fill="#12395D"/>
<path d="M145.718 39.75L141.674 39.4115C141.04 39.3577 140.452 39.0547 140.041 38.5691C139.63 38.0835 139.428 37.4548 139.481 36.8211L141.037 18.3003C141.09 17.6667 141.394 17.0804 141.881 16.6699C142.367 16.2594 142.997 16.0583 143.632 16.1107L147.675 16.4492C148.31 16.503 148.898 16.806 149.309 17.2916C149.72 17.7772 149.922 18.4059 149.869 19.0396L148.313 37.5604C148.259 38.194 147.956 38.7804 147.469 39.1909C146.983 39.6013 146.353 39.8024 145.718 39.75Z" fill="#7DB0DE"/>
<path d="M143.079 17.0156C142.737 16.9874 142.398 17.0958 142.136 17.317C141.873 17.5382 141.71 17.8542 141.681 18.1956L140.125 36.7164C140.097 37.0579 140.205 37.3966 140.427 37.6583C140.648 37.92 140.965 38.0833 141.307 38.1123L145.351 38.4508C145.693 38.479 146.032 38.3707 146.294 38.1494C146.557 37.9282 146.72 37.6123 146.749 37.2708L148.305 18.75C148.333 18.4085 148.225 18.0698 148.003 17.8081C147.782 17.5464 147.465 17.3831 147.123 17.3541L143.079 17.0156Z" fill="#7DB0DE"/>
<path d="M134.806 56.4204H117.982V73.2139H134.806V56.4204Z" fill="#FFB8B8"/>
<path d="M138.078 54.9839C138.576 54.9839 138.979 54.5811 138.979 54.0842C138.979 53.5874 138.576 53.1846 138.078 53.1846C137.58 53.1846 137.177 53.5874 137.177 54.0842C137.177 54.5811 137.58 54.9839 138.078 54.9839Z" fill="#12395D"/>
<path d="M153.095 127.356L157.582 127.355L159.717 110.079L153.094 110.079L153.095 127.356Z" fill="#FFB6B6"/>
<path d="M151.982 125.146L159.075 124.724V127.757L165.819 132.406C166.152 132.636 166.403 132.966 166.535 133.348C166.667 133.73 166.673 134.144 166.553 134.529C166.432 134.915 166.191 135.252 165.865 135.492C165.539 135.731 165.145 135.86 164.74 135.86H156.296L154.84 132.86L154.272 135.86H151.088L151.982 125.146Z" fill="#12395D"/>
<path d="M119.794 139.689L123.641 141.994L134.379 128.277L128.7 124.875L119.794 139.689Z" fill="#FFB6B6"/>
<path d="M119.979 137.223L126.279 140.504L124.714 143.105L128.1 150.556C128.267 150.924 128.312 151.335 128.228 151.731C128.144 152.126 127.936 152.484 127.634 152.753C127.332 153.022 126.951 153.187 126.548 153.225C126.145 153.263 125.741 153.171 125.394 152.963L118.153 148.625L118.452 145.304L116.418 147.585L113.688 145.95L119.979 137.223Z" fill="#12395D"/>
<path d="M29.5686 138.185C29.5243 138.185 29.48 138.184 29.4353 138.183C28.9137 138.164 28.4044 138.019 27.9508 137.762C27.4971 137.504 27.1125 137.141 26.8296 136.703C24.7109 133.542 22.1108 130.731 19.1232 128.371C17.3147 126.928 15.4248 125.586 13.5972 124.288C8.88231 120.942 4.44207 117.79 1.97728 113.435C-3.39669 103.939 2.93195 90.7123 11.973 84.7805C22.1138 78.1277 35.4524 77.0841 48.356 76.9474C49.6971 76.9332 51.0389 76.9262 52.3816 76.9263C75.6311 76.9352 98.8317 79.0527 121.697 83.2528C129.301 84.6531 137.259 86.3684 143.655 90.5313C150.013 94.6695 153.877 101.186 153.5 107.134C152.95 115.817 143.729 122.304 135.332 124C127.329 125.616 119.015 124.524 110.214 123.368C108.271 123.113 106.262 122.849 104.275 122.62C82.6824 120.129 42.1199 127.807 40.4038 128.135L38.7013 128.461L32.0953 136.946C31.7982 137.333 31.4156 137.646 30.9773 137.861C30.539 138.076 30.0569 138.187 29.5686 138.185Z" fill="#7DB0DE"/>
<path d="M125.722 95.8285H34.4582C33.9316 95.8285 33.4265 95.6196 33.0541 95.2479C32.6817 94.8762 32.4725 94.372 32.4725 93.8464C32.4725 93.3207 32.6817 92.8165 33.0541 92.4448C33.4265 92.0731 33.9316 91.8643 34.4582 91.8643H125.722C126.248 91.8643 126.753 92.0731 127.126 92.4448C127.498 92.8165 127.707 93.3207 127.707 93.8464C127.707 94.372 127.498 94.8762 127.126 95.2479C126.753 95.6196 126.248 95.8285 125.722 95.8285Z" fill="white"/>
<path d="M125.722 107.994H34.4582C34.1973 107.995 33.9389 107.944 33.6976 107.845C33.4564 107.746 33.2371 107.6 33.0524 107.416C32.8676 107.232 32.721 107.014 32.6208 106.773C32.5207 106.533 32.469 106.275 32.4687 106.014C32.4684 105.754 32.5196 105.496 32.6192 105.255C32.7189 105.015 32.8651 104.796 33.0494 104.612C33.2338 104.427 33.4528 104.281 33.6938 104.181C33.9348 104.082 34.1932 104.03 34.4541 104.03H125.722C126.248 104.031 126.752 104.24 127.124 104.612C127.496 104.983 127.705 105.487 127.705 106.012C127.705 106.538 127.496 107.041 127.124 107.413C126.752 107.785 126.248 107.994 125.722 107.994Z" fill="white"/>
<path d="M45.0936 120.16H34.4582C33.9321 120.16 33.4277 119.951 33.0559 119.579C32.6841 119.207 32.4753 118.704 32.4753 118.178C32.4753 117.653 32.6841 117.149 33.0559 116.778C33.4277 116.406 33.9321 116.197 34.4582 116.196H45.0936C45.6198 116.197 46.1242 116.406 46.496 116.778C46.8678 117.149 47.0766 117.653 47.0766 118.178C47.0766 118.704 46.8678 119.207 46.496 119.579C46.1242 119.951 45.6198 120.16 45.0936 120.16Z" fill="white"/>
<path d="M135.402 68.4059L117.414 66.2632L117.932 69.6673C117.932 69.6673 105.752 79.4642 114.09 90.2735L118.115 94.1923L117.744 96.0338H120.33L120.607 98.2557L131.727 107.444L132.366 109.324H134.197L133.302 111.461L125.046 130.628L131.886 133.812L144.483 109.705L141.257 102.44L129.648 87.7745L147.628 94.8633L147.934 96.4193L149.587 96.1068L149.268 98.3971L152.776 116.416L160.207 115.432L159.443 93.0107C159.386 91.7851 159.005 90.5965 158.338 89.5656C157.672 88.5347 156.744 87.6982 155.649 87.1411C151.839 85.188 137.767 79.7612 137.767 79.7612L135.402 68.4059Z" fill="#12395D"/>
<path d="M128.197 29.1307L124.81 24.7857L119.98 24.5767L119.498 28.6632L117.104 29.7648C114.714 38.828 114.345 48.3041 116.023 57.5251C116.344 57.8266 116.578 58.208 116.702 58.6301C116.826 59.0522 116.835 59.4996 116.727 59.9261L116.572 60.5436L116.587 60.5662C117.096 61.3684 117.269 62.3384 117.068 63.2667L112.692 71.0277C121.984 74.8081 128.796 67.7582 135.106 58.5193L139.012 45.0245L128.197 29.1307Z" fill="#7DB0DE"/>
<path d="M138.377 54.114L139.289 45.0095L127.182 27.1191L126.684 27.4546L138.669 45.1658L137.779 54.0541L138.377 54.114Z" fill="#12395D"/>
<path d="M125.047 24.429C129.979 24.429 133.978 20.4375 133.978 15.5138C133.978 10.5901 129.979 6.59863 125.047 6.59863C120.114 6.59863 116.115 10.5901 116.115 15.5138C116.115 20.4375 120.114 24.429 125.047 24.429Z" fill="#FFB8B8"/>
<path d="M126.195 4.64091L125.074 4.6764L124.694 4.68846L120.429 4.82355C116.648 4.94328 113.693 8.48186 113.828 12.7272C111.066 15.6767 112.036 19.2315 114.422 23.0159C118.523 23.3938 122.552 24.3339 126.396 25.8097L126.861 23.4984L128.019 26.4863C128.978 26.9131 129.93 27.3828 130.875 27.8954C129.631 22.8489 129.024 17.794 129.642 13.8328L131.595 13.771L131.527 11.6374L132.258 13.75L135.799 13.6378C135.76 12.4176 135.481 11.217 134.978 10.1045C134.474 8.99194 133.756 7.98934 132.864 7.1539C131.972 6.31846 130.924 5.66653 129.78 5.23535C128.636 4.80417 127.418 4.60218 126.195 4.64091Z" fill="#12395D"/>
<path d="M118.484 8.39676C120.807 8.39676 122.69 6.51708 122.69 4.19838C122.69 1.87968 120.807 0 118.484 0C116.161 0 114.278 1.87968 114.278 4.19838C114.278 6.51708 116.161 8.39676 118.484 8.39676Z" fill="#12395D"/>
<path d="M146.116 37.4902L149.189 33.6563C149.713 33.0026 149.962 32.1713 149.883 31.3379C149.805 30.5044 149.405 29.734 148.768 29.1892C148.339 28.8215 147.82 28.5729 147.264 28.4681C146.707 28.3633 146.134 28.4061 145.599 28.5921C145.065 28.7781 144.589 29.1008 144.218 29.528C143.848 29.9552 143.597 30.4719 143.489 31.0266L142.661 35.2955L139.52 43.7605L143.289 45.6416L146.116 37.4902Z" fill="#FFB8B8"/>
<path d="M136.694 48.4636L130.521 35.3348C130.191 34.6637 129.722 34.0696 129.147 33.5911C128.571 33.1126 127.901 32.7605 127.18 32.5576C126.458 32.3548 125.703 32.3058 124.961 32.4138C124.22 32.5218 123.51 32.7844 122.877 33.1845C121.7 33.9284 120.861 35.1022 120.54 36.4551C120.218 37.808 120.44 39.2327 121.156 40.425L131.269 57.7277C131.841 58.6783 132.701 59.4226 133.724 59.8526C134.748 60.2827 135.882 60.376 136.963 60.1193C137.839 59.911 138.646 59.4803 139.307 58.8689C139.967 58.2574 140.458 57.486 140.732 56.6295L144.546 44.7013L139.52 42.1932L136.694 48.4636Z" fill="#12395D"/>
<path d="M266.509 172.872C266.12 173.495 265.723 174.115 265.323 174.73C264.579 175.874 263.816 177.002 263.033 178.112C263.033 178.115 263.03 178.115 263.027 178.118C262.57 178.54 262.065 178.908 261.523 179.214C261.5 179.231 261.475 179.242 261.452 179.256C261.053 179.477 260.628 179.647 260.186 179.763C260.027 179.803 259.866 179.843 259.707 179.882C259.134 180.018 258.566 180.134 258.001 180.236C256.997 180.415 256.004 180.542 255.016 180.622C254.937 180.63 254.857 180.636 254.778 180.642C250.717 180.939 246.764 180.46 242.638 179.676C240.6 179.29 238.52 178.829 236.366 178.35C235.663 178.191 234.956 178.036 234.241 177.88C234.187 177.868 234.13 177.854 234.073 177.843C233.052 177.619 232.013 177.398 230.949 177.18C229.61 176.905 230.296 176.889 228.86 176.637C228.86 176.637 232.173 179.995 232.724 181.451C233.337 183.242 233.822 184.658 232.798 187.607L235.979 193.841L224.919 195.713C218.823 183.79 213.951 175.939 216.127 171.314C216.136 171.099 216.153 170.881 216.181 170.666C216.297 169.687 216.607 168.741 217.092 167.883C217.578 167.025 218.23 166.273 219.011 165.669C219.758 165.086 220.615 164.657 221.53 164.407C222.446 164.157 223.402 164.091 224.343 164.213L226.514 164.493L243.35 163.677L244.011 160.986L244.133 160.941L248.012 159.522L261.429 154.613L261.463 154.601L262.346 154.278L262.451 154.448C262.482 154.499 262.513 154.55 262.542 154.601C263.414 156.162 264.124 157.808 264.661 159.513C265.565 162.298 266.309 165.133 266.889 168.002C266.915 168.127 266.937 168.24 266.957 168.342L266.966 168.373C266.974 168.422 266.98 168.453 266.983 168.461C267.292 169.747 267.076 171.317 266.509 172.872Z" fill="#12395D"/>
<path d="M263.678 120.531L263.581 115.163L255.061 114.173L254.167 118.706L245.212 127.106C238.846 134.876 243.472 140.234 243.749 141.03L244.536 150.828L245.032 154.232L243.098 163.547L267.508 168.774C268.29 162.334 267.419 156.349 262.323 151.532L264.898 143.534C266.204 141.446 267.022 139.092 267.293 136.645L267.386 135.809C269.661 128.732 268.313 126.349 263.678 120.531Z" fill="#E6E6E6"/>
<path d="M275.632 103.753C275.638 103.891 275.641 104.03 275.641 104.166C275.638 105.666 275.28 107.145 274.596 108.48C273.912 109.816 272.92 110.971 271.703 111.851C270.486 112.731 269.078 113.312 267.593 113.544C266.108 113.777 264.589 113.656 263.16 113.191L261.409 112.621C261.395 112.616 261.378 112.613 261.364 112.607L258.478 111.667C258.469 111.545 258.47 111.423 258.484 111.301C254.179 109.466 260.13 103.435 261.608 98.9059C261.838 98.2006 253.935 98.7275 254.309 98.1241C254.227 98.0816 254.145 98.0391 254.068 97.9966C255.403 95.8936 257.377 94.2717 259.701 93.3677C262.024 92.4636 264.577 92.3248 266.986 92.9715C267.048 92.9857 267.113 93.0055 267.176 93.0225C272.783 93.1613 275.729 97.0619 275.729 102.127C275.728 102.67 275.696 103.213 275.632 103.753Z" fill="#12395D"/>
<path d="M270.774 105.747C270.022 108.047 268.385 109.954 266.224 111.05C264.063 112.146 261.554 112.34 259.25 111.59C258.989 111.505 258.733 111.409 258.484 111.301C256.386 110.404 254.701 108.756 253.76 106.681C252.818 104.607 252.688 102.255 253.396 100.09C253.62 99.4003 253.927 98.7403 254.309 98.124C255.484 96.2248 257.316 94.8215 259.458 94.1797C261.599 93.5379 263.902 93.7021 265.931 94.6412C267.959 95.5804 269.573 97.2293 270.465 99.2759C271.358 101.322 271.468 103.625 270.774 105.747Z" fill="#FFB8B8"/>
<path d="M261.408 112.621C261.392 112.617 261.377 112.612 261.363 112.606L258.478 111.667C258.47 111.543 253.173 115.044 253.187 114.921C253.27 113.974 259.238 109.359 260.13 108.286C260.707 107.601 261.108 106.785 261.299 105.911C261.489 105.036 261.464 104.128 261.225 103.266C260.986 102.403 260.541 101.611 259.927 100.958C259.313 100.306 258.55 99.8121 257.702 99.5196C257.677 99.5131 257.651 99.5044 257.627 99.4934C257.069 99.2989 256.533 99.1007 256.031 98.9025C255.784 97.874 255.657 98.2143 255.061 97.3429C255.169 98.1358 254.162 98.7342 254.147 99.5345C253.941 99.4411 253.746 99.3438 253.558 99.2466C253.476 99.2017 253.397 99.1605 253.319 99.1194C252.741 98.8513 252.236 98.4486 251.846 97.9451C253.289 93.5207 258.808 89.979 263.24 91.4264L264.915 91.9687C267.027 92.6531 268.782 94.1442 269.797 96.1162C271.018 97.0511 271.993 98.2694 272.637 99.6654C276.301 107.014 269.223 115.126 261.408 112.621Z" fill="#12395D"/>
<path d="M273.527 100.322C275.721 100.322 277.499 98.5465 277.499 96.3563C277.499 94.1661 275.721 92.3906 273.527 92.3906C271.332 92.3906 269.554 94.1661 269.554 96.3563C269.554 98.5465 271.332 100.322 273.527 100.322Z" fill="#12395D"/>
<path d="M324 104.445C323.158 108.266 321.472 111.851 319.066 114.939C316.66 118.027 313.595 120.54 310.092 122.296C309.646 122.517 309.193 122.722 308.736 122.913C308.777 121.063 308.245 119.246 307.211 117.711C307.379 118.956 307.399 120.216 307.271 121.466C307.201 122.182 307.082 122.893 306.915 123.594C303.976 124.561 300.889 125.006 297.796 124.906C297.619 123.534 297.122 122.222 296.346 121.077C296.514 122.322 296.534 123.582 296.406 124.832C293.296 124.58 290.259 123.768 287.44 122.434C285.975 121.739 284.536 120.867 283.592 119.551C282.337 117.797 282.127 115.482 282.434 113.35C282.741 111.214 283.509 109.176 284.045 107.089C284.581 105.002 284.885 102.77 284.255 100.709C283.629 98.6446 281.872 96.8083 279.718 96.6475C278.736 96.5727 277.751 96.8419 276.769 96.7522C275.788 96.6587 274.723 96.0042 274.701 95.0206L275.641 93.4947C276.039 90.8244 277.402 88.1765 279.74 86.8189C282.074 85.4576 285.432 85.7493 287.099 87.8736C288.504 89.6613 288.451 92.1446 288.912 94.3698C289.984 99.5384 294.124 103.697 298.935 105.889C303.749 108.077 309.167 108.537 314.457 108.447C316.271 108.413 318.114 108.316 319.837 107.744C321.565 107.168 323.176 106.061 324 104.445Z" fill="#12395D"/>
<path d="M233.899 128.279L232.343 109.758C232.29 109.124 232.492 108.496 232.903 108.01C233.314 107.524 233.902 107.221 234.536 107.167L238.58 106.829C239.215 106.777 239.845 106.978 240.331 107.388C240.818 107.799 241.121 108.385 241.175 109.019L242.731 127.539C242.784 128.173 242.582 128.802 242.171 129.287C241.76 129.773 241.172 130.076 240.537 130.13L236.494 130.468C235.859 130.521 235.229 130.32 234.743 129.909C234.256 129.499 233.952 128.912 233.899 128.279Z" fill="#7DB0DE"/>
<path d="M235.089 108.073C234.747 108.102 234.43 108.265 234.209 108.527C233.987 108.789 233.878 109.127 233.907 109.469L235.463 127.99C235.492 128.331 235.655 128.647 235.917 128.868C236.18 129.089 236.519 129.198 236.861 129.17L240.905 128.831C241.247 128.802 241.563 128.639 241.785 128.377C242.007 128.115 242.115 127.777 242.087 127.435L240.531 108.914C240.502 108.573 240.338 108.257 240.076 108.036C239.814 107.815 239.475 107.706 239.133 107.734L235.089 108.073Z" fill="#7DB0DE"/>
<path d="M241.907 134.634L245.844 133.134L243.557 124.4L243.157 120.071C243.105 119.508 242.906 118.969 242.58 118.507C242.253 118.046 241.812 117.678 241.298 117.44C240.785 117.202 240.218 117.103 239.654 117.152C239.091 117.201 238.55 117.398 238.086 117.721C237.398 118.2 236.924 118.927 236.763 119.749C236.602 120.571 236.768 121.422 237.224 122.125L239.902 126.243L241.907 134.634Z" fill="#FFB8B8"/>
<path d="M245.999 131.574L240.75 133.574L243.363 145.82C243.551 146.699 243.963 147.516 244.559 148.189C245.156 148.863 245.917 149.371 246.768 149.665C247.818 150.027 248.956 150.046 250.017 149.719C251.078 149.393 252.008 148.737 252.671 147.847L264.449 131.628C265.28 130.512 265.641 129.117 265.455 127.739C265.27 126.361 264.551 125.11 263.454 124.253C262.864 123.793 262.183 123.461 261.456 123.28C260.729 123.1 259.972 123.074 259.235 123.204C258.497 123.335 257.795 123.619 257.175 124.039C256.554 124.458 256.03 125.003 255.634 125.638L248.191 138.093L245.999 131.574Z" fill="#E6E6E6"/>
<path opacity="0.2" d="M241.73 138.166L244.383 148.922L244.934 149.591C245.37 150.121 245.927 150.538 246.558 150.808C247.189 151.078 247.876 151.193 248.561 151.143C249.246 151.093 249.909 150.879 250.494 150.52C251.08 150.161 251.57 149.667 251.924 149.08L260.333 135.124L252.751 145.595C252.326 146.182 251.759 146.652 251.102 146.961C250.445 147.269 249.721 147.407 248.997 147.36C248.272 147.313 247.572 147.083 246.961 146.692C246.349 146.301 245.848 145.762 245.502 145.125L241.73 138.166Z" fill="black"/>
</g>
<defs>
<clipPath id="clip0_726_169">
<rect width="324" height="248" fill="white"/>
</clipPath>
</defs>
</svg>
