<svg width="200" height="200" viewBox="0 0 200 200" fill="none" xmlns="http://www.w3.org/2000/svg">
<g filter="url(#filter0_i_474_240)">
<path d="M134.785 73.7109C135.937 73.7109 137.09 73.75 138.223 73.8086C133.457 48.6719 107.305 29.4531 75.7422 29.4531C40.8203 29.4531 12.5 53.0078 12.5 82.0703C12.5 97.9102 21.0156 112.188 34.3555 121.836C34.9057 122.224 35.3544 122.739 35.6637 123.338C35.9731 123.936 36.1339 124.6 36.1328 125.273C36.1328 125.742 36.0352 126.172 35.918 126.621C34.8437 130.586 33.1445 136.934 33.0664 137.227C32.9297 137.734 32.7344 138.242 32.7344 138.77C32.7344 139.922 33.6719 140.879 34.8437 140.879C35.293 140.879 35.6641 140.703 36.0547 140.488L49.9023 132.5C50.9375 131.895 52.0508 131.523 53.2617 131.523C53.8867 131.523 54.5117 131.621 55.1172 131.797C61.582 133.652 68.5547 134.688 75.7617 134.688C76.9336 134.688 78.0859 134.668 79.2383 134.609C77.8516 130.508 77.1094 126.191 77.1094 121.719C77.1094 95.1953 102.93 73.7109 134.785 73.7109ZM96.8359 56.8164C101.484 56.8164 105.273 60.5859 105.273 65.2344C105.273 69.8828 101.504 73.6523 96.8359 73.6523C92.1875 73.6523 88.3984 69.8828 88.3984 65.2344C88.3984 60.5859 92.1875 56.8164 96.8359 56.8164ZM54.668 73.6523C50.0195 73.6523 46.2305 69.8828 46.2305 65.2344C46.2305 60.5859 50 56.8164 54.668 56.8164C59.3359 56.8164 63.1055 60.5859 63.1055 65.2344C63.1055 69.8828 59.3164 73.6523 54.668 73.6523ZM169.277 154.824C180.391 146.777 187.48 134.902 187.48 121.68C187.48 97.4609 163.887 77.832 134.766 77.832C105.664 77.832 82.0508 97.4609 82.0508 121.68C82.0508 145.898 105.645 165.527 134.766 165.527C140.781 165.527 146.602 164.668 151.973 163.125C152.48 162.969 152.988 162.891 153.516 162.891C154.531 162.891 155.449 163.203 156.309 163.691L167.852 170.332C168.184 170.527 168.496 170.664 168.867 170.664C169.099 170.666 169.328 170.622 169.543 170.535C169.757 170.448 169.953 170.319 170.117 170.156C170.28 169.992 170.409 169.796 170.496 169.582C170.583 169.367 170.627 169.138 170.625 168.906C170.625 168.477 170.449 168.047 170.352 167.617C170.293 167.383 168.867 162.09 167.969 158.77C167.871 158.398 167.793 158.027 167.793 157.656C167.812 156.504 168.398 155.469 169.277 154.824ZM117.227 114.688C113.34 114.688 110.195 111.543 110.195 107.676C110.195 103.809 113.34 100.664 117.227 100.664C121.113 100.664 124.258 103.809 124.258 107.676C124.258 111.543 121.094 114.688 117.227 114.688ZM152.363 114.688C148.477 114.688 145.332 111.543 145.332 107.676C145.332 103.809 148.477 100.664 152.363 100.664C156.25 100.664 159.395 103.809 159.395 107.676C159.385 109.536 158.641 111.317 157.324 112.63C156.007 113.944 154.223 114.683 152.363 114.688Z" fill="#585858"/>
</g>
<defs>
<filter id="filter0_i_474_240" x="12.5" y="29.4531" width="174.98" height="145.211" filterUnits="userSpaceOnUse" color-interpolation-filters="sRGB">
<feFlood flood-opacity="0" result="BackgroundImageFix"/>
<feBlend mode="normal" in="SourceGraphic" in2="BackgroundImageFix" result="shape"/>
<feColorMatrix in="SourceAlpha" type="matrix" values="0 0 0 0 0 0 0 0 0 0 0 0 0 0 0 0 0 0 127 0" result="hardAlpha"/>
<feOffset dy="4"/>
<feGaussianBlur stdDeviation="2"/>
<feComposite in2="hardAlpha" operator="arithmetic" k2="-1" k3="1"/>
<feColorMatrix type="matrix" values="0 0 0 0 0 0 0 0 0 0 0 0 0 0 0 0 0 0 0.21 0"/>
<feBlend mode="normal" in2="shape" result="effect1_innerShadow_474_240"/>
</filter>
</defs>
</svg>
