<svg width="270" height="259" viewBox="0 0 270 259" fill="none" xmlns="http://www.w3.org/2000/svg">
<g clip-path="url(#clip0_726_350)">
<path d="M227.231 61.3874H225.812V22.5043C225.812 16.5358 223.44 10.8118 219.217 6.59137C214.995 2.37099 209.267 2.93557e-09 203.295 2.93557e-09H120.868C117.911 -4.77292e-05 114.983 0.581997 112.251 1.7129C109.519 2.84381 107.037 4.50142 104.946 6.59111C102.855 8.6808 101.196 11.1616 100.065 13.892C98.9331 16.6223 98.3506 19.5487 98.3506 22.504V235.82C98.3506 241.788 100.723 247.512 104.946 251.733C109.168 255.953 114.896 258.324 120.868 258.324H203.294C209.266 258.324 214.994 255.953 219.216 251.733C223.439 247.512 225.811 241.788 225.811 235.82V89.0651H227.23L227.231 61.3874Z" fill="#1D5C96"/>
<path d="M221.194 20.997V237.326C221.193 241.851 219.394 246.191 216.193 249.391C212.992 252.592 208.65 254.39 204.122 254.392H120.004C115.474 254.393 111.13 252.595 107.926 249.395C104.722 246.194 102.922 241.853 102.921 237.326V20.997C102.922 16.4701 104.722 12.1292 107.926 8.92889C111.129 5.7286 115.474 3.93106 120.003 3.93164H130.207C129.706 5.16308 129.515 6.49867 129.652 7.82102C129.788 9.14337 130.247 10.412 130.989 11.5154C131.731 12.6188 132.733 13.5231 133.906 14.149C135.08 14.7749 136.389 15.1031 137.719 15.1048H185.676C187.007 15.1031 188.316 14.7749 189.489 14.149C190.663 13.5231 191.665 12.6188 192.406 11.5154C193.148 10.412 193.608 9.14337 193.744 7.82102C193.88 6.49867 193.69 5.16308 193.189 3.93164H204.119C208.647 3.93241 212.989 5.73016 216.191 8.92966C219.393 12.1292 221.192 16.4685 221.194 20.9937V20.997Z" fill="white"/>
<path d="M162.042 107.84C181.437 107.84 197.16 92.1256 197.16 72.7412C197.16 53.3568 181.437 37.6426 162.042 37.6426C142.646 37.6426 126.923 53.3568 126.923 72.7412C126.923 92.1256 142.646 107.84 162.042 107.84Z" fill="#7DB0DE"/>
<path d="M200.343 145.605H125.594C125.227 145.605 124.875 145.459 124.615 145.199C124.356 144.94 124.21 144.589 124.209 144.222V125.691C124.21 125.324 124.356 124.972 124.615 124.713C124.875 124.454 125.227 124.308 125.594 124.307H200.343C200.71 124.308 201.061 124.454 201.321 124.713C201.58 124.972 201.726 125.324 201.727 125.691V144.222C201.726 144.589 201.58 144.94 201.321 145.2C201.061 145.459 200.71 145.605 200.343 145.605V145.605ZM125.594 124.86C125.373 124.861 125.162 124.948 125.006 125.104C124.851 125.259 124.763 125.47 124.763 125.69V144.222C124.763 144.442 124.851 144.653 125.006 144.809C125.162 144.965 125.373 145.052 125.594 145.052H200.343C200.563 145.052 200.774 144.965 200.93 144.809C201.086 144.653 201.173 144.442 201.173 144.222V125.69C201.173 125.47 201.086 125.259 200.93 125.104C200.774 124.948 200.563 124.861 200.343 124.86H125.594Z" fill="#717171"/>
<path d="M148.71 130.981C148.453 130.981 148.207 131.083 148.025 131.265C147.844 131.446 147.741 131.693 147.741 131.949C147.741 132.206 147.844 132.453 148.025 132.634C148.207 132.816 148.453 132.918 148.71 132.918H194.39C194.647 132.928 194.897 132.835 195.086 132.661C195.274 132.486 195.386 132.244 195.396 131.987C195.406 131.73 195.313 131.48 195.138 131.292C194.964 131.103 194.721 130.992 194.464 130.982C194.45 130.981 194.436 130.981 194.422 130.981L148.71 130.981Z" fill="#717171"/>
<path d="M148.71 136.791C148.453 136.791 148.207 136.893 148.025 137.074C147.844 137.256 147.741 137.502 147.741 137.759C147.741 138.016 147.844 138.262 148.025 138.444C148.207 138.625 148.453 138.727 148.71 138.727H194.39C194.647 138.737 194.897 138.645 195.086 138.47C195.274 138.296 195.386 138.053 195.396 137.797C195.406 137.54 195.313 137.29 195.138 137.101C194.964 136.913 194.721 136.801 194.464 136.792C194.45 136.791 194.436 136.791 194.422 136.791L148.71 136.791Z" fill="#717171"/>
<path d="M200.343 176.493H125.594C125.227 176.493 124.875 176.347 124.615 176.088C124.356 175.828 124.21 175.477 124.209 175.11V156.579C124.21 156.212 124.356 155.86 124.615 155.601C124.875 155.342 125.227 155.196 125.594 155.195H200.343C200.71 155.196 201.061 155.342 201.321 155.601C201.58 155.86 201.726 156.212 201.727 156.579V175.11C201.726 175.477 201.58 175.828 201.321 176.088C201.061 176.347 200.71 176.493 200.343 176.493ZM125.594 155.749C125.373 155.749 125.162 155.836 125.006 155.992C124.851 156.148 124.763 156.359 124.763 156.579V175.11C124.763 175.33 124.851 175.541 125.006 175.697C125.162 175.853 125.373 175.94 125.594 175.94H200.343C200.563 175.94 200.774 175.853 200.93 175.697C201.086 175.541 201.173 175.33 201.173 175.11V156.579C201.173 156.359 201.086 156.148 200.93 155.992C200.774 155.836 200.563 155.749 200.343 155.749H125.594Z" fill="#717171"/>
<path d="M148.71 161.969C148.453 161.969 148.207 162.071 148.025 162.253C147.844 162.435 147.741 162.681 147.741 162.938C147.741 163.195 147.844 163.441 148.025 163.623C148.207 163.804 148.453 163.906 148.71 163.906H194.39C194.643 163.905 194.886 163.804 195.066 163.626C195.246 163.448 195.35 163.207 195.354 162.953C195.358 162.7 195.263 162.455 195.088 162.272C194.914 162.088 194.675 161.979 194.422 161.97H148.71V161.969Z" fill="#717171"/>
<path d="M148.71 167.78C148.453 167.78 148.207 167.882 148.025 168.064C147.844 168.246 147.741 168.492 147.741 168.749C147.741 169.006 147.844 169.252 148.025 169.434C148.207 169.615 148.453 169.717 148.71 169.717H194.39C194.643 169.716 194.886 169.615 195.066 169.437C195.246 169.259 195.35 169.018 195.354 168.764C195.358 168.511 195.263 168.266 195.088 168.083C194.914 167.899 194.675 167.79 194.422 167.781H148.71V167.78Z" fill="#717171"/>
<path d="M200.343 207.482H125.594C125.227 207.482 124.875 207.336 124.615 207.076C124.356 206.817 124.21 206.465 124.209 206.099V187.567C124.21 187.201 124.356 186.849 124.615 186.59C124.875 186.33 125.227 186.185 125.594 186.184H200.343C200.71 186.185 201.061 186.33 201.321 186.59C201.58 186.849 201.726 187.201 201.727 187.567V206.099C201.726 206.466 201.58 206.817 201.321 207.077C201.061 207.336 200.71 207.482 200.343 207.482V207.482ZM125.594 186.737C125.373 186.737 125.162 186.825 125.006 186.981C124.851 187.136 124.763 187.347 124.763 187.567V206.099C124.763 206.319 124.851 206.53 125.006 206.686C125.162 206.842 125.373 206.929 125.594 206.929H200.343C200.563 206.929 200.774 206.842 200.93 206.686C201.086 206.53 201.173 206.319 201.173 206.099V187.567C201.173 187.347 201.086 187.136 200.93 186.981C200.774 186.825 200.563 186.737 200.343 186.737H125.594Z" fill="#717171"/>
<path d="M148.71 192.959C148.453 192.959 148.207 193.061 148.025 193.243C147.844 193.424 147.741 193.671 147.741 193.927C147.741 194.184 147.844 194.431 148.025 194.612C148.207 194.794 148.453 194.896 148.71 194.896H194.39C194.517 194.901 194.644 194.881 194.764 194.836C194.883 194.792 194.992 194.725 195.086 194.639C195.179 194.552 195.255 194.448 195.308 194.333C195.361 194.217 195.391 194.092 195.396 193.965C195.401 193.838 195.38 193.711 195.336 193.592C195.292 193.473 195.225 193.363 195.138 193.27C195.052 193.176 194.948 193.101 194.832 193.048C194.717 192.995 194.592 192.965 194.464 192.96C194.45 192.959 194.436 192.959 194.422 192.959L148.71 192.959Z" fill="#717171"/>
<path d="M148.71 198.77C148.453 198.77 148.207 198.872 148.025 199.054C147.844 199.235 147.741 199.482 147.741 199.739C147.741 199.995 147.844 200.242 148.025 200.423C148.207 200.605 148.453 200.707 148.71 200.707H194.39C194.517 200.712 194.644 200.692 194.764 200.647C194.883 200.603 194.992 200.536 195.086 200.45C195.179 200.363 195.255 200.259 195.308 200.144C195.361 200.028 195.391 199.903 195.396 199.776C195.401 199.649 195.38 199.522 195.336 199.403C195.292 199.284 195.225 199.174 195.138 199.081C195.052 198.987 194.948 198.912 194.832 198.859C194.717 198.806 194.592 198.776 194.464 198.771C194.45 198.771 194.436 198.77 194.422 198.77H148.71L148.71 198.77Z" fill="#717171"/>
<path d="M269.295 259H0.704802C0.315304 259 0 258.83 0 258.62C0 258.41 0.315667 258.24 0.704802 258.24H269.295C269.684 258.24 270 258.41 270 258.62C270 258.83 269.685 259 269.295 259Z" fill="#FBFBFB"/>
<path d="M257.92 244.183C256.773 244.586 255.54 244.687 254.343 244.476C253.145 244.265 252.021 243.75 251.081 242.979C248.685 240.97 247.934 237.659 247.323 234.594L245.516 225.527L249.3 228.131C252.021 230.004 254.804 231.937 256.688 234.649C258.573 237.362 259.395 241.065 257.881 244" fill="#7DB0DE"/>
<path d="M257.336 255.791C257.812 252.323 258.302 248.811 257.968 245.306C257.671 242.192 256.721 239.152 254.786 236.659C253.759 235.338 252.51 234.207 251.094 233.315C250.724 233.082 250.384 233.667 250.752 233.899C253.202 235.446 255.097 237.732 256.164 240.425C257.342 243.421 257.531 246.686 257.328 249.867C257.205 251.791 256.945 253.703 256.683 255.612C256.662 255.698 256.675 255.789 256.719 255.866C256.763 255.944 256.834 256.001 256.919 256.028C257.005 256.051 257.098 256.039 257.175 255.995C257.253 255.951 257.311 255.878 257.335 255.791H257.336Z" fill="#FBFBFB"/>
<path d="M253.907 250.227C253.415 250.974 252.739 251.582 251.943 251.993C251.147 252.403 250.259 252.602 249.365 252.57C247.065 252.461 245.148 250.857 243.422 249.335L238.318 244.83L241.696 244.668C244.125 244.552 246.618 244.444 248.933 245.192C251.249 245.941 253.381 247.743 253.804 250.136" fill="#7DB0DE"/>
<path d="M258.682 257.785C256.39 253.73 253.729 249.223 248.977 247.783C247.655 247.384 246.27 247.241 244.895 247.361C244.461 247.398 244.57 248.067 245.004 248.029C247.309 247.838 249.609 248.446 251.518 249.752C253.355 251.001 254.785 252.738 255.995 254.581C256.737 255.707 257.401 256.885 258.065 258.06C258.276 258.435 258.896 258.165 258.682 257.785Z" fill="#FBFBFB"/>
<path d="M134.919 140.653C138.13 140.653 140.733 138.052 140.733 134.843C140.733 131.634 138.13 129.032 134.919 129.032C131.708 129.032 129.105 131.634 129.105 134.843C129.105 138.052 131.708 140.653 134.919 140.653Z" fill="#7DB0DE"/>
<path d="M132.136 133.757C132.069 133.757 132.015 134.191 132.015 134.726C132.015 135.26 132.069 135.694 132.136 135.694H137.853C137.919 135.703 137.975 135.277 137.976 134.742C138.013 134.409 137.972 134.072 137.857 133.758H132.136V133.757Z" fill="#FBFBFB"/>
<path d="M134.919 171.655C138.13 171.655 140.733 169.053 140.733 165.844C140.733 162.635 138.13 160.034 134.919 160.034C131.708 160.034 129.105 162.635 129.105 165.844C129.105 169.053 131.708 171.655 134.919 171.655Z" fill="#7DB0DE"/>
<path d="M132.136 164.759C132.069 164.759 132.015 165.192 132.015 165.727C132.015 166.262 132.069 166.696 132.136 166.696H137.853C137.919 166.704 137.975 166.278 137.976 165.743C138.013 165.411 137.972 165.074 137.857 164.759L132.136 164.759Z" fill="#FBFBFB"/>
<path d="M134.919 202.643C138.13 202.643 140.733 200.042 140.733 196.833C140.733 193.624 138.13 191.022 134.919 191.022C131.708 191.022 129.105 193.624 129.105 196.833C129.105 200.042 131.708 202.643 134.919 202.643Z" fill="#7DB0DE"/>
<path d="M132.136 195.748C132.069 195.748 132.015 196.181 132.015 196.716C132.015 197.251 132.069 197.684 132.136 197.684H137.853C137.919 197.693 137.975 197.267 137.976 196.732C138.013 196.399 137.972 196.062 137.857 195.748L132.136 195.748Z" fill="#FBFBFB"/>
<path d="M154.456 63.1031L152.398 65.1592L169.628 82.3791L171.685 80.323L154.456 63.1031Z" fill="white"/>
<path d="M171.685 65.1591L169.628 63.103L152.398 80.3229L154.456 82.379L171.685 65.1591Z" fill="white"/>
<path d="M32.8253 165.792C33.3293 165.614 33.788 165.327 34.1692 164.952C34.5504 164.578 34.8448 164.124 35.0316 163.623C35.2184 163.123 35.2931 162.587 35.2505 162.055C35.2078 161.522 35.0488 161.005 34.7847 160.541L43.3548 150.776L36.6648 149.854L29.5521 159.268C28.8006 159.763 28.257 160.516 28.0242 161.385C27.7915 162.254 27.8858 163.179 28.2892 163.983C28.6927 164.787 29.3773 165.415 30.2133 165.749C31.0493 166.082 31.9787 166.097 32.8253 165.792Z" fill="#FFB8B8"/>
<path d="M43.1608 252.327L37.1838 252.327L34.3402 229.285L43.1619 229.286L43.1608 252.327Z" fill="#FFB8B8"/>
<path d="M44.6852 258.118L25.4122 258.117V257.874C25.4124 255.885 26.2028 253.978 27.6095 252.572C29.0163 251.166 30.9243 250.377 32.9138 250.376H32.9143L44.6855 250.377L44.6852 258.118Z" fill="#12395D"/>
<path d="M74.4495 247.328L68.7412 249.1L59.1888 227.937L67.6138 225.323L74.4495 247.328Z" fill="#FFB8B8"/>
<path d="M77.6235 252.407L59.2172 258.118L59.1449 257.885C58.5551 255.986 58.7441 253.931 59.6705 252.171C60.5968 250.412 62.1846 249.092 64.0846 248.502L64.085 248.502L75.3269 245.014L77.6235 252.407Z" fill="#12395D"/>
<path d="M38.5835 146.095L29.7312 156.227L36.6615 156.851L38.5835 146.095Z" fill="#585858"/>
<path d="M35.1246 159.155C35.1246 159.155 32.0497 160.692 31.6653 167.606C31.2809 174.521 32.8185 192.577 32.8185 192.577C32.8185 192.577 31.2813 200.644 32.8185 207.942C34.3558 215.241 31.2813 241.745 33.203 241.745C35.1246 241.745 45.1177 242.898 45.5022 241.745C45.8866 240.593 46.271 223.307 46.271 223.307C46.271 223.307 49.3458 214.471 46.271 209.095C46.271 209.095 57.007 227.831 63.9511 242.13C65.4709 245.26 77.0191 241.746 75.0975 238.289C73.1758 234.832 68.5636 219.082 68.5636 219.082C68.5636 219.082 65.1043 207.558 58.9549 202.564L62.0298 177.979C62.0298 177.979 68.564 161.461 64.721 159.156C60.878 156.852 35.1246 159.155 35.1246 159.155Z" fill="#12395D"/>
<path d="M46.655 96.5404C52.174 96.5404 56.6481 92.0688 56.6481 86.5529C56.6481 81.037 52.174 76.5654 46.655 76.5654C41.1359 76.5654 36.6619 81.037 36.6619 86.5529C36.6619 92.0688 41.1359 96.5404 46.655 96.5404Z" fill="#FFB8B8"/>
<path d="M57.8014 97.3091L45.3782 104.608C45.3782 104.608 40.6213 107.285 38.8444 111.906C36.9503 116.831 38.0512 123.765 38.8444 125.351C40.3816 128.424 38.1996 136.107 38.1996 136.107L36.2779 153.777C36.2779 153.777 29.3597 160.307 34.7406 161.075C40.1216 161.844 49.7303 160.691 55.4957 161.075C61.261 161.46 67.7949 162.228 65.8732 158.386C63.9515 154.543 61.6455 151.855 63.9515 144.174C65.7561 138.162 65.6779 115.684 65.5586 106.191C65.5422 104.888 65.1924 103.61 64.5424 102.48C63.8924 101.349 62.9638 100.404 61.8451 99.7334L57.8014 97.3091Z" fill="#585858"/>
<path opacity="0.1" d="M52.2298 109.41L53.3827 132.842L42.2084 155.458L40.3132 154.737L51.844 133.61L52.2298 109.41Z" fill="black"/>
<path opacity="0.1" d="M64.912 137.835V135.146L51.8455 156.658L64.912 137.835Z" fill="black"/>
<path d="M39.5626 77.3011L37.9119 76.641C37.9119 76.641 41.3668 72.8402 46.1721 73.1706L44.8203 71.6832C44.8203 71.6832 48.1243 70.3613 51.1282 73.8314C52.7073 75.6556 54.5341 77.8001 55.6742 80.2154H57.4435L56.7052 81.8405L59.2895 83.4655L56.6369 83.1748C56.8881 84.5777 56.8021 86.0202 56.3859 87.3834L56.4587 88.6679C56.4587 88.6679 53.3823 83.9104 53.3823 83.2504V84.9031C53.3823 84.9031 51.7301 83.4157 51.7301 82.4242L50.8289 83.5811L50.3783 81.7638L44.8214 83.5811L45.7218 82.0931L42.2669 82.5888L43.6187 80.7715C43.6187 80.7715 39.7139 82.9196 39.5637 84.7377C39.4135 86.5558 37.4613 88.8689 37.4613 88.8689L36.5601 87.2162C36.5601 87.2162 35.2086 79.7799 39.5626 77.3011Z" fill="#12395D"/>
<path d="M46.0279 166.879C46.4922 166.614 46.8928 166.251 47.2014 165.814C47.51 165.378 47.7191 164.879 47.8141 164.353C47.909 163.828 47.8874 163.287 47.7508 162.771C47.6142 162.254 47.366 161.774 47.0235 161.363L53.7234 150.234L46.9758 150.513L41.648 161.039C40.9964 161.66 40.5952 162.498 40.5205 163.394C40.4458 164.291 40.7027 165.183 41.2426 165.903C41.7825 166.623 42.5678 167.12 43.4497 167.3C44.3317 167.48 45.249 167.33 46.0279 166.879Z" fill="#FFB8B8"/>
<path d="M61.261 102.304L64.1435 101.728C64.1435 101.728 72.7914 108.066 70.1009 120.742C67.4104 133.419 55.4956 152.626 55.4956 152.626C55.4956 152.626 52.8044 156.083 52.0363 156.851C51.2682 157.619 49.7302 156.851 50.4991 158.003C51.2679 159.156 49.3458 159.924 49.3458 159.924C49.3458 159.924 40.89 159.924 41.6588 156.851C42.4276 153.778 55.4956 131.88 55.4956 131.88L53.5739 111.521C53.5739 111.521 52.036 101.535 61.261 102.304Z" fill="#585858"/>
</g>
<defs>
<clipPath id="clip0_726_350">
<rect width="270" height="259" fill="white"/>
</clipPath>
</defs>
</svg>
