<svg width="200" height="200" viewBox="0 0 200 200" fill="none" xmlns="http://www.w3.org/2000/svg">
<path d="M22.5 47.5C22.5 42.8587 24.3437 38.4075 27.6256 35.1256C30.9075 31.8437 35.3587 30 40 30C44.6413 30 49.0925 31.8437 52.3744 35.1256C55.6563 38.4075 57.5 42.8587 57.5 47.5C57.5 52.1413 55.6563 56.5925 52.3744 59.8744C49.0925 63.1563 44.6413 65 40 65C35.3587 65 30.9075 63.1563 27.6256 59.8744C24.3437 56.5925 22.5 52.1413 22.5 47.5ZM20 96.7812C16.875 100.281 15 104.938 15 110C15 115.062 16.875 119.719 20 123.219V96.7812ZM65.125 81.375C55.8437 89.5937 50 101.625 50 115C50 125.719 53.75 135.562 60 143.281V150C60 155.531 55.5312 160 50 160H30C24.4688 160 20 155.531 20 150V141.625C8.1875 136 0 123.969 0 110C0 90.6562 15.6562 75 35 75H45C52.5 75 59.4375 77.3438 65.125 81.3438V81.375ZM140 150V143.281C146.25 135.562 150 125.719 150 115C150 101.625 144.156 89.5938 134.875 81.3438C140.562 77.3438 147.5 75 155 75H165C184.344 75 200 90.6562 200 110C200 123.969 191.812 136 180 141.625V150C180 155.531 175.531 160 170 160H150C144.469 160 140 155.531 140 150ZM142.5 47.5C142.5 42.8587 144.344 38.4075 147.626 35.1256C150.908 31.8437 155.359 30 160 30C164.641 30 169.092 31.8437 172.374 35.1256C175.656 38.4075 177.5 42.8587 177.5 47.5C177.5 52.1413 175.656 56.5925 172.374 59.8744C169.092 63.1563 164.641 65 160 65C155.359 65 150.908 63.1563 147.626 59.8744C144.344 56.5925 142.5 52.1413 142.5 47.5ZM180 96.7812V123.25C183.125 119.719 185 115.094 185 110.031C185 104.969 183.125 100.312 180 96.8125V96.7812ZM100 30C105.304 30 110.391 32.1071 114.142 35.8579C117.893 39.6086 120 44.6957 120 50C120 55.3043 117.893 60.3914 114.142 64.1421C110.391 67.8929 105.304 70 100 70C94.6957 70 89.6086 67.8929 85.8579 64.1421C82.1071 60.3914 80 55.3043 80 50C80 44.6957 82.1071 39.6086 85.8579 35.8579C89.6086 32.1071 94.6957 30 100 30ZM75 115C75 120.062 76.875 124.687 80 128.219V101.781C76.875 105.313 75 109.938 75 115ZM120 101.781V128.25C123.125 124.719 125 120.094 125 115.031C125 109.969 123.125 105.312 120 101.812V101.781ZM140 115C140 128.969 131.812 141 120 146.625V160C120 165.531 115.531 170 110 170H90C84.4688 170 80 165.531 80 160V146.625C68.1875 141 60 128.969 60 115C60 95.6562 75.6562 80 95 80H105C124.344 80 140 95.6562 140 115Z" fill="#585858"/>
</svg>
