<svg width="200" height="200" viewBox="0 0 200 200" fill="none" xmlns="http://www.w3.org/2000/svg">
<path d="M99.9999 16.6667C77.0833 16.6667 58.3333 35.4167 58.3333 58.3334V75.0001H74.9999V58.3334C74.9999 44.5834 86.2499 33.3334 99.9999 33.3334C113.75 33.3334 125 44.5834 125 58.3334V75.0001H141.667V58.3334C141.667 35.4167 122.917 16.6667 99.9999 16.6667Z" fill="#262626"/>
<path d="M150 183.333H49.9999C40.8333 183.333 33.3333 175.833 33.3333 166.667V91.6667C33.3333 82.5 40.8333 75 49.9999 75H150C159.167 75 166.667 82.5 166.667 91.6667V166.667C166.667 175.833 159.167 183.333 150 183.333Z" fill="#1D5C96"/>
<path d="M100 154.167C113.807 154.167 125 142.974 125 129.167C125 115.36 113.807 104.167 100 104.167C86.1929 104.167 75 115.36 75 129.167C75 142.974 86.1929 154.167 100 154.167Z" fill="#FBFBFB"/>
<path d="M100 141.667C106.904 141.667 112.5 136.07 112.5 129.167C112.5 122.263 106.904 116.667 100 116.667C93.0964 116.667 87.5 122.263 87.5 129.167C87.5 136.07 93.0964 141.667 100 141.667Z" fill="#12395D"/>
<path d="M108.333 125C110.635 125 112.5 123.135 112.5 120.833C112.5 118.532 110.635 116.667 108.333 116.667C106.032 116.667 104.167 118.532 104.167 120.833C104.167 123.135 106.032 125 108.333 125Z" fill="#FBFBFB"/>
</svg>
