<svg width="288" height="261" viewBox="0 0 288 261" fill="none" xmlns="http://www.w3.org/2000/svg">
<g clip-path="url(#clip0_726_230)">
<path d="M199.019 260.343H117.3C105.044 260.343 95.0718 250.376 95.0718 238.126V22.2165C95.0718 9.96632 105.044 0 117.3 0H199.019C211.276 0 221.248 9.96633 221.248 22.2165C222.769 108.919 225.363 206.012 221.248 238.126C221.248 250.376 211.276 260.343 199.019 260.343Z" fill="#1D5C96"/>
<path d="M222.387 79.4187C221.869 79.4187 221.447 79.8402 221.447 80.3586V110.434C221.447 110.953 221.869 111.374 222.387 111.374C222.906 111.374 223.328 110.953 223.328 110.434V80.3586C223.328 79.8402 222.906 79.4187 222.387 79.4187Z" fill="#12395D"/>
<path d="M219.132 22.2167V238.122C219.132 248.785 210.829 257.507 200.329 258.184H200.325C200.169 258.193 200.014 258.203 199.854 258.207C199.577 258.221 199.3 258.226 199.017 258.226C199.017 258.226 197.983 258.151 196.093 258.01C194.184 257.869 191.405 257.657 187.94 257.38C186.901 257.3 185.805 257.211 184.648 257.117C182.345 256.929 179.815 256.722 177.102 256.487C176.021 256.398 174.901 256.299 173.759 256.201C167.919 255.698 161.379 255.11 154.481 254.443C153.315 254.335 152.14 254.222 150.955 254.105C150.645 254.072 97.188 240.641 97.188 238.122V22.2167C97.188 11.1122 106.192 2.11304 117.303 2.11304H129.311C131.23 2.11304 132.772 3.60742 132.936 5.52005C132.95 5.64694 132.965 5.7738 132.988 5.90069C133.336 7.82273 135.099 9.16202 137.055 9.16202H179.265C181.221 9.16202 182.984 7.82273 183.332 5.90069C183.355 5.7738 183.37 5.64694 183.384 5.52005C183.548 3.60742 185.09 2.11304 187.009 2.11304H199.017C210.128 2.11304 219.132 11.1122 219.132 22.2167Z" fill="#FBFBFB"/>
<path d="M94.6018 56.8618C94.0831 56.8618 93.6614 57.2833 93.6614 57.8017V65.3206C93.6614 65.8389 94.0831 66.2605 94.6018 66.2605C95.1204 66.2605 95.5421 65.8389 95.5421 65.3206V57.8017C95.5421 57.2833 95.1204 56.8618 94.6018 56.8618Z" fill="#12395D"/>
<path d="M94.6018 79.4187C94.0831 79.4187 93.6614 79.8402 93.6614 80.3586V94.9265C93.6614 95.4448 94.0831 95.8663 94.6018 95.8663C95.1204 95.8663 95.5421 95.4448 95.5421 94.9265V80.3586C95.5421 79.8402 95.1204 79.4187 94.6018 79.4187Z" fill="#12395D"/>
<path d="M94.6018 100.096C94.0831 100.096 93.6614 100.517 93.6614 101.036V115.603C93.6614 116.122 94.0831 116.543 94.6018 116.543C95.1204 116.543 95.5421 116.122 95.5421 115.603V101.036C95.5421 100.517 95.1204 100.096 94.6018 100.096Z" fill="#12395D"/>
<path d="M129.002 5.4043H110.981C110.894 5.4043 110.823 5.47505 110.823 5.56234V7.59591C110.823 7.6832 110.894 7.75396 110.981 7.75396H129.002C129.09 7.75396 129.161 7.6832 129.161 7.59591V5.56234C129.161 5.47505 129.09 5.4043 129.002 5.4043Z" fill="#717171"/>
<path d="M189.98 7.75384C191.019 7.75384 191.861 6.91226 191.861 5.87411C191.861 4.83597 191.019 3.99438 189.98 3.99438C188.942 3.99438 188.1 4.83597 188.1 5.87411C188.1 6.91226 188.942 7.75384 189.98 7.75384Z" fill="#717171"/>
<path d="M195.152 7.75384C196.191 7.75384 197.033 6.91226 197.033 5.87411C197.033 4.83597 196.191 3.99438 195.152 3.99438C194.114 3.99438 193.271 4.83597 193.271 5.87411C193.271 6.91226 194.114 7.75384 195.152 7.75384Z" fill="#717171"/>
<path d="M200.324 7.75384C201.363 7.75384 202.205 6.91226 202.205 5.87411C202.205 4.83597 201.363 3.99438 200.324 3.99438C199.286 3.99438 198.444 4.83597 198.444 5.87411C198.444 6.91226 199.286 7.75384 200.324 7.75384Z" fill="#E11D48"/>
<path d="M96.4104 256.412L90.6789 256.411L87.9524 234.316L96.4115 234.317L96.4104 256.412Z" fill="#FFB6B6"/>
<path d="M76.7736 256.282C76.5951 256.582 76.501 257.552 76.501 257.901C76.501 258.975 77.3719 259.845 78.4463 259.845H96.196C96.9289 259.845 97.5231 259.252 97.5231 258.519V257.78C97.5231 257.78 98.4011 255.561 96.5934 252.825C96.5934 252.825 94.3465 254.967 90.9892 251.611L89.9992 249.819L82.8326 255.057L78.8603 255.546C77.9912 255.653 77.2206 255.529 76.7736 256.282Z" fill="#262626"/>
<path d="M64.7147 225.722L58.9832 225.703L56.3269 203.6L64.786 203.627L64.7147 225.722Z" fill="#FFB6B6"/>
<path d="M45.0783 225.53C44.8989 225.83 44.8016 226.799 44.8005 227.148C44.7971 228.222 45.6653 229.095 46.7396 229.099L64.4893 229.155C65.2222 229.157 65.8182 228.565 65.8206 227.833L65.8229 227.094C65.8229 227.094 66.708 224.877 64.909 222.136C64.909 222.136 62.6554 224.271 59.3087 220.905L58.3243 219.109L51.1412 224.325L47.1673 224.801C46.2979 224.905 45.5277 224.779 45.0783 225.53Z" fill="#262626"/>
<path d="M88.0512 122.273L80.9147 122.782C80.9147 122.782 56.7549 136.511 54.7159 139.568C52.6769 142.625 49.8733 146.956 52.4221 151.541C54.9708 156.126 53.031 211.644 53.031 211.644L65.2103 208.891L73.0136 150.803L89.3256 148.511C89.3256 148.511 94.9328 160.602 92.8938 170.604C90.8548 180.607 89.8354 186.721 89.8354 186.721L87.2866 245.82L97.2267 245.565L106.147 190.797L121.44 147.492L101.56 124.056L88.0512 122.273Z" fill="#262626"/>
<path d="M123.224 59.6082L108.441 61.1366L106.912 66.2313L92.6388 73.8733L97.2266 105.97L93.6583 111.574L95.1876 117.178C95.1876 117.178 91.1096 117.688 91.6193 120.745L82.4438 122.273C82.4438 122.273 94.6136 124.756 97.1944 137.016C99.7753 149.275 121.185 150.803 121.185 150.803L138.006 98.3279L139.536 67.2502L127.811 64.1934L123.224 59.6082Z" fill="#717171"/>
<path d="M115.433 57.6749C121.78 57.6749 126.925 52.5326 126.925 46.1894C126.925 39.8461 121.78 34.7039 115.433 34.7039C109.086 34.7039 103.941 39.8461 103.941 46.1894C103.941 52.5326 109.086 57.6749 115.433 57.6749Z" fill="#FFB6B6"/>
<path d="M109.461 56.5512C109.461 56.5512 99.2655 56.0417 100.285 47.8902C97.7617 39.2097 99.9952 33.5735 107.931 31.5871C107.931 31.5871 109.97 31.0776 110.48 31.0776C117.185 31.0776 120.675 33.1155 120.675 33.1155C120.675 33.1155 120.165 31.0977 120.675 31.5971C121.185 32.0966 121.694 33.1155 121.694 33.1155C121.694 33.1155 126.792 35.6629 126.792 40.7576C126.792 45.8523 126.792 43.8144 126.792 43.8144C126.792 43.8144 125.772 43.8144 124.753 40.7576C123.733 37.7008 117.133 39.7386 117.133 39.7386L117.616 40.7576L116.087 40.2481L114.558 41.7765L113.539 41.2671C113.539 41.2671 109.461 41.2671 109.97 41.2671C110.48 41.2671 110.125 44.7294 110.125 44.7294L106.402 48.9091L110.48 56.5512H109.461Z" fill="#262626"/>
<path d="M55.1447 117.359C52.2426 118.942 50.707 121.721 51.7149 123.567C52.7229 125.413 55.8927 125.626 58.7948 124.043C60.0652 123.35 61.0737 122.428 61.7216 121.455L73.9348 114.593L70.5908 108.933L58.9059 116.299C57.7368 116.317 56.4151 116.666 55.1447 117.359Z" fill="#FFB6B6"/>
<path d="M96.3314 74.1111C96.3314 74.1111 91.5437 72.2893 89.8942 74.4823C88.2447 76.6753 77.3478 103.285 77.3478 103.285L61.3601 111.63L65.856 119.455L86.4434 112.605L100.026 87.7765L96.3314 74.1111Z" fill="#717171"/>
<path d="M247.304 161.501V215.505C247.304 220.281 243.417 224.166 238.639 224.166H105.084C100.306 224.166 96.4187 220.281 96.4187 215.505V161.501C96.4187 156.725 100.306 152.84 105.084 152.84H238.639C243.417 152.84 247.304 156.725 247.304 161.501Z" fill="#FBFBFB"/>
<path d="M247.304 161.501V215.505C247.304 220.281 243.417 224.166 238.639 224.166H105.084C100.306 224.166 96.4187 220.281 96.4187 215.505V161.501C96.4187 156.725 100.306 152.84 105.084 152.84H238.639C243.417 152.84 247.304 156.725 247.304 161.501ZM238.639 223.147C242.861 223.147 246.285 219.726 246.285 215.505V188.278C246.285 169.269 230.866 153.859 211.847 153.859H105.084C100.862 153.859 97.4382 157.28 97.4382 161.501V215.505C97.4382 219.726 100.862 223.147 105.084 223.147H238.639Z" fill="#12395D"/>
<path d="M156.37 185.468H138.927C138.487 185.468 138.129 185.825 138.129 186.265C138.129 186.704 138.487 187.062 138.927 187.062H156.37C156.81 187.062 157.168 186.704 157.168 186.265C157.168 185.825 156.81 185.468 156.37 185.468Z" fill="#1D5C96"/>
<path d="M182.877 185.468H165.433C164.994 185.468 164.636 185.825 164.636 186.265C164.636 186.704 164.994 187.062 165.433 187.062H182.877C183.317 187.062 183.675 186.704 183.675 186.265C183.675 185.825 183.317 185.468 182.877 185.468Z" fill="#1D5C96"/>
<path d="M156.37 194.182H138.927C138.487 194.182 138.129 194.54 138.129 194.979C138.129 195.419 138.487 195.777 138.927 195.777H156.37C156.81 195.777 157.168 195.419 157.168 194.979C157.168 194.54 156.81 194.182 156.37 194.182Z" fill="#1D5C96"/>
<path d="M182.877 194.182H165.433C164.994 194.182 164.636 194.54 164.636 194.979C164.636 195.419 164.994 195.777 165.433 195.777H182.877C183.317 195.777 183.675 195.419 183.675 194.979C183.675 194.54 183.317 194.182 182.877 194.182Z" fill="#1D5C96"/>
<path d="M210.182 194.979C210.182 194.54 209.824 194.182 209.384 194.182H191.94C191.501 194.182 191.143 194.54 191.143 194.979C191.143 195.419 191.501 195.777 191.94 195.777H209.384C209.824 195.777 210.182 195.419 210.182 194.979Z" fill="#1D5C96"/>
<path d="M146.176 178.509C146.615 178.509 146.973 178.151 146.973 177.712C146.973 177.272 146.615 176.915 146.176 176.915H128.732C128.292 176.915 127.934 177.272 127.934 177.712C127.934 178.151 128.292 178.509 128.732 178.509H146.176Z" fill="#1D5C96"/>
<path d="M197.548 178.185H214.992C215.432 178.185 215.789 177.827 215.789 177.387C215.789 176.948 215.432 176.59 214.992 176.59H197.548C197.108 176.59 196.75 176.948 196.75 177.387C196.75 177.827 197.108 178.185 197.548 178.185Z" fill="#1D5C96"/>
<path d="M153.524 178.352H189.689C190.129 178.352 190.487 177.995 190.487 177.555C190.487 177.116 190.129 176.758 189.689 176.758H153.524C153.084 176.758 152.727 177.116 152.727 177.555C152.727 177.995 153.084 178.352 153.524 178.352Z" fill="#1D5C96"/>
<path d="M167.753 202.1H150.31C149.87 202.1 149.512 202.458 149.512 202.897C149.512 203.337 149.87 203.695 150.31 203.695H167.753C168.193 203.695 168.551 203.337 168.551 202.897C168.551 202.458 168.193 202.1 167.753 202.1Z" fill="#1D5C96"/>
<path d="M224.091 161.094V215.098C224.091 219.874 220.204 223.759 215.426 223.759H161.392C156.614 223.759 152.727 219.874 152.727 215.098V161.094C152.727 156.318 156.614 152.433 161.392 152.433H215.426C220.204 152.433 224.091 156.318 224.091 161.094Z" fill="#FBFBFB"/>
<path d="M224.091 161.094V215.098C224.091 219.874 220.204 223.759 215.426 223.759H161.392C156.614 223.759 152.727 219.874 152.727 215.098V161.094C152.727 156.318 156.614 152.433 161.392 152.433H215.426C220.204 152.433 224.091 156.318 224.091 161.094ZM212.074 222.74C218.148 222.74 223.072 217.819 223.072 211.748V187.871C223.072 168.862 207.653 153.452 188.634 153.452H161.392C157.169 153.452 153.746 156.874 153.746 161.094V207.563C153.746 215.945 160.545 222.74 168.931 222.74L212.074 222.74Z" fill="#12395D"/>
<path d="M195.602 174.489H178.158C177.718 174.489 177.36 174.132 177.36 173.692C177.36 173.252 177.718 172.895 178.158 172.895H195.602C196.042 172.895 196.399 173.252 196.399 173.692C196.399 174.132 196.042 174.489 195.602 174.489Z" fill="#1D5C96"/>
<path d="M195.602 191.487H178.158C177.718 191.487 177.36 191.129 177.36 190.69C177.36 190.25 177.718 189.893 178.158 189.893H195.602C196.042 189.893 196.399 190.25 196.399 190.69C196.399 191.129 196.042 191.487 195.602 191.487Z" fill="#1D5C96"/>
<path d="M186.936 214.923H169.492C169.052 214.923 168.695 214.565 168.695 214.126C168.695 213.686 169.052 213.329 169.492 213.329H186.936C187.376 213.329 187.734 213.686 187.734 214.126C187.734 214.565 187.376 214.923 186.936 214.923Z" fill="#1D5C96"/>
<path d="M204.962 182.994H168.797C168.358 182.994 168 182.636 168 182.196C168 181.757 168.358 181.399 168.797 181.399H204.962C205.402 181.399 205.76 181.757 205.76 182.196C205.76 182.636 205.402 182.994 204.962 182.994Z" fill="#1D5C96"/>
<path d="M213.924 131.169C213.924 114.322 199.678 105.055 183.404 100.665C162.54 95.0378 147.259 106.426 152.884 131.169C154.158 136.777 157.208 143.327 160.982 148.929H190.932C200.936 142.42 213.924 144.245 213.924 131.169Z" fill="#7DB0DE"/>
<path d="M182.956 163.016C184.66 159.77 186.82 157.428 189.2 155.646H161.148C168.368 165.953 177.943 172.569 182.956 163.016Z" fill="#7DB0DE"/>
<path d="M179.719 113.134C181.52 113.134 182.98 114.593 182.98 116.393V122.911H176.458V116.393C176.458 114.593 177.918 113.134 179.719 113.134ZM184.61 122.911V116.393C184.61 113.693 182.42 111.505 179.719 111.505C177.018 111.505 174.828 113.693 174.828 116.393V122.911C173.027 122.911 171.567 124.37 171.567 126.17V134.318C171.567 136.117 173.027 137.576 174.828 137.576H184.61C186.411 137.576 187.871 136.117 187.871 134.318V126.17C187.871 124.37 186.411 122.911 184.61 122.911ZM174.828 124.541H184.61C185.511 124.541 186.241 125.27 186.241 126.17V134.317C186.241 135.217 185.511 135.947 184.61 135.947H174.828C173.927 135.947 173.198 135.217 173.198 134.317V126.17C173.198 125.27 173.927 124.541 174.828 124.541Z" fill="#FBFBFB"/>
<path d="M133.121 151.08C132.728 154.361 134.103 157.224 136.192 157.474C138.281 157.724 140.293 155.267 140.686 151.986C140.858 150.549 140.692 149.193 140.275 148.102L141.766 134.178L135.214 133.618L134.439 147.403C133.776 148.366 133.293 149.644 133.121 151.08Z" fill="#FFB6B6"/>
<path d="M134.693 68.0143C134.693 68.0143 141.83 65.9764 143.359 69.0333C144.888 72.0901 148.456 112.338 148.456 112.338L141.575 144.465L133.674 142.397L137.752 109.791L132.145 85.3363L134.693 68.0143Z" fill="#717171"/>
<path d="M29.8203 165.751C46.2896 165.751 59.6406 152.407 59.6406 135.947C59.6406 119.487 46.2896 106.143 29.8203 106.143C13.351 106.143 0 119.487 0 135.947C0 152.407 13.351 165.751 29.8203 165.751Z" fill="#7DB0DE"/>
<path d="M29.8202 122.605C31.9268 122.605 33.6345 124.311 33.6345 126.417V134.041H26.006V126.417C26.006 124.311 27.7137 122.605 29.8202 122.605ZM35.5416 134.041V126.417C35.5416 123.259 32.98 120.698 29.8202 120.698C26.6604 120.698 24.0989 123.259 24.0989 126.417V134.041C21.9924 134.041 20.2847 135.748 20.2847 137.853V147.384C20.2847 149.489 21.9924 151.196 24.0989 151.196H35.5416C37.6481 151.196 39.3558 149.489 39.3558 147.384V137.853C39.3558 135.748 37.6481 134.041 35.5416 134.041ZM24.0989 135.947H35.5416C36.5948 135.947 37.4487 136.8 37.4487 137.853V147.384C37.4487 148.436 36.5948 149.29 35.5416 149.29H24.0989C23.0456 149.29 22.1918 148.436 22.1918 147.384V137.853C22.1918 136.8 23.0456 135.947 24.0989 135.947Z" fill="#FBFBFB"/>
</g>
<defs>
<clipPath id="clip0_726_230">
<rect width="288" height="261" fill="white"/>
</clipPath>
</defs>
</svg>
